<svg xmlns="http://www.w3.org/2000/svg" xmlns:xlink="http://www.w3.org/1999/xlink" width="100" zoomAndPan="magnify" viewBox="0 0 75 74.999997" height="100" preserveAspectRatio="xMidYMid meet" version="1.0"><defs><clipPath id="286729f85a"><path d="M 18 14 L 73.875 14 L 73.875 51 L 18 51 Z M 18 14 " clip-rule="nonzero"/></clipPath><clipPath id="699c418658"><path d="M 1.125 51 L 15 51 L 15 64 L 1.125 64 Z M 1.125 51 " clip-rule="nonzero"/></clipPath><clipPath id="878fa36e52"><path d="M 1.125 51 L 15 51 L 15 65 L 1.125 65 Z M 1.125 51 " clip-rule="nonzero"/></clipPath><clipPath id="5e91e85e04"><path d="M 1.125 58 L 11 58 L 11 67 L 1.125 67 Z M 1.125 58 " clip-rule="nonzero"/></clipPath><clipPath id="e50700ce94"><path d="M 1.550781 57.667969 L 10.800781 57.667969 L 10.800781 66.910156 L 1.550781 66.910156 Z M 1.550781 57.667969 " clip-rule="nonzero"/></clipPath><clipPath id="8790c68fb0"><path d="M 53 1.296875 L 56 1.296875 L 56 5 L 53 5 Z M 53 1.296875 " clip-rule="nonzero"/></clipPath><clipPath id="54c30126d5"><path d="M 16 62 L 73.875 62 L 73.875 64 L 16 64 Z M 16 62 " clip-rule="nonzero"/></clipPath></defs><g clip-path="url(#286729f85a)"><path fill="#ffffff" d="M 71.351562 50.78125 L 21.007812 50.78125 C 19.753906 50.78125 18.742188 49.769531 18.742188 48.523438 L 18.742188 16.566406 C 18.742188 15.320312 19.753906 14.308594 21.007812 14.308594 L 71.351562 14.308594 C 72.601562 14.308594 73.613281 15.320312 73.613281 16.566406 L 73.613281 48.523438 C 73.613281 49.769531 72.601562 50.78125 71.351562 50.78125 " fill-opacity="1" fill-rule="nonzero"/><path fill="#231f20" d="M 21.007812 14.515625 C 19.871094 14.515625 18.949219 15.433594 18.949219 16.566406 L 18.949219 48.523438 C 18.949219 49.652344 19.871094 50.574219 21.007812 50.574219 L 71.351562 50.574219 C 72.484375 50.574219 73.40625 49.652344 73.40625 48.523438 L 73.40625 16.566406 C 73.40625 15.433594 72.484375 14.515625 71.351562 14.515625 Z M 71.351562 50.988281 L 21.007812 50.988281 C 19.644531 50.988281 18.535156 49.882812 18.535156 48.523438 L 18.535156 16.566406 C 18.535156 15.207031 19.644531 14.101562 21.007812 14.101562 L 71.351562 14.101562 C 72.714844 14.101562 73.820312 15.207031 73.820312 16.566406 L 73.820312 48.523438 C 73.820312 49.882812 72.714844 50.988281 71.351562 50.988281 " fill-opacity="1" fill-rule="nonzero"/></g><path fill="#ffffff" d="M 71.007812 48.101562 L 21.347656 48.101562 L 21.347656 17.007812 L 71.007812 17.007812 L 71.007812 48.101562 " fill-opacity="1" fill-rule="nonzero"/><path fill="#231f20" d="M 21.554688 47.894531 L 70.800781 47.894531 L 70.800781 17.214844 L 21.554688 17.214844 Z M 71.214844 48.308594 L 21.140625 48.308594 L 21.140625 16.800781 L 71.214844 16.800781 L 71.214844 48.308594 " fill-opacity="1" fill-rule="nonzero"/><path fill="#ffffff" d="M 65.980469 28.117188 L 27.1875 28.117188 C 25.8125 28.117188 24.695312 27.007812 24.695312 25.632812 L 24.695312 21.847656 C 24.695312 20.476562 25.8125 19.363281 27.1875 19.363281 L 65.980469 19.363281 C 67.359375 19.363281 68.472656 20.476562 68.472656 21.847656 L 68.472656 25.632812 C 68.472656 27.007812 67.359375 28.117188 65.980469 28.117188 " fill-opacity="1" fill-rule="nonzero"/><path fill="#000000" d="M 27.1875 19.570312 C 25.925781 19.570312 24.902344 20.589844 24.902344 21.847656 L 24.902344 25.632812 C 24.902344 26.890625 25.925781 27.910156 27.1875 27.910156 L 65.980469 27.910156 C 67.242188 27.910156 68.265625 26.890625 68.265625 25.632812 L 68.265625 21.847656 C 68.265625 20.589844 67.242188 19.570312 65.980469 19.570312 Z M 65.980469 28.324219 L 27.1875 28.324219 C 25.699219 28.324219 24.488281 27.117188 24.488281 25.632812 L 24.488281 21.847656 C 24.488281 20.363281 25.699219 19.15625 27.1875 19.15625 L 65.980469 19.15625 C 67.46875 19.15625 68.679688 20.363281 68.679688 21.847656 L 68.679688 25.632812 C 68.679688 27.117188 67.46875 28.324219 65.980469 28.324219 " fill-opacity="1" fill-rule="nonzero"/><path fill="#ffffff" d="M 68.472656 43.90625 L 40.605469 43.90625 L 40.605469 30.53125 L 68.472656 30.53125 L 68.472656 43.90625 " fill-opacity="1" fill-rule="nonzero"/><path fill="#231f20" d="M 40.8125 43.699219 L 68.265625 43.699219 L 68.265625 30.738281 L 40.8125 30.738281 Z M 68.679688 44.113281 L 40.398438 44.113281 L 40.398438 30.324219 L 68.679688 30.324219 L 68.679688 44.113281 " fill-opacity="1" fill-rule="nonzero"/><path fill="#231f20" d="M 40.605469 40.988281 L 47.703125 32.753906 L 58.410156 40.734375 L 62.976562 37.675781 L 68.472656 41.210938 L 68.472656 43.90625 L 40.605469 43.90625 L 40.605469 40.988281 " fill-opacity="1" fill-rule="nonzero"/><path fill="#231f20" d="M 65.363281 33.367188 C 65.363281 34.039062 64.816406 34.585938 64.144531 34.585938 C 63.46875 34.585938 62.925781 34.039062 62.925781 33.367188 C 62.925781 32.695312 63.46875 32.152344 64.144531 32.152344 C 64.816406 32.152344 65.363281 32.695312 65.363281 33.367188 " fill-opacity="1" fill-rule="nonzero"/><path fill="#231f20" d="M 38.40625 30.738281 L 29.003906 30.738281 L 29.003906 30.324219 L 38.40625 30.324219 L 38.40625 30.738281 " fill-opacity="1" fill-rule="nonzero"/><path fill="#231f20" d="M 38.40625 32.359375 L 29.003906 32.359375 L 29.003906 31.945312 L 38.40625 31.945312 L 38.40625 32.359375 " fill-opacity="1" fill-rule="nonzero"/><path fill="#231f20" d="M 38.40625 33.980469 L 29.003906 33.980469 L 29.003906 33.566406 L 38.40625 33.566406 L 38.40625 33.980469 " fill-opacity="1" fill-rule="nonzero"/><path fill="#231f20" d="M 38.40625 35.597656 L 29.003906 35.597656 L 29.003906 35.1875 L 38.40625 35.1875 L 38.40625 35.597656 " fill-opacity="1" fill-rule="nonzero"/><path fill="#231f20" d="M 38.40625 37.21875 L 29.003906 37.21875 L 29.003906 36.804688 L 38.40625 36.804688 L 38.40625 37.21875 " fill-opacity="1" fill-rule="nonzero"/><path fill="#231f20" d="M 38.40625 38.839844 L 29.003906 38.839844 L 29.003906 38.425781 L 38.40625 38.425781 L 38.40625 38.839844 " fill-opacity="1" fill-rule="nonzero"/><path fill="#231f20" d="M 20.964844 34.257812 C 20.964844 34.257812 20.671875 35.21875 21.347656 35.566406 C 22.003906 35.898438 21.976562 36.082031 22.003906 36.554688 C 22.035156 37.21875 22.574219 37.796875 23.558594 37.667969 C 24.542969 37.539062 25.140625 34.488281 25.140625 34.488281 L 20.964844 34.257812 " fill-opacity="1" fill-rule="nonzero"/><path fill="#ffffff" d="M 31.710938 51.277344 L 37.960938 60.589844 L 44.441406 56.851562 L 38.40625 46.152344 L 31.710938 51.277344 " fill-opacity="1" fill-rule="nonzero"/><path fill="#231f20" d="M 31.992188 51.324219 L 38.023438 60.316406 L 44.160156 56.773438 L 38.34375 46.460938 Z M 37.894531 60.867188 L 31.429688 51.230469 L 38.472656 45.839844 L 44.722656 56.929688 L 37.894531 60.867188 " fill-opacity="1" fill-rule="nonzero"/><path fill="#fcce4b" d="M 31.285156 51.742188 L 33.984375 56.800781 L 41.613281 51.835938 C 41.613281 51.835938 40.050781 48.101562 38.085938 45.21875 C 36.78125 43.300781 35.304688 41.515625 32.039062 40.863281 C 31.234375 49.5625 31.285156 51.742188 31.285156 51.742188 " fill-opacity="1" fill-rule="nonzero"/><path fill="#fcce4b" d="M 16.917969 40.355469 L 12.769531 62.617188 L 31.648438 62.617188 L 33.984375 41.441406 C 33.984375 41.441406 31.808594 40.335938 26.941406 39.734375 C 26.746094 40.457031 26.125 41.535156 24 41.417969 C 22.085938 41.308594 21.726562 40.539062 21.582031 39.902344 C 19.96875 39.878906 16.917969 40.355469 16.917969 40.355469 " fill-opacity="1" fill-rule="nonzero"/><path fill="#231f20" d="M 31.855469 62.375 L 31.441406 62.332031 L 32.867188 49.589844 L 33.277344 49.636719 L 31.855469 62.375 " fill-opacity="1" fill-rule="nonzero"/><path fill="#ffffff" d="M 23.246094 35.03125 L 22.226562 40.027344 L 21.128906 40.105469 C 21.128906 40.105469 20.933594 42.15625 24.484375 42.175781 C 27.199219 42.1875 27.273438 39.96875 27.273438 39.96875 L 26.089844 39.847656 L 26.074219 35.03125 L 23.246094 35.03125 " fill-opacity="1" fill-rule="nonzero"/><path fill="#231f20" d="M 21.34375 40.300781 C 21.367188 40.488281 21.449219 40.808594 21.734375 41.121094 C 22.238281 41.667969 23.1875 41.960938 24.484375 41.96875 L 24.507812 41.96875 C 26.53125 41.96875 26.957031 40.65625 27.042969 40.152344 L 25.882812 40.035156 L 25.867188 35.238281 L 23.417969 35.238281 L 22.398438 40.222656 Z M 24.511719 42.382812 C 24.507812 42.382812 24.507812 42.382812 24.507812 42.382812 L 24.484375 42.382812 C 23.039062 42.375 22.007812 42.039062 21.417969 41.390625 C 20.863281 40.777344 20.917969 40.113281 20.921875 40.085938 L 20.9375 39.914062 L 22.054688 39.832031 L 23.078125 34.824219 L 26.28125 34.824219 L 26.296875 39.660156 L 27.488281 39.78125 L 27.480469 39.976562 C 27.480469 40 27.367188 42.382812 24.511719 42.382812 " fill-opacity="1" fill-rule="nonzero"/><path fill="#ffffff" d="M 25.167969 35.988281 C 25.167969 35.988281 27.292969 35.933594 27.628906 35.210938 C 27.96875 34.488281 25.632812 30.738281 23.636719 31.230469 C 21.640625 31.722656 20.03125 35.988281 25.167969 35.988281 " fill-opacity="1" fill-rule="nonzero"/><path fill="#231f20" d="M 24.984375 32.960938 C 24.570312 32.960938 24.234375 33.296875 24.234375 33.710938 C 24.234375 34.121094 24.570312 34.460938 24.984375 34.460938 C 25.398438 34.460938 25.738281 34.121094 25.738281 33.710938 C 25.738281 33.296875 25.398438 32.960938 24.984375 32.960938 Z M 24.984375 34.875 C 24.339844 34.875 23.816406 34.351562 23.816406 33.710938 C 23.816406 33.066406 24.339844 32.546875 24.984375 32.546875 C 25.628906 32.546875 26.152344 33.066406 26.152344 33.710938 C 26.152344 34.351562 25.628906 34.875 24.984375 34.875 " fill-opacity="1" fill-rule="nonzero"/><path fill="#231f20" d="M 26.902344 31.792969 C 26.488281 31.792969 26.152344 32.128906 26.152344 32.542969 C 26.152344 32.957031 26.488281 33.292969 26.902344 33.292969 C 27.320312 33.292969 27.65625 32.957031 27.65625 32.542969 C 27.65625 32.128906 27.320312 31.792969 26.902344 31.792969 Z M 26.902344 33.707031 C 26.261719 33.707031 25.738281 33.1875 25.738281 32.542969 C 25.738281 31.902344 26.261719 31.382812 26.902344 31.382812 C 27.546875 31.382812 28.070312 31.902344 28.070312 32.542969 C 28.070312 33.1875 27.546875 33.707031 26.902344 33.707031 " fill-opacity="1" fill-rule="nonzero"/><path fill="#231f20" d="M 26.523438 34.664062 C 26.449219 34.664062 26.371094 34.65625 26.285156 34.640625 L 26.363281 34.234375 C 26.882812 34.332031 27.078125 33.941406 27.082031 33.9375 L 27.46875 34.085938 C 27.386719 34.292969 27.0625 34.664062 26.523438 34.664062 " fill-opacity="1" fill-rule="nonzero"/><path fill="#231f20" d="M 23.300781 34.835938 L 23.714844 34.152344 C 23.714844 34.152344 23.066406 32.753906 23.714844 32.523438 C 24.363281 32.289062 25.640625 32.492188 26 32.210938 C 26.203125 31.722656 26.046875 29.652344 25.035156 29.859375 C 24.023438 30.066406 24.335938 30.6875 23.558594 30.609375 C 22.78125 30.53125 22.105469 30.117188 21.121094 31.023438 C 20.136719 31.929688 20.574219 32.496094 20.289062 32.9375 C 20.003906 33.375 19.566406 33.816406 19.902344 34.4375 C 20.238281 35.054688 21.277344 34.5625 21.304688 34.835938 C 21.328125 35.109375 23.113281 35.660156 23.113281 35.660156 L 23.300781 34.835938 " fill-opacity="1" fill-rule="nonzero"/><path fill="#ffffff" d="M 23.574219 34.257812 C 23.574219 34.257812 22.566406 33.648438 22.175781 34.347656 C 21.546875 35.476562 23.265625 35.824219 23.265625 35.824219 " fill-opacity="1" fill-rule="nonzero"/><path fill="#231f20" d="M 23.222656 36.027344 C 23.183594 36.015625 22.199219 35.8125 21.910156 35.1875 C 21.777344 34.898438 21.804688 34.585938 21.996094 34.246094 C 22.109375 34.039062 22.289062 33.898438 22.511719 33.835938 C 23.039062 33.695312 23.65625 34.066406 23.683594 34.082031 L 23.46875 34.433594 C 23.332031 34.355469 22.910156 34.160156 22.617188 34.238281 C 22.503906 34.269531 22.417969 34.335938 22.355469 34.449219 C 22.234375 34.667969 22.210938 34.851562 22.285156 35.011719 C 22.453125 35.375 23.078125 35.574219 23.304688 35.621094 L 23.222656 36.027344 " fill-opacity="1" fill-rule="nonzero"/><path fill="#231f20" d="M 25.171875 36.195312 L 25.160156 35.78125 C 25.933594 35.761719 27.234375 35.566406 27.441406 35.125 C 27.59375 34.800781 26.769531 33.019531 25.425781 31.984375 C 24.988281 31.644531 24.332031 31.273438 23.6875 31.429688 L 23.585938 31.027344 C 24.222656 30.871094 24.949219 31.089844 25.683594 31.65625 C 26.945312 32.636719 28.125 34.644531 27.816406 35.296875 C 27.4375 36.117188 25.402344 36.1875 25.171875 36.195312 " fill-opacity="1" fill-rule="nonzero"/><path fill="#ffffff" d="M 44.609375 57.207031 C 45.386719 59.117188 44.46875 61.296875 42.550781 62.074219 C 40.632812 62.851562 38.449219 61.933594 37.667969 60.023438 C 36.886719 58.113281 37.808594 55.933594 39.726562 55.15625 C 41.644531 54.378906 43.828125 55.296875 44.609375 57.207031 " fill-opacity="1" fill-rule="nonzero"/><path fill="#231f20" d="M 41.136719 55.085938 C 40.679688 55.085938 40.230469 55.171875 39.804688 55.347656 C 38.929688 55.703125 38.246094 56.375 37.878906 57.246094 C 37.511719 58.113281 37.503906 59.070312 37.859375 59.945312 C 38.40625 61.28125 39.691406 62.144531 41.140625 62.144531 C 41.597656 62.144531 42.046875 62.054688 42.472656 61.882812 C 43.347656 61.527344 44.03125 60.855469 44.398438 59.984375 C 44.765625 59.117188 44.773438 58.15625 44.417969 57.285156 C 43.871094 55.949219 42.582031 55.085938 41.136719 55.085938 Z M 41.140625 62.558594 C 39.523438 62.558594 38.085938 61.59375 37.476562 60.101562 C 37.078125 59.125 37.085938 58.054688 37.496094 57.082031 C 37.90625 56.113281 38.671875 55.359375 39.648438 54.964844 C 40.125 54.769531 40.625 54.671875 41.136719 54.671875 C 42.753906 54.671875 44.191406 55.636719 44.800781 57.128906 C 45.621094 59.140625 44.648438 61.445312 42.628906 62.265625 C 42.152344 62.460938 41.652344 62.558594 41.140625 62.558594 " fill-opacity="1" fill-rule="nonzero"/><path fill="#ffffff" d="M 45.238281 42.425781 L 37.863281 56.800781 L 44.5625 60.132812 L 50.476562 44.699219 L 45.238281 42.425781 " fill-opacity="1" fill-rule="nonzero"/><path fill="#ffffff" d="M 52.488281 38.332031 L 51.644531 37.476562 L 55.535156 33.664062 C 55.769531 33.433594 56.148438 33.4375 56.378906 33.671875 L 56.386719 33.679688 C 56.617188 33.914062 56.613281 34.289062 56.378906 34.519531 L 52.488281 38.332031 " fill-opacity="1" fill-rule="nonzero"/><path fill="#231f20" d="M 51.9375 37.476562 L 52.492188 38.039062 L 56.234375 34.371094 C 56.308594 34.300781 56.351562 34.203125 56.351562 34.097656 C 56.351562 33.996094 56.3125 33.898438 56.238281 33.824219 L 56.230469 33.816406 C 56.085938 33.667969 55.828125 33.664062 55.683594 33.8125 Z M 52.484375 38.625 L 51.351562 37.472656 L 55.390625 33.515625 C 55.542969 33.367188 55.742188 33.285156 55.953125 33.285156 C 56.171875 33.285156 56.375 33.371094 56.527344 33.527344 L 56.535156 33.535156 C 56.6875 33.6875 56.769531 33.890625 56.765625 34.101562 C 56.765625 34.316406 56.679688 34.515625 56.527344 34.667969 L 52.484375 38.625 " fill-opacity="1" fill-rule="nonzero"/><path fill="#ffffff" d="M 50.921875 38.179688 L 50.078125 37.324219 L 53.96875 33.511719 C 54.207031 33.28125 54.582031 33.285156 54.8125 33.519531 L 54.824219 33.527344 C 55.054688 33.761719 55.050781 34.136719 54.816406 34.367188 L 50.921875 38.179688 " fill-opacity="1" fill-rule="nonzero"/><path fill="#231f20" d="M 50.371094 37.324219 L 50.925781 37.886719 L 54.667969 34.21875 C 54.742188 34.148438 54.785156 34.050781 54.785156 33.945312 C 54.785156 33.84375 54.746094 33.746094 54.675781 33.671875 L 54.664062 33.664062 C 54.519531 33.515625 54.265625 33.515625 54.117188 33.660156 Z M 50.917969 38.472656 L 49.785156 37.320312 L 53.824219 33.363281 C 53.976562 33.214844 54.175781 33.132812 54.390625 33.132812 C 54.605469 33.132812 54.808594 33.21875 54.960938 33.375 L 54.972656 33.382812 C 55.121094 33.535156 55.203125 33.738281 55.199219 33.949219 C 55.199219 34.164062 55.113281 34.367188 54.960938 34.515625 L 50.917969 38.472656 " fill-opacity="1" fill-rule="nonzero"/><path fill="#ffffff" d="M 52.765625 39.738281 L 51.921875 38.882812 L 55.816406 35.070312 C 56.050781 34.839844 56.425781 34.84375 56.660156 35.078125 L 56.667969 35.085938 C 56.898438 35.320312 56.894531 35.699219 56.660156 35.929688 L 52.765625 39.738281 " fill-opacity="1" fill-rule="nonzero"/><path fill="#231f20" d="M 52.214844 38.886719 L 52.769531 39.449219 L 56.515625 35.78125 C 56.667969 35.628906 56.667969 35.386719 56.519531 35.230469 L 56.511719 35.226562 C 56.363281 35.074219 56.109375 35.074219 55.960938 35.21875 Z M 52.765625 40.03125 L 51.628906 38.878906 L 55.667969 34.925781 C 55.820312 34.777344 56.019531 34.695312 56.234375 34.695312 C 56.449219 34.695312 56.65625 34.777344 56.804688 34.933594 L 56.8125 34.941406 C 57.125 35.257812 57.121094 35.765625 56.804688 36.074219 L 52.765625 40.03125 " fill-opacity="1" fill-rule="nonzero"/><path fill="#ffffff" d="M 52.988281 41.210938 L 52.144531 40.355469 L 56.035156 36.542969 C 56.269531 36.3125 56.648438 36.316406 56.878906 36.550781 L 56.886719 36.558594 C 57.117188 36.792969 57.117188 37.167969 56.878906 37.398438 L 52.988281 41.210938 " fill-opacity="1" fill-rule="nonzero"/><path fill="#231f20" d="M 52.4375 40.355469 L 52.992188 40.917969 L 56.734375 37.25 C 56.808594 37.179688 56.851562 37.082031 56.851562 36.976562 C 56.851562 36.875 56.8125 36.777344 56.738281 36.703125 L 56.730469 36.695312 C 56.585938 36.546875 56.328125 36.542969 56.179688 36.6875 Z M 52.984375 41.503906 L 51.851562 40.351562 L 55.890625 36.394531 C 56.042969 36.246094 56.242188 36.164062 56.453125 36.164062 C 56.671875 36.164062 56.875 36.25 57.027344 36.402344 L 57.035156 36.414062 C 57.1875 36.566406 57.269531 36.765625 57.265625 36.980469 C 57.265625 37.195312 57.179688 37.394531 57.027344 37.546875 L 52.984375 41.503906 " fill-opacity="1" fill-rule="nonzero"/><path fill="#ffffff" d="M 50.570312 36.804688 C 50.570312 36.804688 46.324219 38.984375 45.15625 42.785156 C 50.253906 45.277344 50.253906 45.277344 50.253906 45.277344 C 50.253906 45.277344 52.914062 43.351562 54.457031 39.773438 C 51.246094 37.3125 50.570312 36.804688 50.570312 36.804688 " fill-opacity="1" fill-rule="nonzero"/><path fill="#231f20" d="M 49.765625 42.03125 L 49.40625 41.824219 C 49.863281 41.039062 50.613281 40.359375 51.574219 39.863281 L 51.765625 40.230469 C 50.871094 40.691406 50.183594 41.3125 49.765625 42.03125 " fill-opacity="1" fill-rule="nonzero"/><path fill="#231f20" d="M 50.378906 45.445312 L 50.132812 45.109375 C 50.160156 45.089844 52.800781 43.140625 54.296875 39.660156 L 54.679688 39.820312 C 53.136719 43.414062 50.488281 45.363281 50.378906 45.445312 " fill-opacity="1" fill-rule="nonzero"/><path fill="#231f20" d="M 45.355469 42.847656 L 44.960938 42.726562 C 46.136719 38.886719 50.378906 36.667969 50.558594 36.574219 L 50.75 36.941406 C 50.707031 36.964844 46.480469 39.175781 45.355469 42.847656 " fill-opacity="1" fill-rule="nonzero"/><path fill="#ffffff" d="M 45.132812 43.285156 C 45.132812 43.285156 45.167969 38.496094 47.726562 37.5625 C 52.015625 37.5625 52.328125 37.5625 52.328125 37.5625 C 52.328125 37.5625 52.570312 39.0625 49.351562 39.046875 C 49.351562 40.527344 48.695312 42.976562 47.691406 44.25 " fill-opacity="1" fill-rule="nonzero"/><path fill="#231f20" d="M 47.855469 44.378906 L 47.53125 44.125 C 48.496094 42.894531 49.144531 40.507812 49.144531 39.046875 L 49.144531 38.839844 L 49.355469 38.839844 C 50.96875 38.847656 51.640625 38.46875 51.914062 38.148438 C 52.035156 38.007812 52.085938 37.871094 52.109375 37.769531 L 47.765625 37.769531 C 45.402344 38.671875 45.34375 43.242188 45.34375 43.289062 L 44.925781 43.285156 C 44.929688 43.082031 44.992188 38.339844 47.65625 37.371094 L 47.691406 37.355469 L 52.503906 37.355469 L 52.53125 37.53125 C 52.535156 37.550781 52.597656 37.984375 52.230469 38.417969 C 51.769531 38.953125 50.871094 39.234375 49.554688 39.253906 C 49.5 40.792969 48.832031 43.140625 47.855469 44.378906 " fill-opacity="1" fill-rule="nonzero"/><path fill="#231f20" d="M 44.753906 60.207031 L 44.367188 60.058594 L 50.164062 45.039062 L 50.550781 45.1875 L 44.753906 60.207031 " fill-opacity="1" fill-rule="nonzero"/><path fill="#231f20" d="M 38.050781 56.894531 L 37.679688 56.707031 L 45.054688 42.332031 L 45.421875 42.519531 L 38.050781 56.894531 " fill-opacity="1" fill-rule="nonzero"/><g clip-path="url(#699c418658)"><path fill="#ffffff" d="M 6.652344 51.527344 L 1.992188 60.953125 L 10.214844 63.855469 L 14.328125 53.699219 L 6.652344 51.527344 " fill-opacity="1" fill-rule="nonzero"/></g><g clip-path="url(#878fa36e52)"><path fill="#000000" d="M 2.28125 60.835938 L 10.097656 63.59375 L 14.050781 53.832031 L 6.761719 51.773438 Z M 10.332031 64.113281 L 1.703125 61.070312 L 6.542969 51.28125 L 14.609375 53.5625 L 10.332031 64.113281 " fill-opacity="1" fill-rule="nonzero"/></g><path fill="#fcce4b" d="M 17.335938 49.613281 L 13.496094 55.867188 L 4.421875 54.835938 C 4.421875 54.835938 7.089844 49.972656 9.296875 46.640625 C 11.5 43.304688 14.667969 40.582031 17.101562 40.332031 C 17.285156 47.257812 17.335938 49.613281 17.335938 49.613281 " fill-opacity="1" fill-rule="nonzero"/><path fill="#231f20" d="M 13.671875 55.976562 L 13.320312 55.761719 L 17.15625 49.503906 L 17.511719 49.71875 L 13.671875 55.976562 " fill-opacity="1" fill-rule="nonzero"/><g clip-path="url(#5e91e85e04)"><path fill="#ffffff" d="M 10.160156 60.714844 C 11.066406 62.9375 9.996094 65.476562 7.765625 66.382812 C 5.535156 67.285156 2.988281 66.214844 2.082031 63.992188 C 1.171875 61.769531 2.246094 59.230469 4.476562 58.328125 C 6.707031 57.421875 9.253906 58.492188 10.160156 60.714844 " fill-opacity="1" fill-rule="nonzero"/></g><g clip-path="url(#e50700ce94)"><path fill="#000000" d="M 6.121094 58.210938 C 5.582031 58.210938 5.058594 58.3125 4.554688 58.519531 C 2.433594 59.378906 1.410156 61.800781 2.273438 63.914062 C 2.914062 65.484375 4.425781 66.496094 6.121094 66.496094 C 6.660156 66.496094 7.183594 66.394531 7.6875 66.191406 C 9.808594 65.328125 10.832031 62.910156 9.96875 60.792969 C 9.328125 59.226562 7.816406 58.210938 6.121094 58.210938 Z M 6.121094 66.910156 C 4.253906 66.910156 2.59375 65.796875 1.890625 64.070312 C 0.941406 61.746094 2.066406 59.082031 4.398438 58.136719 C 4.949219 57.910156 5.527344 57.796875 6.121094 57.796875 C 7.988281 57.796875 9.648438 58.914062 10.351562 60.636719 C 11.300781 62.964844 10.175781 65.625 7.84375 66.574219 C 7.292969 66.796875 6.710938 66.910156 6.121094 66.910156 " fill-opacity="1" fill-rule="nonzero"/></g><path fill="#ffffff" d="M 26.046875 56.695312 L 23.707031 51.742188 L 4.476562 58.328125 L 6.09375 62.351562 L 7.714844 66.402344 L 26.046875 56.695312 " fill-opacity="1" fill-rule="nonzero"/><path fill="#ffffff" d="M 25.199219 57.144531 C 25.199219 57.144531 25.503906 56.75 25.839844 57.292969 C 26.175781 57.835938 27.007812 59.199219 27.628906 59.070312 C 28.253906 58.945312 28.433594 58.558594 28.484375 58.324219 C 28.824219 58.507812 29.132812 58.53125 29.394531 58.402344 C 29.652344 58.273438 29.757812 57.796875 29.757812 57.796875 C 29.757812 57.796875 30.09375 58.125 30.429688 58.003906 C 30.640625 57.929688 30.859375 57.8125 31.015625 57.640625 L 33.355469 60.882812 C 33.507812 61.09375 33.789062 61.160156 34.019531 61.042969 L 34.03125 61.035156 C 34.300781 60.898438 34.394531 60.5625 34.238281 60.304688 L 31.722656 56.128906 C 31.089844 54.851562 29.769531 52.167969 27.550781 51.488281 C 25.417969 50.832031 22.839844 52.039062 22.839844 52.039062 " fill-opacity="1" fill-rule="nonzero"/><path fill="#231f20" d="M 33.777344 61.304688 C 33.550781 61.304688 33.328125 61.199219 33.1875 61.003906 L 30.980469 57.949219 C 30.816406 58.070312 30.636719 58.152344 30.5 58.199219 C 30.261719 58.285156 30.03125 58.214844 29.867188 58.125 C 29.792969 58.296875 29.671875 58.496094 29.484375 58.589844 C 29.296875 58.683594 29 58.753906 28.605469 58.609375 C 28.484375 58.863281 28.226562 59.164062 27.671875 59.273438 C 27.011719 59.40625 26.328125 58.46875 25.6875 57.4375 L 25.664062 57.398438 C 25.582031 57.265625 25.507812 57.214844 25.46875 57.210938 C 25.421875 57.210938 25.371094 57.261719 25.359375 57.273438 L 25.03125 57.019531 C 25.050781 56.996094 25.222656 56.785156 25.488281 56.800781 C 25.6875 56.808594 25.867188 56.9375 26.015625 57.183594 L 26.039062 57.21875 C 26.757812 58.375 27.277344 58.933594 27.589844 58.867188 C 28.078125 58.769531 28.234375 58.496094 28.28125 58.28125 L 28.34375 58.015625 L 28.582031 58.144531 C 28.859375 58.292969 29.101562 58.316406 29.300781 58.21875 C 29.417969 58.160156 29.519531 57.90625 29.554688 57.753906 L 29.632812 57.390625 L 29.902344 57.648438 C 29.902344 57.652344 30.15625 57.882812 30.359375 57.808594 C 30.511719 57.757812 30.71875 57.660156 30.859375 57.503906 L 31.03125 57.3125 L 33.523438 60.761719 C 33.617188 60.886719 33.785156 60.929688 33.925781 60.855469 C 34.015625 60.8125 34.070312 60.742188 34.09375 60.660156 C 34.121094 60.574219 34.109375 60.484375 34.0625 60.410156 L 31.535156 56.222656 C 30.914062 54.960938 29.621094 52.339844 27.492188 51.683594 C 25.457031 51.0625 22.953125 52.214844 22.925781 52.226562 L 22.75 51.851562 C 22.859375 51.800781 25.425781 50.621094 27.613281 51.289062 C 29.910156 51.992188 31.257812 54.714844 31.90625 56.03125 L 34.417969 60.195312 C 34.519531 60.367188 34.550781 60.578125 34.492188 60.773438 C 34.4375 60.964844 34.304688 61.128906 34.125 61.222656 C 34.011719 61.277344 33.894531 61.304688 33.777344 61.304688 " fill-opacity="1" fill-rule="nonzero"/><path fill="#231f20" d="M 4.542969 58.523438 L 4.410156 58.132812 L 23.636719 51.546875 L 23.773438 51.9375 L 4.542969 58.523438 " fill-opacity="1" fill-rule="nonzero"/><path fill="#231f20" d="M 7.8125 66.582031 L 7.617188 66.21875 L 25.949219 56.511719 L 26.144531 56.878906 L 7.8125 66.582031 " fill-opacity="1" fill-rule="nonzero"/><path fill="#231f20" d="M 21.5625 59.265625 L 20.238281 59.863281 L 17.976562 54.855469 L 19.300781 54.261719 L 21.5625 59.265625 " fill-opacity="1" fill-rule="nonzero"/><path fill="#231f20" d="M 17.398438 55.980469 L 16.632812 54.167969 C 16.480469 53.8125 16.648438 53.402344 17.003906 53.253906 L 18.535156 52.613281 C 18.890625 52.464844 19.300781 52.628906 19.449219 52.984375 L 20.214844 54.796875 C 20.363281 55.152344 20.199219 55.558594 19.84375 55.707031 L 18.3125 56.351562 C 17.957031 56.5 17.546875 56.335938 17.398438 55.980469 " fill-opacity="1" fill-rule="nonzero"/><path fill="#fcce4b" d="M 68.667969 14.105469 C 68.152344 13.679688 67.59375 13.121094 66.996094 12.484375 C 65.238281 10.617188 64.636719 8.917969 62.113281 7.882812 C 59.585938 6.847656 56.09375 9.574219 56.09375 9.574219 L 56.09375 14.105469 L 68.667969 14.105469 " fill-opacity="1" fill-rule="nonzero"/><path fill="#ffffff" d="M 39.398438 14.921875 C 39.398438 14.921875 37.875 16.183594 37.171875 17.835938 C 36.472656 19.492188 36.707031 21.148438 36.886719 21.820312 C 37.070312 22.492188 37.328125 23.292969 37.664062 23.164062 C 37.769531 23.757812 38.027344 24.300781 38.289062 24.636719 C 38.546875 24.972656 38.808594 24.84375 38.808594 24.84375 C 38.808594 24.84375 39.273438 26.292969 40 26.085938 C 40.519531 25.902344 40.179688 25.078125 40 23.964844 C 39.816406 22.851562 39.894531 22.699219 39.894531 22.699219 C 39.894531 22.699219 40.75 20.707031 41.113281 20.515625 C 40.984375 21.507812 40.726562 24.25 42.179688 23.9375 C 42.257812 23.058594 42.464844 21.507812 42.671875 20.8125 C 42.878906 20.113281 43.761719 18.535156 43.683594 16.957031 " fill-opacity="1" fill-rule="nonzero"/><path fill="#231f20" d="M 39.851562 26.3125 C 39.21875 26.3125 38.816406 25.457031 38.667969 25.074219 C 38.507812 25.070312 38.304688 24.996094 38.125 24.761719 C 37.839844 24.394531 37.613281 23.886719 37.496094 23.371094 C 37.464844 23.363281 37.4375 23.351562 37.40625 23.339844 C 37.140625 23.203125 36.933594 22.777344 36.6875 21.871094 C 36.59375 21.523438 36.164062 19.6875 36.980469 17.757812 C 37.695312 16.074219 39.203125 14.816406 39.265625 14.765625 L 39.53125 15.082031 C 39.515625 15.09375 38.035156 16.332031 37.363281 17.917969 C 36.601562 19.722656 37 21.4375 37.089844 21.765625 C 37.375 22.832031 37.550781 22.957031 37.597656 22.972656 L 37.832031 22.878906 L 37.871094 23.128906 C 37.972656 23.726562 38.238281 24.234375 38.453125 24.511719 C 38.597656 24.699219 38.714844 24.660156 38.714844 24.660156 L 38.929688 24.550781 L 39.003906 24.78125 C 39.109375 25.105469 39.503906 26.003906 39.9375 25.886719 C 40.148438 25.808594 40.078125 25.410156 39.933594 24.722656 C 39.886719 24.503906 39.835938 24.257812 39.792969 24 C 39.671875 23.234375 39.640625 22.769531 39.707031 22.617188 C 39.914062 22.132812 40.621094 20.542969 41.015625 20.332031 L 41.371094 20.140625 L 41.320312 20.539062 C 41.113281 22.136719 41.21875 23.261719 41.617188 23.628906 C 41.71875 23.71875 41.835938 23.761719 41.988281 23.757812 C 42.074219 22.859375 42.269531 21.433594 42.472656 20.753906 C 42.527344 20.570312 42.621094 20.335938 42.730469 20.066406 C 43.050781 19.289062 43.53125 18.109375 43.476562 16.96875 L 43.890625 16.949219 C 43.949219 18.179688 43.449219 19.410156 43.117188 20.222656 C 43.007812 20.484375 42.917969 20.707031 42.871094 20.871094 C 42.664062 21.5625 42.457031 23.121094 42.382812 23.957031 L 42.371094 24.109375 L 42.222656 24.140625 C 41.875 24.214844 41.566406 24.144531 41.335938 23.929688 C 40.816406 23.453125 40.75 22.316406 40.832031 21.242188 C 40.601562 21.65625 40.320312 22.234375 40.09375 22.765625 C 40.085938 22.808594 40.0625 23.058594 40.203125 23.933594 C 40.246094 24.183594 40.292969 24.414062 40.339844 24.636719 C 40.5 25.414062 40.640625 26.082031 40.066406 26.28125 L 40.058594 26.285156 C 39.984375 26.304688 39.917969 26.3125 39.851562 26.3125 " fill-opacity="1" fill-rule="nonzero"/><path fill="#231f20" d="M 38.648438 25.015625 C 38.632812 24.976562 38.316406 24.105469 38.210938 23.238281 C 38.105469 22.347656 38.789062 20.363281 38.816406 20.277344 L 39.210938 20.414062 C 39.203125 20.433594 38.527344 22.394531 38.625 23.191406 C 38.722656 24.011719 39.035156 24.863281 39.035156 24.871094 L 38.648438 25.015625 " fill-opacity="1" fill-rule="nonzero"/><path fill="#231f20" d="M 37.464844 23.214844 C 37.457031 23.179688 37.253906 22.382812 37.203125 21.671875 C 37.148438 20.9375 37.582031 19.777344 37.601562 19.730469 L 37.988281 19.875 C 37.984375 19.886719 37.570312 21 37.617188 21.640625 C 37.667969 22.316406 37.863281 23.105469 37.867188 23.113281 L 37.464844 23.214844 " fill-opacity="1" fill-rule="nonzero"/><path fill="#fcce4b" d="M 56.28125 14.085938 C 56.28125 14.085938 52.863281 14.382812 49.699219 15.40625 C 46.535156 16.429688 43.757812 18.3125 43.757812 18.3125 C 43.757812 18.3125 41.242188 15.597656 38.960938 15.03125 C 40.386719 13.695312 43.902344 12.003906 48.734375 10.957031 C 53.15625 10.003906 55.199219 9.804688 56.09375 9.574219 C 56.347656 13.777344 56.28125 14.085938 56.28125 14.085938 " fill-opacity="1" fill-rule="nonzero"/><path fill="#ffffff" d="M 52.535156 24.363281 C 52.535156 24.363281 51.167969 25.121094 50.40625 25.515625 C 49.648438 25.914062 49.921875 26.222656 49.078125 26.945312 C 48.230469 27.671875 47.296875 28.585938 47.296875 28.585938 C 47.296875 28.585938 47.660156 29.53125 48.660156 28.929688 C 49.664062 28.324219 50.078125 27.894531 50.078125 27.894531 C 50.078125 27.894531 49.351562 29.496094 48.851562 30.53125 C 48.351562 31.566406 46.949219 34.066406 47.035156 34.304688 C 47.175781 34.617188 47.9375 34.925781 48.734375 33.6875 C 49.523438 32.445312 49.785156 32.082031 49.785156 32.082031 C 49.785156 32.082031 50.304688 32.253906 50.839844 31.875 C 50.996094 32.03125 52.152344 32.1875 53.085938 31.703125 C 54.019531 31.222656 54.644531 30.601562 55.195312 29.824219 C 55.75 29.050781 56.421875 27.910156 56.421875 27.910156 L 52.535156 24.363281 " fill-opacity="1" fill-rule="nonzero"/><path fill="#231f20" d="M 47.242188 34.253906 C 47.289062 34.308594 47.390625 34.378906 47.542969 34.378906 C 47.730469 34.378906 48.109375 34.273438 48.558594 33.574219 C 49.34375 32.34375 49.605469 31.976562 49.613281 31.964844 L 49.703125 31.839844 L 49.847656 31.886719 C 49.847656 31.886719 49.941406 31.914062 50.082031 31.914062 C 50.238281 31.914062 50.476562 31.878906 50.71875 31.707031 L 50.863281 31.605469 L 50.980469 31.722656 C 51.027344 31.753906 51.261719 31.824219 51.65625 31.824219 C 51.933594 31.824219 52.484375 31.785156 52.992188 31.519531 C 53.8125 31.09375 54.421875 30.550781 55.027344 29.707031 C 55.453125 29.105469 55.960938 28.28125 56.160156 27.949219 L 52.503906 24.613281 C 52.144531 24.8125 51.121094 25.378906 50.503906 25.699219 C 50.152344 25.882812 50.0625 26.03125 49.929688 26.253906 C 49.796875 26.472656 49.636719 26.742188 49.210938 27.105469 C 48.546875 27.671875 47.820312 28.363281 47.550781 28.625 C 47.628906 28.746094 47.785156 28.921875 48.042969 28.921875 C 48.191406 28.921875 48.367188 28.867188 48.554688 28.753906 C 49.515625 28.171875 49.925781 27.753906 49.929688 27.75 L 50.757812 26.894531 L 50.265625 27.980469 C 50.261719 27.996094 49.535156 29.597656 49.039062 30.621094 C 48.886719 30.9375 48.648438 31.386719 48.402344 31.863281 C 47.960938 32.703125 47.304688 33.957031 47.242188 34.253906 Z M 47.542969 34.789062 C 47.183594 34.789062 46.933594 34.589844 46.847656 34.390625 L 46.839844 34.375 C 46.765625 34.164062 46.964844 33.710938 48.03125 31.671875 C 48.28125 31.199219 48.515625 30.75 48.664062 30.441406 C 48.933594 29.886719 49.269531 29.164062 49.523438 28.613281 C 49.320312 28.757812 49.070312 28.925781 48.769531 29.105469 C 48.515625 29.257812 48.269531 29.335938 48.042969 29.335938 C 47.371094 29.335938 47.113281 28.6875 47.101562 28.65625 L 47.054688 28.53125 L 47.148438 28.4375 C 47.160156 28.425781 48.097656 27.507812 48.941406 26.789062 C 49.3125 26.472656 49.453125 26.242188 49.574219 26.042969 C 49.71875 25.800781 49.855469 25.570312 50.3125 25.332031 C 51.0625 24.941406 52.421875 24.1875 52.433594 24.179688 L 52.566406 24.109375 L 56.6875 27.871094 L 56.601562 28.015625 C 56.59375 28.027344 55.917969 29.171875 55.363281 29.945312 C 54.730469 30.835938 54.054688 31.4375 53.183594 31.886719 C 52.59375 32.191406 51.972656 32.234375 51.65625 32.234375 C 51.554688 32.234375 51.117188 32.230469 50.847656 32.117188 C 50.554688 32.289062 50.273438 32.328125 50.082031 32.328125 C 50.003906 32.328125 49.933594 32.324219 49.875 32.3125 C 49.75 32.5 49.457031 32.9375 48.90625 33.796875 C 48.382812 34.617188 47.875 34.789062 47.542969 34.789062 " fill-opacity="1" fill-rule="nonzero"/><path fill="#ffffff" d="M 50.820312 30.136719 L 49.785156 32.082031 " fill-opacity="1" fill-rule="nonzero"/><path fill="#231f20" d="M 49.96875 32.179688 L 49.601562 31.984375 L 50.640625 30.039062 L 51.003906 30.234375 L 49.96875 32.179688 " fill-opacity="1" fill-rule="nonzero"/><path fill="#ffffff" d="M 51.644531 31.359375 C 51.644531 31.359375 51.0625 31.617188 50.839844 31.875 " fill-opacity="1" fill-rule="nonzero"/><path fill="#231f20" d="M 50.996094 32.011719 L 50.683594 31.742188 C 50.929688 31.457031 51.496094 31.199219 51.558594 31.171875 L 51.726562 31.546875 C 51.578125 31.613281 51.15625 31.828125 50.996094 32.011719 " fill-opacity="1" fill-rule="nonzero"/><path fill="#fcce4b" d="M 51.898438 24.46875 C 51.898438 24.46875 53.894531 26.191406 56.488281 28.203125 C 67.496094 22.335938 66.226562 11.984375 64.773438 10.296875 C 63.320312 8.605469 62.457031 8.085938 61.246094 8.398438 C 60.039062 8.710938 60.039062 11.398438 60.105469 13.15625 C 60.175781 14.914062 59.40625 18.042969 57.355469 20.144531 C 55.445312 22.097656 51.898438 24.46875 51.898438 24.46875 " fill-opacity="1" fill-rule="nonzero"/><path fill="#ffffff" d="M 55.5 4.574219 C 53.210938 4.34375 52.65625 6.332031 52.65625 6.332031 C 52.65625 6.332031 52.472656 7.597656 53.199219 8.140625 C 53.230469 8.78125 53.285156 9.425781 53.285156 9.425781 L 53.890625 9.089844 C 53.890625 9.089844 54.957031 9.910156 56.09375 8.917969 C 57.167969 10.441406 57.167969 10.441406 57.167969 10.441406 C 57.167969 10.441406 57.609375 10.648438 57.894531 10.160156 C 58.179688 9.667969 57.761719 7.933594 57.761719 7.933594 C 57.761719 7.933594 57.734375 4.804688 55.5 4.574219 " fill-opacity="1" fill-rule="nonzero"/><path fill="#231f20" d="M 57.296875 10.269531 C 57.320312 10.273438 57.351562 10.28125 57.386719 10.28125 C 57.519531 10.28125 57.625 10.207031 57.714844 10.054688 C 57.882812 9.765625 57.726562 8.667969 57.5625 7.984375 L 57.554688 7.960938 L 57.554688 7.9375 C 57.554688 7.90625 57.503906 4.988281 55.476562 4.78125 C 55.363281 4.769531 55.246094 4.761719 55.136719 4.761719 C 53.414062 4.761719 52.90625 6.222656 52.859375 6.375 C 52.84375 6.507812 52.742188 7.542969 53.324219 7.976562 L 53.402344 8.035156 L 53.40625 8.132812 C 53.425781 8.484375 53.449219 8.839844 53.46875 9.089844 L 53.910156 8.84375 L 54.019531 8.925781 C 54.019531 8.929688 54.386719 9.203125 54.890625 9.203125 C 55.265625 9.203125 55.625 9.054688 55.957031 8.761719 L 56.132812 8.609375 Z M 57.386719 10.695312 C 57.222656 10.695312 57.101562 10.640625 57.078125 10.628906 L 57.027344 10.605469 L 56.050781 9.21875 C 55.691406 9.480469 55.300781 9.617188 54.890625 9.617188 C 54.425781 9.617188 54.0625 9.4375 53.882812 9.332031 L 53.105469 9.761719 L 53.078125 9.441406 C 53.078125 9.4375 53.027344 8.847656 52.996094 8.246094 C 52.273438 7.609375 52.441406 6.359375 52.449219 6.304688 L 52.453125 6.277344 C 52.460938 6.257812 53.019531 4.347656 55.136719 4.347656 C 55.261719 4.347656 55.390625 4.355469 55.519531 4.371094 C 57.804688 4.601562 57.960938 7.601562 57.96875 7.90625 C 58.050781 8.253906 58.375 9.738281 58.074219 10.261719 C 57.855469 10.636719 57.550781 10.695312 57.386719 10.695312 " fill-opacity="1" fill-rule="nonzero"/><path fill="#231f20" d="M 53.699219 4.082031 C 53.617188 4.117188 51.945312 4.832031 51.964844 6.21875 C 51.984375 7.617188 54.195312 8.003906 55.644531 6.546875 C 55.636719 6.210938 55.910156 5.804688 56.285156 5.859375 C 56.828125 5.9375 57.117188 6.523438 56.328125 7.054688 C 56.574219 7.171875 57 7.59375 57.117188 7.753906 C 57.425781 8.195312 57.867188 9.074219 59.421875 8.582031 C 60.980469 8.089844 62.464844 7.25 64.457031 9.53125 C 66.449219 11.8125 66.863281 13.054688 68.382812 14.128906 C 69.289062 14.128906 70.203125 14.128906 70.808594 14.132812 C 72.140625 14.140625 72.378906 14.335938 72.378906 14.335938 C 72.378906 14.335938 71.378906 13.667969 70.953125 13.113281 C 70.546875 12.582031 70.261719 12.332031 69.535156 12.175781 C 68.8125 12.019531 67.90625 11.820312 67.933594 10.242188 C 67.96875 8.558594 67.902344 7.625 66.527344 7.445312 C 65.152344 7.261719 63.832031 7.804688 63.546875 7.238281 C 63.261719 6.667969 64.816406 5.011719 63.753906 3.851562 C 62.691406 2.6875 60.925781 2.609375 59.113281 2.996094 C 57.296875 3.382812 56.492188 4.160156 55.6875 3.980469 C 54.886719 3.796875 54.308594 3.824219 53.699219 4.082031 " fill-opacity="1" fill-rule="nonzero"/><path fill="#231f20" d="M 54.804688 9.601562 L 54.6875 9.203125 C 54.753906 9.183594 54.847656 9.109375 54.902344 8.984375 C 54.953125 8.878906 54.988281 8.707031 54.882812 8.488281 L 55.257812 8.3125 C 55.390625 8.59375 55.402344 8.894531 55.28125 9.15625 C 55.183594 9.375 55.003906 9.542969 54.804688 9.601562 " fill-opacity="1" fill-rule="nonzero"/><g clip-path="url(#8790c68fb0)"><path fill="#231f20" d="M 54.75 4.03125 C 54.75 4.03125 55.636719 3.101562 55.480469 2.195312 C 55.324219 1.289062 54.496094 1.625 53.691406 1.960938 C 52.886719 2.296875 53.097656 3.515625 54.289062 4.03125 C 54.75 4.03125 54.75 4.03125 54.75 4.03125 " fill-opacity="1" fill-rule="nonzero"/></g><path fill="#231f20" d="M 54.203125 7.953125 C 54.203125 8.046875 54.125 8.125 54.027344 8.125 C 53.933594 8.125 53.855469 8.046875 53.855469 7.953125 C 53.855469 7.855469 53.933594 7.78125 54.027344 7.78125 C 54.125 7.78125 54.203125 7.855469 54.203125 7.953125 " fill-opacity="1" fill-rule="nonzero"/><path fill="#231f20" d="M 67.628906 62.617188 C 68.15625 61.800781 68.785156 60.734375 68.785156 59.566406 C 68.785156 59.53125 68.785156 59.496094 68.785156 59.460938 C 68.769531 58.554688 68.027344 57.824219 67.113281 57.824219 L 63.574219 57.824219 C 62.664062 57.824219 61.917969 58.554688 61.90625 59.460938 C 61.90625 59.496094 61.90625 59.53125 61.90625 59.566406 C 61.90625 60.734375 62.535156 61.800781 63.058594 62.617188 L 67.628906 62.617188 " fill-opacity="1" fill-rule="nonzero"/><path fill="#ffffff" d="M 65.363281 47.070312 L 65.328125 47.070312 C 64.351562 47.070312 63.5625 47.859375 63.5625 48.828125 L 63.5625 58.328125 L 67.125 58.328125 L 67.125 48.828125 C 67.125 47.859375 66.335938 47.070312 65.363281 47.070312 " fill-opacity="1" fill-rule="nonzero"/><path fill="#231f20" d="M 63.769531 58.121094 L 66.917969 58.121094 L 66.917969 48.828125 C 66.917969 47.976562 66.21875 47.277344 65.363281 47.277344 L 65.328125 47.277344 C 64.46875 47.277344 63.769531 47.976562 63.769531 48.828125 Z M 67.332031 58.535156 L 63.355469 58.535156 L 63.355469 48.828125 C 63.355469 47.746094 64.238281 46.867188 65.328125 46.867188 L 65.363281 46.867188 C 66.449219 46.867188 67.332031 47.746094 67.332031 48.828125 L 67.332031 58.535156 " fill-opacity="1" fill-rule="nonzero"/><path fill="#231f20" d="M 66.121094 58.328125 L 65.707031 58.328125 L 65.707031 47.070312 L 66.121094 47.070312 L 66.121094 58.328125 " fill-opacity="1" fill-rule="nonzero"/><path fill="#231f20" d="M 65.1875 58.328125 L 64.773438 58.328125 L 64.773438 47.070312 L 65.1875 47.070312 L 65.1875 58.328125 " fill-opacity="1" fill-rule="nonzero"/><path fill="#231f20" d="M 66.609375 52.894531 L 66.464844 52.503906 L 67.570312 52.089844 L 67.71875 52.476562 L 66.609375 52.894531 " fill-opacity="1" fill-rule="nonzero"/><path fill="#231f20" d="M 63.472656 52.6875 L 62.121094 52.019531 L 62.308594 51.652344 L 63.65625 52.316406 L 63.472656 52.6875 " fill-opacity="1" fill-rule="nonzero"/><path fill="#231f20" d="M 67.234375 49.324219 L 66.949219 49.023438 L 68.332031 47.703125 L 68.617188 48.003906 L 67.234375 49.324219 " fill-opacity="1" fill-rule="nonzero"/><path fill="#231f20" d="M 64.746094 48.363281 L 63.292969 46.503906 L 63.621094 46.25 L 65.074219 48.109375 L 64.746094 48.363281 " fill-opacity="1" fill-rule="nonzero"/><path fill="#231f20" d="M 66.019531 55.910156 L 65.808594 55.554688 L 67.675781 54.449219 L 67.886719 54.804688 L 66.019531 55.910156 " fill-opacity="1" fill-rule="nonzero"/><path fill="#231f20" d="M 63.492188 56.785156 L 62.382812 56.371094 L 62.53125 55.984375 L 63.636719 56.398438 L 63.492188 56.785156 " fill-opacity="1" fill-rule="nonzero"/><path fill="#231f20" d="M 63.355469 49.921875 L 62.355469 49.351562 L 62.558594 48.992188 L 63.558594 49.5625 L 63.355469 49.921875 " fill-opacity="1" fill-rule="nonzero"/><g clip-path="url(#54c30126d5)"><path fill="#231f20" d="M 73.316406 63.121094 L 16.574219 63.121094 L 16.574219 62.394531 L 73.316406 62.394531 L 73.316406 63.121094 " fill-opacity="1" fill-rule="nonzero"/></g><path fill="#231f20" d="M 55.9375 46.03125 L 49.871094 61.09375 L 51.597656 61.09375 L 57.660156 46.03125 L 55.9375 46.03125 " fill-opacity="1" fill-rule="nonzero"/><path fill="#231f20" d="M 51.515625 61.519531 L 29.679688 61.519531 L 29.679688 62.757812 L 51.515625 62.757812 L 51.515625 61.519531 " fill-opacity="1" fill-rule="nonzero"/></svg>