<svg xmlns="http://www.w3.org/2000/svg" xmlns:xlink="http://www.w3.org/1999/xlink" width="100" zoomAndPan="magnify" viewBox="0 0 75 74.999997" height="100" preserveAspectRatio="xMidYMid meet" version="1.0"><defs><clipPath id="7c1127b09c"><path d="M 8 44 L 73 44 L 73 62.464844 L 8 62.464844 Z M 8 44 " clip-rule="nonzero"/></clipPath><clipPath id="db6502c95d"><path d="M 50.441406 58 L 54 58 L 54 59.925781 L 50.441406 59.925781 Z M 50.441406 58 " clip-rule="nonzero"/></clipPath><clipPath id="3db9e4b397"><path d="M 55.753906 54.765625 C 55.753906 54.765625 54.894531 56.140625 53.726562 55.339844 L 50.441406 59.90625 L 57.371094 56.421875 Z M 55.753906 54.765625 " clip-rule="nonzero"/></clipPath><clipPath id="83665be099"><path d="M 45.164062 59 L 48 59 L 48 61.234375 L 45.164062 61.234375 Z M 45.164062 59 " clip-rule="nonzero"/></clipPath><clipPath id="8c771b8345"><path d="M 52.289062 58.761719 C 52.289062 58.761719 50.902344 59.628906 50.210938 58.402344 L 45.261719 61.101562 L 53.03125 60.9375 Z M 52.289062 58.761719 " clip-rule="nonzero"/></clipPath><clipPath id="3e1da76db8"><path d="M 5.601562 19 L 27 19 L 27 45 L 5.601562 45 Z M 5.601562 19 " clip-rule="nonzero"/></clipPath><clipPath id="3b2a5bf1d1"><path d="M 33 57 L 44 57 L 44 62.464844 L 33 62.464844 Z M 33 57 " clip-rule="nonzero"/></clipPath><clipPath id="206b3262d5"><path d="M 16 1.714844 L 23 1.714844 L 23 6 L 16 6 Z M 16 1.714844 " clip-rule="nonzero"/></clipPath><clipPath id="a3bd43d8b1"><path d="M 16 1.714844 L 23 1.714844 L 23 6 L 16 6 Z M 16 1.714844 " clip-rule="nonzero"/></clipPath><clipPath id="7f4204301e"><path d="M 56.214844 17.515625 L 58 17.515625 L 58 18.5 L 56.214844 18.5 Z M 56.214844 17.515625 " clip-rule="nonzero"/></clipPath><clipPath id="005a192d82"><path d="M 56.316406 17.597656 L 57.996094 17.828125 C 57.996094 17.828125 57.867188 18.546875 57.089844 18.449219 C 56.316406 18.351562 56.316406 17.597656 56.316406 17.597656 Z M 56.316406 17.597656 " clip-rule="nonzero"/></clipPath></defs><g clip-path="url(#7c1127b09c)"><path fill="#000000" d="M 51.050781 44.515625 L 48.230469 62.460938 L 46.382812 62.460938 L 48.726562 44.253906 Z M 61.164062 44.253906 L 63.328125 62.460938 L 65.472656 62.460938 L 63.753906 44.253906 Z M 68.078125 44.515625 L 70.898438 62.460938 L 72.746094 62.460938 L 70.402344 44.253906 Z M 17.183594 44.253906 L 15.46875 62.460938 L 17.613281 62.460938 L 19.773438 44.253906 Z M 10.535156 44.253906 L 8.210938 62.460938 L 10.058594 62.460938 L 12.878906 44.515625 Z M 10.535156 44.253906 " fill-opacity="1" fill-rule="nonzero"/></g><path fill="#ffffff" d="M 25.480469 57.84375 L 25.910156 58.992188 L 30.976562 60.480469 L 31.800781 60.152344 L 27.644531 58.285156 Z M 25.480469 57.84375 " fill-opacity="1" fill-rule="nonzero"/><path fill="#ffffff" d="M 42.539062 57.417969 L 39.734375 58.058594 L 36.683594 59.613281 L 36.683594 60.578125 L 39.6875 59.515625 L 42.195312 58.285156 Z M 42.539062 57.417969 " fill-opacity="1" fill-rule="nonzero"/><path fill="#ffffff" d="M 47.390625 61.121094 L 48.710938 60.628906 L 52.273438 60.675781 L 53.015625 60.9375 L 51.8125 61.363281 L 47.886719 61.363281 Z M 47.390625 61.121094 " fill-opacity="1" fill-rule="nonzero"/><path fill="#ffffff" d="M 57.371094 56.421875 L 53.476562 57.960938 L 49.417969 59.808594 L 49.699219 60.578125 L 54.136719 58.238281 L 57.320312 56.601562 Z M 57.371094 56.421875 " fill-opacity="1" fill-rule="nonzero"/><path fill="#ffffff" d="M 60.339844 22.25 L 72.167969 22.25 C 74 22.25 75.351562 23.753906 74.988281 25.359375 L 71.210938 41.585938 L 71.210938 42.960938 C 71.210938 43.8125 70.453125 44.5 69.511719 44.5 L 54.285156 44.5 L 54.285156 38.65625 L 64.8125 37.917969 Z M 60.339844 22.25 " fill-opacity="1" fill-rule="nonzero"/><path fill="#ffffff" d="M 54.5 52.179688 L 56.050781 55.46875 L 54.386719 56.371094 L 52.519531 53.144531 Z M 54.5 52.179688 " fill-opacity="1" fill-rule="nonzero"/><path fill="#000000" d="M 55.753906 54.765625 C 55.753906 54.765625 54.894531 56.140625 53.726562 55.339844 L 50.441406 59.90625 L 57.371094 56.421875 Z M 55.753906 54.765625 " fill-opacity="1" fill-rule="nonzero"/><g clip-path="url(#db6502c95d)"><g clip-path="url(#3db9e4b397)"><path fill="#ffffff" d="M 50.539062 58.105469 C 50.539062 58.105469 52.390625 57.515625 53.3125 59.695312 L 49.929688 60.351562 Z M 50.539062 58.105469 " fill-opacity="1" fill-rule="nonzero"/></g></g><path fill="#ffffff" d="M 50.4375 59.902344 L 57.371094 56.417969 L 57.675781 57.015625 L 50.746094 60.5 Z M 50.4375 59.902344 " fill-opacity="1" fill-rule="nonzero"/><path fill="#ffffff" d="M 53.773438 56.765625 C 53.757812 56.765625 53.726562 56.765625 53.707031 56.746094 C 53.261719 56.535156 52.898438 56.484375 52.898438 56.484375 C 52.835938 56.484375 52.785156 56.421875 52.785156 56.355469 C 52.800781 56.289062 52.867188 56.238281 52.933594 56.238281 C 52.949219 56.238281 53.34375 56.289062 53.824219 56.519531 C 53.890625 56.550781 53.90625 56.617188 53.875 56.683594 C 53.855469 56.730469 53.824219 56.746094 53.773438 56.765625 Z M 53.773438 56.765625 " fill-opacity="1" fill-rule="nonzero"/><path fill="#ffffff" d="M 53.34375 57.320312 C 53.328125 57.320312 53.296875 57.320312 53.28125 57.304688 C 52.835938 57.089844 52.472656 57.042969 52.472656 57.042969 C 52.40625 57.042969 52.355469 56.976562 52.355469 56.910156 C 52.371094 56.847656 52.4375 56.796875 52.503906 56.796875 C 52.519531 56.796875 52.917969 56.847656 53.394531 57.074219 C 53.460938 57.109375 53.476562 57.171875 53.445312 57.238281 C 53.445312 57.289062 53.394531 57.320312 53.34375 57.320312 Z M 53.34375 57.320312 " fill-opacity="1" fill-rule="nonzero"/><path fill="#ffffff" d="M 52.933594 57.878906 C 52.917969 57.878906 52.882812 57.878906 52.867188 57.859375 C 52.421875 57.648438 52.058594 57.597656 52.058594 57.597656 C 51.992188 57.597656 51.941406 57.535156 51.941406 57.46875 C 51.960938 57.402344 52.027344 57.351562 52.089844 57.351562 C 52.109375 57.351562 52.503906 57.402344 52.984375 57.632812 C 53.046875 57.664062 53.066406 57.730469 53.03125 57.796875 C 53.015625 57.859375 52.964844 57.878906 52.933594 57.878906 Z M 52.933594 57.878906 " fill-opacity="1" fill-rule="nonzero"/><path fill="#ffffff" d="M 52.273438 55.878906 L 52.238281 59.515625 L 50.34375 59.613281 L 50.078125 55.914062 Z M 52.273438 55.878906 " fill-opacity="1" fill-rule="nonzero"/><path fill="#000000" d="M 52.289062 58.761719 C 52.289062 58.761719 50.902344 59.628906 50.210938 58.402344 L 45.261719 61.101562 L 53.03125 60.9375 Z M 52.289062 58.761719 " fill-opacity="1" fill-rule="nonzero"/><g clip-path="url(#83665be099)"><g clip-path="url(#8c771b8345)"><path fill="#ffffff" d="M 46.121094 59.53125 C 46.121094 59.53125 48.035156 59.792969 47.933594 62.152344 L 44.601562 61.300781 Z M 46.121094 59.53125 " fill-opacity="1" fill-rule="nonzero"/></g></g><path fill="#ffffff" d="M 45.257812 61.121094 L 53.027344 60.957031 L 53.039062 61.628906 L 45.273438 61.792969 Z M 45.257812 61.121094 " fill-opacity="1" fill-rule="nonzero"/><path fill="#ffffff" d="M 49.632812 59.695312 C 49.617188 59.695312 49.601562 59.679688 49.585938 59.664062 C 49.269531 59.269531 48.972656 59.089844 48.972656 59.089844 C 48.90625 59.054688 48.890625 58.972656 48.941406 58.925781 C 48.972656 58.875 49.054688 58.859375 49.121094 58.894531 C 49.140625 58.910156 49.46875 59.105469 49.796875 59.53125 C 49.847656 59.582031 49.832031 59.664062 49.765625 59.710938 C 49.714844 59.710938 49.667969 59.710938 49.632812 59.695312 Z M 49.632812 59.695312 " fill-opacity="1" fill-rule="nonzero"/><path fill="#ffffff" d="M 49.007812 60.023438 C 48.992188 60.023438 48.972656 60.007812 48.957031 59.988281 C 48.644531 59.597656 48.347656 59.417969 48.347656 59.417969 C 48.28125 59.382812 48.265625 59.300781 48.3125 59.253906 C 48.347656 59.203125 48.429688 59.1875 48.496094 59.21875 C 48.511719 59.238281 48.839844 59.433594 49.171875 59.859375 C 49.222656 59.90625 49.203125 59.988281 49.140625 60.039062 C 49.089844 60.039062 49.039062 60.039062 49.007812 60.023438 Z M 49.007812 60.023438 " fill-opacity="1" fill-rule="nonzero"/><path fill="#ffffff" d="M 48.378906 60.351562 C 48.363281 60.351562 48.347656 60.332031 48.332031 60.316406 C 48.015625 59.925781 47.71875 59.742188 47.71875 59.742188 C 47.652344 59.710938 47.636719 59.628906 47.6875 59.582031 C 47.71875 59.53125 47.800781 59.515625 47.867188 59.546875 C 47.886719 59.5625 48.214844 59.761719 48.5625 60.1875 C 48.609375 60.234375 48.59375 60.316406 48.527344 60.367188 C 48.460938 60.367188 48.414062 60.367188 48.378906 60.351562 Z M 48.378906 60.351562 " fill-opacity="1" fill-rule="nonzero"/><path fill="#ffad65" d="M 57.1875 34.347656 C 57.1875 34.480469 57.1875 34.59375 57.1875 34.726562 C 57.140625 36.65625 56.910156 38.589844 56.761719 40.523438 C 56.578125 41.636719 56.117188 41.996094 55.753906 42.078125 C 55.738281 42.109375 55.703125 42.144531 55.6875 42.175781 L 54.878906 43.304688 C 54.8125 43.417969 54.664062 43.46875 54.535156 43.417969 C 54.433594 43.386719 54.320312 43.289062 54.433594 43.027344 L 54.320312 43.289062 C 54.253906 43.417969 54.089844 43.46875 53.9375 43.402344 C 53.808594 43.355469 53.757812 43.191406 53.808594 43.027344 L 53.707031 43.207031 C 53.640625 43.339844 53.445312 43.386719 53.296875 43.304688 C 53.164062 43.238281 53.113281 43.074219 53.179688 42.960938 L 53.296875 42.699219 L 53.3125 42.667969 L 53.097656 42.945312 C 53.015625 43.09375 52.816406 43.125 52.652344 43.042969 C 52.519531 42.960938 52.472656 42.796875 52.539062 42.667969 L 53.261719 41.027344 L 52.882812 40.847656 C 52.75 40.785156 52.667969 40.652344 52.6875 40.503906 C 52.703125 40.359375 52.835938 40.257812 53 40.257812 L 55.144531 40.226562 C 54.597656 36.199219 54.121094 32.1875 53.742188 28.144531 C 53.726562 27.226562 54.566406 26.472656 55.554688 26.472656 C 55.589844 26.472656 55.621094 26.472656 55.65625 26.472656 C 56.578125 26.523438 56.578125 27.472656 56.777344 28.308594 C 57.1875 30.238281 57.222656 32.253906 57.1875 34.347656 Z M 57.1875 34.347656 " fill-opacity="1" fill-rule="nonzero"/><path fill="#000000" d="M 53.261719 42.78125 C 53.261719 42.78125 53.246094 42.78125 53.261719 42.78125 C 53.230469 42.765625 53.230469 42.75 53.230469 42.730469 L 53.675781 41.78125 C 53.675781 41.765625 53.707031 41.765625 53.726562 41.765625 C 53.742188 41.765625 53.742188 41.796875 53.742188 41.816406 L 53.296875 42.765625 C 53.28125 42.78125 53.28125 42.78125 53.261719 42.78125 Z M 53.261719 42.78125 " fill-opacity="1" fill-rule="nonzero"/><path fill="#000000" d="M 53.824219 43.011719 C 53.789062 42.992188 53.789062 42.976562 53.789062 42.960938 L 54.269531 42.09375 C 54.285156 42.078125 54.300781 42.078125 54.320312 42.078125 C 54.335938 42.09375 54.335938 42.109375 54.335938 42.125 L 53.855469 42.992188 C 53.855469 43.011719 53.839844 43.011719 53.824219 43.011719 Z M 53.824219 43.011719 " fill-opacity="1" fill-rule="nonzero"/><path fill="#000000" d="M 54.367188 43.125 C 54.335938 43.109375 54.335938 43.09375 54.335938 43.074219 L 54.746094 42.355469 C 54.765625 42.339844 54.78125 42.339844 54.796875 42.339844 C 54.8125 42.355469 54.8125 42.371094 54.8125 42.386719 L 54.402344 43.109375 C 54.402344 43.125 54.386719 43.125 54.367188 43.125 Z M 54.367188 43.125 " fill-opacity="1" fill-rule="nonzero"/><path fill="#f89a00" d="M 65.257812 36.214844 L 65.257812 40.210938 C 65.257812 42.027344 63.738281 43.46875 61.925781 43.402344 L 55.109375 43.15625 L 54.269531 49.609375 L 55.671875 53.832031 L 53.625 54.503906 L 53.246094 57.417969 L 49.4375 57.125 L 49.371094 48.886719 L 47.011719 44.125 C 46.285156 42.667969 46.945312 40.914062 48.496094 40.210938 L 50.113281 39.488281 C 50.789062 38.65625 51.761719 38.066406 52.882812 37.917969 Z M 65.257812 36.214844 " fill-opacity="1" fill-rule="nonzero"/><path fill="#3f2952" d="M 56.25 23.527344 C 56.25 23.527344 53.808594 24.96875 53.34375 28.878906 L 56.828125 30.78125 Z M 56.25 23.527344 " fill-opacity="1" fill-rule="nonzero"/><path fill="#3f2952" d="M 60.917969 22.296875 C 62.121094 22.394531 63.292969 22.660156 64.414062 23.101562 C 64.84375 23.265625 65.339844 23.476562 65.601562 23.886719 C 65.949219 24.425781 65.683594 25.03125 65.652344 25.621094 C 65.652344 25.621094 65.324219 37.65625 65.324219 37.65625 L 55.375 37.65625 L 55.011719 26.015625 C 54.929688 24.769531 55.671875 23.640625 56.808594 23.230469 C 58.097656 22.789062 59.664062 22.28125 60.339844 22.234375 Z M 60.917969 22.296875 " fill-opacity="1" fill-rule="nonzero"/><path fill="#000000" d="M 55.210938 30.058594 C 55.175781 30.058594 55.160156 30.042969 55.160156 30.011719 L 55.078125 26.472656 C 55.078125 26.441406 55.09375 26.425781 55.128906 26.40625 C 55.160156 26.40625 55.175781 26.425781 55.191406 26.457031 L 55.277344 29.992188 C 55.277344 30.027344 55.242188 30.058594 55.210938 30.058594 Z M 55.210938 30.058594 " fill-opacity="1" fill-rule="nonzero"/><path fill="#ffad65" d="M 57.386719 23.050781 C 57.386719 23.050781 59.183594 22.347656 60.339844 22.265625 C 60.339844 22.265625 61.90625 22.332031 62.996094 22.660156 C 62.996094 22.660156 62.402344 23.917969 59.632812 24.132812 C 56.875 24.328125 57.386719 23.050781 57.386719 23.050781 Z M 57.386719 23.050781 " fill-opacity="1" fill-rule="nonzero"/><g clip-path="url(#3e1da76db8)"><path fill="#ffffff" d="M 11.542969 19.941406 L 8.785156 19.941406 C 6.957031 19.941406 5.601562 21.609375 5.964844 23.378906 L 9.742188 41.292969 L 9.742188 42.8125 C 9.742188 43.746094 10.503906 44.5 11.441406 44.5 L 26.667969 44.5 L 26.667969 38.050781 L 16.144531 37.246094 Z M 11.542969 19.941406 " fill-opacity="1" fill-rule="nonzero"/></g><path fill="#000000" d="M 32.789062 58.402344 L 35.925781 56.976562 L 42.539062 57.417969 L 33.78125 61.480469 Z M 32.789062 58.402344 " fill-opacity="1" fill-rule="nonzero"/><g clip-path="url(#3b2a5bf1d1)"><path fill="#ffffff" d="M 36.238281 60.957031 C 35.941406 61.085938 35.859375 61.429688 36.023438 61.726562 L 34.355469 62.460938 L 33.730469 61.347656 L 42.539062 57.417969 L 43.167969 58.53125 L 37.078125 61.234375 C 36.914062 60.9375 36.535156 60.824219 36.238281 60.957031 Z M 36.238281 60.957031 " fill-opacity="1" fill-rule="nonzero"/></g><path fill="#ffffff" d="M 37.753906 57.960938 C 37.722656 57.960938 37.691406 57.941406 37.671875 57.925781 C 37.640625 57.878906 37.640625 57.8125 37.691406 57.777344 L 38.546875 57.058594 C 38.597656 57.027344 38.664062 57.027344 38.695312 57.074219 C 38.730469 57.125 38.730469 57.191406 38.679688 57.222656 L 37.820312 57.941406 C 37.804688 57.941406 37.789062 57.960938 37.753906 57.960938 Z M 37.753906 57.960938 " fill-opacity="1" fill-rule="nonzero"/><path fill="#ffffff" d="M 36.484375 57.925781 C 36.453125 57.925781 36.417969 57.910156 36.402344 57.894531 C 36.371094 57.84375 36.371094 57.777344 36.417969 57.746094 L 37.277344 57.027344 C 37.328125 56.992188 37.394531 56.992188 37.425781 57.042969 C 37.457031 57.089844 37.457031 57.15625 37.410156 57.191406 L 36.550781 57.910156 C 36.535156 57.910156 36.519531 57.925781 36.484375 57.925781 Z M 36.484375 57.925781 " fill-opacity="1" fill-rule="nonzero"/><path fill="#ffad65" d="M 34.242188 52.621094 L 31.105469 54.0625 L 32.839844 58.546875 L 35.972656 57.109375 Z M 34.242188 52.621094 " fill-opacity="1" fill-rule="nonzero"/><path fill="#000000" d="M 23.765625 54.863281 L 27.03125 55.78125 L 31.800781 60.152344 L 22.511719 57.617188 Z M 23.765625 54.863281 " fill-opacity="1" fill-rule="nonzero"/><path fill="#ffffff" d="M 24.691406 58.792969 C 24.375 58.710938 24.078125 58.894531 24.011719 59.203125 L 22.265625 58.710938 L 22.546875 57.535156 L 31.785156 60.167969 L 31.519531 61.347656 L 25.136719 59.53125 C 25.203125 59.203125 25.003906 58.875 24.691406 58.792969 Z M 24.691406 58.792969 " fill-opacity="1" fill-rule="nonzero"/><path fill="#ffffff" d="M 29.011719 57.617188 L 27.890625 57.617188 C 27.824219 57.617188 27.792969 57.566406 27.792969 57.515625 C 27.792969 57.453125 27.824219 57.417969 27.890625 57.417969 L 29.011719 57.417969 C 29.078125 57.417969 29.109375 57.46875 29.109375 57.515625 C 29.128906 57.582031 29.078125 57.617188 29.011719 57.617188 Z M 29.011719 57.617188 " fill-opacity="1" fill-rule="nonzero"/><path fill="#ffffff" d="M 28.070312 56.8125 L 26.949219 56.8125 C 26.902344 56.8125 26.851562 56.765625 26.851562 56.714844 C 26.851562 56.664062 26.902344 56.617188 26.949219 56.617188 L 28.070312 56.617188 C 28.136719 56.617188 28.171875 56.664062 28.171875 56.714844 C 28.1875 56.765625 28.136719 56.8125 28.070312 56.8125 Z M 28.070312 56.8125 " fill-opacity="1" fill-rule="nonzero"/><path fill="#ffad65" d="M 28.699219 51.605469 L 25.382812 50.691406 L 23.714844 54.980469 L 27.03125 55.878906 Z M 28.699219 51.605469 " fill-opacity="1" fill-rule="nonzero"/><path fill="#3f2952" d="M 29.753906 35.984375 L 32.527344 37.246094 C 34.375 38.082031 35.183594 40.179688 34.308594 41.929688 L 27.921875 54.863281 L 23.929688 53.554688 Z M 29.753906 35.984375 " fill-opacity="1" fill-rule="nonzero"/><path fill="#3f2952" d="M 12.433594 32.464844 L 12.433594 37.246094 C 12.433594 39.425781 14.246094 41.160156 16.441406 41.078125 L 24.609375 40.785156 L 31.636719 56.503906 L 35.660156 54.4375 L 31.570312 38.359375 C 31.074219 36.3125 29.375 34.773438 27.28125 34.496094 Z M 12.433594 32.464844 " fill-opacity="1" fill-rule="nonzero"/><path fill="#000000" d="M 29.472656 51.769531 C 29.457031 51.769531 29.425781 51.753906 29.425781 51.738281 L 26.621094 45.464844 C 26.605469 45.433594 26.621094 45.402344 26.652344 45.382812 C 26.6875 45.367188 26.71875 45.382812 26.734375 45.417969 L 29.539062 51.6875 C 29.554688 51.722656 29.539062 51.753906 29.507812 51.769531 C 29.492188 51.769531 29.492188 51.769531 29.472656 51.769531 Z M 29.472656 51.769531 " fill-opacity="1" fill-rule="nonzero"/><path fill="#000000" d="M 33.019531 44.566406 C 32.988281 44.566406 32.972656 44.550781 32.953125 44.515625 L 30.511719 36.378906 C 30.496094 36.347656 30.53125 36.3125 30.546875 36.296875 C 30.578125 36.28125 30.613281 36.3125 30.628906 36.332031 L 33.070312 44.46875 C 33.085938 44.5 33.054688 44.53125 33.039062 44.550781 C 33.039062 44.566406 33.039062 44.566406 33.019531 44.566406 Z M 33.019531 44.566406 " fill-opacity="1" fill-rule="nonzero"/><path fill="#ffffff" d="M 29.804688 36.460938 L 37.046875 33.21875 L 24.507812 31.550781 L 17.976562 34.660156 Z M 29.804688 36.460938 " fill-opacity="1" fill-rule="nonzero"/><path fill="#000000" d="M 29.804688 36.675781 C 29.789062 36.675781 29.789062 36.675781 29.769531 36.675781 L 17.941406 34.871094 C 17.84375 34.855469 17.777344 34.792969 17.761719 34.691406 C 17.746094 34.59375 17.792969 34.511719 17.875 34.464844 L 24.410156 31.351562 C 24.441406 31.335938 24.492188 31.320312 24.542969 31.335938 L 37.078125 33.007812 C 37.179688 33.023438 37.261719 33.089844 37.261719 33.1875 C 37.277344 33.285156 37.226562 33.382812 37.128906 33.414062 L 29.886719 36.65625 C 29.871094 36.675781 29.835938 36.675781 29.804688 36.675781 Z M 18.71875 34.5625 L 29.789062 36.25 L 36.269531 33.351562 L 24.558594 31.792969 Z M 18.71875 34.5625 " fill-opacity="1" fill-rule="nonzero"/><path fill="#ffad65" d="M 29.820312 31.761719 C 29.855469 31.941406 29.738281 32.121094 29.554688 32.15625 L 29.195312 32.203125 C 29.554688 32.15625 29.65625 32.320312 29.671875 32.449219 C 29.707031 32.628906 29.589844 32.792969 29.425781 32.828125 L 27.726562 33.414062 C 27.675781 33.433594 27.625 33.449219 27.578125 33.464844 C 27.347656 33.875 26.753906 34.300781 25.265625 34.136719 L 17.746094 32.84375 L 17.199219 29.011719 L 25.382812 32.15625 L 26.058594 29.648438 C 26.109375 29.46875 26.289062 29.355469 26.472656 29.371094 C 26.652344 29.386719 26.816406 29.519531 26.851562 29.699219 L 26.964844 30.207031 L 29.292969 29.894531 C 29.472656 29.863281 29.671875 29.976562 29.738281 30.15625 C 29.820312 30.371094 29.6875 30.582031 29.492188 30.648438 L 29.078125 30.8125 L 29.492188 30.746094 C 29.671875 30.730469 29.855469 30.828125 29.902344 31.007812 C 29.96875 31.207031 29.835938 31.417969 29.640625 31.449219 L 29.375 31.515625 C 29.589844 31.484375 29.789062 31.582031 29.820312 31.761719 Z M 29.820312 31.761719 " fill-opacity="1" fill-rule="nonzero"/><path fill="#000000" d="M 27.824219 31.023438 C 27.808594 31.023438 27.792969 31.007812 27.792969 30.992188 C 27.792969 30.976562 27.808594 30.941406 27.824219 30.941406 L 29.175781 30.714844 C 29.195312 30.714844 29.226562 30.730469 29.226562 30.746094 C 29.226562 30.761719 29.210938 30.796875 29.195312 30.796875 L 27.824219 31.023438 C 27.839844 31.023438 27.839844 31.023438 27.824219 31.023438 Z M 27.824219 31.023438 " fill-opacity="1" fill-rule="nonzero"/><path fill="#000000" d="M 28.054688 31.8125 C 28.039062 31.8125 28.023438 31.792969 28.023438 31.777344 C 28.023438 31.761719 28.039062 31.730469 28.054688 31.730469 L 29.308594 31.449219 C 29.324219 31.449219 29.359375 31.46875 29.359375 31.484375 C 29.359375 31.5 29.34375 31.53125 29.324219 31.53125 Z M 28.054688 31.8125 " fill-opacity="1" fill-rule="nonzero"/><path fill="#000000" d="M 28.253906 32.464844 C 28.238281 32.464844 28.21875 32.449219 28.21875 32.433594 C 28.21875 32.417969 28.238281 32.382812 28.253906 32.382812 L 29.308594 32.136719 C 29.324219 32.136719 29.359375 32.15625 29.359375 32.171875 C 29.359375 32.1875 29.34375 32.21875 29.324219 32.21875 Z M 28.253906 32.464844 " fill-opacity="1" fill-rule="nonzero"/><path fill="#ffad65" d="M 28.253906 24.015625 L 38.464844 19.269531 L 39.40625 20.53125 C 39.40625 20.53125 33.761719 24.507812 29.855469 26.933594 C 29.226562 27.324219 28.054688 26.539062 27.726562 25.882812 C 27.410156 25.292969 27.660156 24.34375 28.253906 24.015625 Z M 28.253906 24.015625 " fill-opacity="1" fill-rule="nonzero"/><path fill="#ffad65" d="M 38.019531 19.875 C 38.019531 19.875 38.382812 18.566406 39.734375 18.023438 L 40.558594 16.863281 C 40.691406 16.683594 40.921875 16.632812 41.121094 16.730469 C 41.335938 16.847656 41.417969 17.109375 41.320312 17.320312 L 40.957031 18.089844 L 41.203125 17.925781 C 41.597656 17.664062 41.898438 17.289062 42.046875 16.828125 L 42.472656 15.535156 C 42.523438 15.386719 42.640625 15.273438 42.789062 15.257812 C 43.085938 15.207031 43.332031 15.46875 43.265625 15.765625 L 42.917969 17.535156 C 42.789062 18.222656 42.375 18.8125 41.78125 19.15625 L 38.597656 21.003906 Z M 38.019531 19.875 " fill-opacity="1" fill-rule="nonzero"/><path fill="#f89a00" d="M 16.390625 13.34375 L 12.945312 14.113281 C 11.261719 14.488281 10.039062 15.929688 9.957031 17.632812 L 9.761719 21.644531 C 9.660156 23.574219 9.957031 25.523438 10.601562 27.339844 L 12.433594 32.710938 L 23.699219 33.988281 L 24.144531 31.269531 L 24.558594 22.558594 L 27.347656 26.0625 C 28.171875 27.09375 29.640625 27.324219 30.746094 26.605469 L 37.359375 22.28125 L 35.972656 20.167969 L 29.789062 22.921875 L 25.695312 16.175781 C 25.035156 15.09375 23.949219 14.355469 22.695312 14.144531 L 19.328125 13.585938 Z M 16.390625 13.34375 " fill-opacity="1" fill-rule="nonzero"/><path fill="#000000" d="M 24.144531 31.335938 C 24.144531 31.335938 24.128906 31.335938 24.128906 31.335938 L 17.019531 29.160156 C 16.390625 28.960938 15.914062 28.488281 15.730469 27.863281 L 14.347656 23.164062 C 14.328125 23.132812 14.363281 23.101562 14.394531 23.085938 C 14.429688 23.066406 14.460938 23.101562 14.476562 23.132812 L 15.863281 27.832031 C 16.027344 28.40625 16.472656 28.863281 17.066406 29.042969 L 24.179688 31.222656 C 24.210938 31.238281 24.226562 31.269531 24.210938 31.304688 C 24.195312 31.320312 24.179688 31.335938 24.144531 31.335938 Z M 24.144531 31.335938 " fill-opacity="1" fill-rule="nonzero"/><path fill="#ffad65" d="M 15.730469 6.90625 C 15.730469 6.90625 15.15625 6.382812 14.660156 6.90625 C 13.902344 7.710938 14.957031 9.347656 16.0625 8.644531 Z M 15.730469 6.90625 " fill-opacity="1" fill-rule="nonzero"/><path fill="#000000" d="M 15.765625 8.234375 C 15.75 8.234375 15.714844 8.21875 15.714844 8.199219 C 15.453125 7.5625 14.941406 7.53125 14.90625 7.53125 C 14.875 7.53125 14.839844 7.496094 14.859375 7.464844 C 14.875 7.429688 14.890625 7.398438 14.921875 7.414062 C 14.957031 7.414062 15.535156 7.464844 15.832031 8.167969 C 15.847656 8.199219 15.832031 8.234375 15.796875 8.25 C 15.78125 8.21875 15.78125 8.234375 15.765625 8.234375 Z M 15.765625 8.234375 " fill-opacity="1" fill-rule="nonzero"/><path fill="#ffad65" d="M 21.753906 7.464844 C 21.753906 7.464844 22.398438 7.054688 22.792969 7.644531 C 23.386719 8.542969 22.082031 9.953125 21.144531 9.085938 Z M 21.753906 7.464844 " fill-opacity="1" fill-rule="nonzero"/><path fill="#000000" d="M 21.523438 8.707031 C 21.507812 8.707031 21.507812 8.707031 21.488281 8.691406 C 21.457031 8.675781 21.457031 8.644531 21.472656 8.609375 C 21.886719 7.972656 22.429688 8.019531 22.445312 8.019531 C 22.480469 8.019531 22.496094 8.054688 22.496094 8.085938 C 22.496094 8.117188 22.460938 8.152344 22.429688 8.136719 C 22.414062 8.136719 21.933594 8.085938 21.570312 8.675781 C 21.554688 8.707031 21.539062 8.707031 21.523438 8.707031 Z M 21.523438 8.707031 " fill-opacity="1" fill-rule="nonzero"/><path fill="#ffad65" d="M 22.628906 5.679688 C 22.628906 6.164062 22.535156 6.632812 22.347656 7.082031 C 22.160156 7.53125 21.890625 7.929688 21.546875 8.273438 C 21.199219 8.617188 20.800781 8.882812 20.347656 9.066406 C 19.894531 9.253906 19.421875 9.347656 18.933594 9.347656 C 18.441406 9.347656 17.972656 9.253906 17.519531 9.066406 C 17.066406 8.882812 16.664062 8.617188 16.320312 8.273438 C 15.972656 7.929688 15.707031 7.53125 15.519531 7.082031 C 15.332031 6.632812 15.238281 6.164062 15.238281 5.679688 C 15.238281 5.191406 15.332031 4.726562 15.519531 4.277344 C 15.707031 3.828125 15.972656 3.429688 16.320312 3.085938 C 16.664062 2.742188 17.066406 2.476562 17.519531 2.289062 C 17.972656 2.105469 18.441406 2.011719 18.933594 2.011719 C 19.421875 2.011719 19.894531 2.105469 20.347656 2.289062 C 20.800781 2.476562 21.199219 2.742188 21.546875 3.085938 C 21.890625 3.429688 22.160156 3.828125 22.347656 4.277344 C 22.535156 4.726562 22.628906 5.191406 22.628906 5.679688 Z M 22.628906 5.679688 " fill-opacity="1" fill-rule="nonzero"/><path fill="#000000" d="M 22.628906 5.679688 C 22.628906 6.164062 22.535156 6.632812 22.347656 7.082031 C 22.160156 7.53125 21.890625 7.929688 21.546875 8.273438 C 21.199219 8.617188 20.800781 8.882812 20.347656 9.066406 C 19.894531 9.253906 19.421875 9.347656 18.933594 9.347656 C 18.441406 9.347656 17.972656 9.253906 17.519531 9.066406 C 17.066406 8.882812 16.664062 8.617188 16.320312 8.273438 C 15.972656 7.929688 15.707031 7.53125 15.519531 7.082031 C 15.332031 6.632812 15.238281 6.164062 15.238281 5.679688 C 15.238281 5.191406 15.332031 4.726562 15.519531 4.277344 C 15.707031 3.828125 15.972656 3.429688 16.320312 3.085938 C 16.664062 2.742188 17.066406 2.476562 17.519531 2.289062 C 17.972656 2.105469 18.441406 2.011719 18.933594 2.011719 C 19.421875 2.011719 19.894531 2.105469 20.347656 2.289062 C 20.800781 2.476562 21.199219 2.742188 21.546875 3.085938 C 21.890625 3.429688 22.160156 3.828125 22.347656 4.277344 C 22.535156 4.726562 22.628906 5.191406 22.628906 5.679688 Z M 22.628906 5.679688 " fill-opacity="1" fill-rule="nonzero"/><path fill="#ffad65" d="M 16.96875 9.804688 L 16.457031 13.34375 L 18.125 14.699219 L 19.394531 13.605469 L 19.378906 9.921875 Z M 16.96875 9.804688 " fill-opacity="1" fill-rule="nonzero"/><path fill="#000000" d="M 16.902344 10.296875 C 16.984375 10.34375 19.394531 12.195312 19.394531 12.195312 L 19.394531 10.328125 Z M 16.902344 10.296875 " fill-opacity="1" fill-rule="nonzero"/><path fill="#ffad65" d="M 15.964844 5.285156 C 15.964844 5.285156 15.039062 10.609375 18.386719 10.96875 C 21.984375 11.34375 22 5.808594 22 5.808594 C 22 5.808594 22.214844 2.992188 19.195312 2.730469 C 16.425781 2.503906 15.964844 5.285156 15.964844 5.285156 Z M 15.964844 5.285156 " fill-opacity="1" fill-rule="nonzero"/><path fill="#000000" d="M 16.046875 3.664062 C 16.046875 3.664062 18.585938 3.191406 21.785156 4.15625 C 21.785156 4.15625 21.621094 2.519531 19.046875 2.304688 C 16.492188 2.078125 16.046875 3.664062 16.046875 3.664062 Z M 16.046875 3.664062 " fill-opacity="1" fill-rule="nonzero"/><path fill="#000000" d="M 18.667969 6.890625 C 18.652344 7.039062 18.519531 7.121094 18.371094 7.105469 C 18.222656 7.085938 18.140625 6.957031 18.15625 6.808594 C 18.171875 6.660156 18.304688 6.578125 18.453125 6.597656 C 18.601562 6.613281 18.703125 6.742188 18.667969 6.890625 Z M 18.667969 6.890625 " fill-opacity="1" fill-rule="nonzero"/><path fill="#000000" d="M 21.257812 7.347656 C 21.242188 7.496094 21.109375 7.578125 20.960938 7.5625 C 20.8125 7.546875 20.730469 7.414062 20.746094 7.265625 C 20.761719 7.121094 20.894531 7.039062 21.042969 7.054688 C 21.191406 7.085938 21.292969 7.21875 21.257812 7.347656 Z M 21.257812 7.347656 " fill-opacity="1" fill-rule="nonzero"/><path fill="#000000" d="M 19.363281 7.9375 C 19.328125 7.9375 19.3125 7.90625 19.3125 7.875 C 19.3125 7.839844 19.34375 7.808594 19.378906 7.808594 L 19.574219 7.808594 C 19.609375 7.808594 19.640625 7.773438 19.660156 7.742188 L 19.527344 7.300781 C 19.511719 7.265625 19.542969 7.234375 19.574219 7.21875 C 19.609375 7.203125 19.640625 7.234375 19.660156 7.265625 L 19.789062 7.726562 C 19.789062 7.726562 19.789062 7.742188 19.789062 7.742188 C 19.789062 7.855469 19.707031 7.9375 19.59375 7.9375 Z M 19.363281 7.9375 " fill-opacity="1" fill-rule="nonzero"/><path fill="#000000" d="M 20.417969 5.890625 C 20.417969 5.890625 20.285156 6.171875 20.730469 6.234375 C 21.078125 6.300781 21.472656 6.449219 21.65625 6.515625 C 21.753906 6.5625 21.886719 6.53125 21.953125 6.464844 C 22 6.398438 22 6.335938 21.953125 6.269531 C 21.851562 6.136719 21.441406 5.808594 21.027344 5.746094 C 20.53125 5.648438 20.417969 5.890625 20.417969 5.890625 Z M 20.417969 5.890625 " fill-opacity="1" fill-rule="nonzero"/><path fill="#000000" d="M 19.0625 5.679688 C 19.0625 5.679688 19.097656 5.972656 18.652344 5.910156 C 18.304688 5.859375 17.875 5.875 17.679688 5.890625 C 17.5625 5.890625 17.449219 5.84375 17.414062 5.746094 C 17.382812 5.679688 17.398438 5.597656 17.480469 5.546875 C 17.613281 5.449219 18.109375 5.269531 18.519531 5.335938 C 19.03125 5.417969 19.0625 5.679688 19.0625 5.679688 Z M 19.0625 5.679688 " fill-opacity="1" fill-rule="nonzero"/><path fill="#000000" d="M 18.71875 8.347656 L 19.972656 8.542969 C 20.167969 8.578125 20.351562 8.707031 20.433594 8.886719 L 20.464844 8.953125 C 20.5 9.035156 20.433594 9.132812 20.335938 9.117188 L 18.191406 8.773438 C 18.109375 8.757812 18.058594 8.660156 18.109375 8.59375 C 18.257812 8.414062 18.488281 8.316406 18.71875 8.347656 Z M 18.71875 8.347656 " fill-opacity="1" fill-rule="nonzero"/><path fill="#ffad65" d="M 16.539062 3.761719 C 16.539062 3.761719 16.753906 4.484375 15.914062 5.367188 L 15.730469 4.714844 L 16.539062 3.238281 " fill-opacity="1" fill-rule="nonzero"/><path fill="#ffad65" d="M 21.636719 4.1875 C 21.636719 4.1875 21.308594 4.859375 21.984375 5.875 L 22.265625 5.253906 L 21.738281 3.683594 " fill-opacity="1" fill-rule="nonzero"/><g clip-path="url(#206b3262d5)"><path fill="#ffad65" d="M 16.574219 3.84375 C 16.574219 3.84375 18.46875 3.617188 19.773438 4.582031 C 21.257812 5.695312 22.609375 4.730469 22.511719 3.46875 C 22.398438 2.160156 20.648438 1.71875 18.933594 1.816406 C 17.546875 1.898438 16.6875 2.503906 16.6875 2.503906 Z M 16.574219 3.84375 " fill-opacity="1" fill-rule="nonzero"/></g><path fill="#ffad65" d="M 17.117188 2.488281 C 17.117188 2.488281 14.28125 2.40625 15.253906 6.1875 Z M 17.117188 2.488281 " fill-opacity="1" fill-rule="nonzero"/><path fill="#000000" d="M 16.539062 3.761719 C 16.539062 3.761719 16.753906 4.484375 15.914062 5.367188 L 15.730469 4.714844 L 16.539062 3.238281 " fill-opacity="1" fill-rule="nonzero"/><path fill="#000000" d="M 21.636719 4.1875 C 21.636719 4.1875 21.308594 4.859375 21.984375 5.875 L 22.265625 5.253906 L 21.738281 3.683594 " fill-opacity="1" fill-rule="nonzero"/><g clip-path="url(#a3bd43d8b1)"><path fill="#000000" d="M 16.574219 3.84375 C 16.574219 3.84375 18.46875 3.617188 19.773438 4.582031 C 21.257812 5.695312 22.609375 4.730469 22.511719 3.46875 C 22.398438 2.160156 20.648438 1.71875 18.933594 1.816406 C 17.546875 1.898438 16.6875 2.503906 16.6875 2.503906 Z M 16.574219 3.84375 " fill-opacity="1" fill-rule="nonzero"/></g><path fill="#000000" d="M 17.117188 2.488281 C 17.117188 2.488281 14.28125 2.40625 15.253906 6.1875 Z M 17.117188 2.488281 " fill-opacity="1" fill-rule="nonzero"/><path fill="#ffffff" d="M 14.414062 13.785156 L 19.773438 22.578125 L 21.523438 13.964844 L 19.394531 13.488281 L 18.125 14.699219 L 16.472656 13.292969 Z M 14.414062 13.785156 " fill-opacity="1" fill-rule="nonzero"/><path fill="#000000" d="M 20.550781 30.238281 C 20.515625 30.238281 20.5 30.222656 20.484375 30.191406 L 19.707031 22.59375 C 19.707031 22.558594 19.722656 22.527344 19.757812 22.527344 C 19.789062 22.527344 19.824219 22.542969 19.824219 22.578125 L 20.597656 30.171875 C 20.613281 30.207031 20.582031 30.238281 20.550781 30.238281 Z M 20.550781 30.238281 " fill-opacity="1" fill-rule="nonzero"/><path fill="#ffad65" d="M 58.410156 19.300781 L 58.492188 23.003906 L 61.296875 22.757812 L 60.605469 16.730469 Z M 58.410156 19.300781 " fill-opacity="1" fill-rule="nonzero"/><path fill="#000000" d="M 58.460938 21.464844 L 60.457031 18.828125 L 58.425781 19.5 Z M 58.460938 21.464844 " fill-opacity="1" fill-rule="nonzero"/><path fill="#ffad65" d="M 57.550781 12.867188 C 56.578125 12.917969 56.035156 13.882812 55.851562 14.765625 C 55.65625 15.796875 55.40625 17.402344 55.671875 18.222656 C 56.066406 19.480469 57.074219 20.300781 58.722656 20.007812 C 58.722656 20.007812 60.636719 19.941406 61.164062 17.140625 C 61.792969 13.800781 59.613281 12.769531 57.550781 12.867188 Z M 57.550781 12.867188 " fill-opacity="1" fill-rule="nonzero"/><path fill="#000000" d="M 56.296875 16.15625 C 56.265625 16.273438 56.148438 16.339844 56.035156 16.304688 C 55.917969 16.273438 55.851562 16.15625 55.886719 16.042969 C 55.917969 15.929688 56.035156 15.863281 56.148438 15.894531 C 56.265625 15.914062 56.332031 16.042969 56.296875 16.15625 Z M 56.296875 16.15625 " fill-opacity="1" fill-rule="nonzero"/><path fill="#000000" d="M 58.128906 16.304688 C 58.097656 16.421875 57.980469 16.484375 57.867188 16.453125 C 57.75 16.421875 57.683594 16.304688 57.71875 16.191406 C 57.75 16.078125 57.867188 16.011719 57.980469 16.042969 C 58.097656 16.078125 58.164062 16.191406 58.128906 16.304688 Z M 58.128906 16.304688 " fill-opacity="1" fill-rule="nonzero"/><path fill="#000000" d="M 56.761719 17.304688 L 56.53125 17.238281 C 56.480469 17.222656 56.445312 17.191406 56.414062 17.15625 C 56.398438 17.109375 56.382812 17.058594 56.398438 17.027344 L 56.613281 16.421875 C 56.628906 16.386719 56.660156 16.371094 56.679688 16.386719 C 56.710938 16.402344 56.726562 16.4375 56.710938 16.453125 L 56.496094 17.058594 C 56.496094 17.074219 56.496094 17.089844 56.496094 17.109375 C 56.496094 17.125 56.511719 17.140625 56.53125 17.140625 L 56.761719 17.207031 C 56.792969 17.222656 56.808594 17.238281 56.792969 17.273438 C 56.828125 17.289062 56.792969 17.304688 56.761719 17.304688 Z M 56.761719 17.304688 " fill-opacity="1" fill-rule="nonzero"/><path fill="#000000" d="M 56.316406 17.597656 L 57.996094 17.828125 C 57.996094 17.828125 57.867188 18.546875 57.089844 18.449219 C 56.316406 18.351562 56.316406 17.597656 56.316406 17.597656 Z M 56.316406 17.597656 " fill-opacity="1" fill-rule="nonzero"/><g clip-path="url(#7f4204301e)"><g clip-path="url(#005a192d82)"><path fill="#ffffff" d="M 56.167969 17.8125 L 58.082031 18.042969 L 58.113281 17.730469 L 56.214844 17.417969 Z M 56.167969 17.8125 " fill-opacity="1" fill-rule="nonzero"/></g></g><path fill="#000000" d="M 56.628906 14.617188 C 56.628906 14.617188 56.695312 14.882812 56.363281 14.898438 C 56.117188 14.914062 55.96875 14.929688 55.820312 14.964844 C 55.738281 14.996094 55.65625 14.945312 55.605469 14.882812 C 55.574219 14.816406 55.574219 14.75 55.621094 14.699219 C 55.703125 14.585938 55.886719 14.4375 56.183594 14.40625 C 56.578125 14.375 56.628906 14.617188 56.628906 14.617188 Z M 56.628906 14.617188 " fill-opacity="1" fill-rule="nonzero"/><path fill="#000000" d="M 57.75 14.71875 C 57.75 14.71875 57.636719 14.964844 58.03125 15.042969 C 58.34375 15.109375 58.707031 15.257812 58.871094 15.324219 C 58.972656 15.355469 59.085938 15.339844 59.152344 15.273438 C 59.203125 15.226562 59.203125 15.144531 59.167969 15.09375 C 59.070312 14.980469 58.707031 14.667969 58.328125 14.585938 C 57.847656 14.503906 57.75 14.71875 57.75 14.71875 Z M 57.75 14.71875 " fill-opacity="1" fill-rule="nonzero"/><path fill="#000000" d="M 60.324219 17.566406 L 60.09375 15.46875 C 60.042969 14.980469 60.226562 14.601562 60.390625 14.03125 C 58.558594 13.867188 56.414062 13.652344 56.429688 13.488281 C 56.429688 13.488281 57.335938 11.820312 60.472656 12.34375 C 64.746094 13.0625 62.730469 18.171875 60.785156 19.039062 Z M 60.324219 17.566406 " fill-opacity="1" fill-rule="nonzero"/><path fill="#ffad65" d="M 62.351562 17.699219 C 62.15625 18.304688 61.511719 18.628906 60.902344 18.433594 C 60.289062 18.238281 59.960938 17.597656 60.160156 16.992188 C 60.355469 16.386719 61 16.058594 61.609375 16.257812 C 62.203125 16.453125 62.550781 17.089844 62.351562 17.699219 Z M 62.351562 17.699219 " fill-opacity="1" fill-rule="nonzero"/><path fill="#000000" d="M 60.6875 17.746094 C 60.652344 17.730469 60.636719 17.714844 60.636719 17.679688 C 60.71875 17.386719 60.867188 17.171875 61.082031 17.042969 C 61.414062 16.863281 61.777344 16.960938 61.792969 16.976562 C 61.824219 16.992188 61.839844 17.007812 61.824219 17.042969 C 61.808594 17.074219 61.792969 17.089844 61.757812 17.074219 C 61.757812 17.074219 61.429688 16.976562 61.132812 17.140625 C 60.949219 17.238281 60.820312 17.433594 60.753906 17.699219 C 60.753906 17.730469 60.71875 17.746094 60.6875 17.746094 Z M 60.6875 17.746094 " fill-opacity="1" fill-rule="nonzero"/><path fill="#ffad65" d="M 67.78125 34.953125 C 67.78125 35.101562 67.78125 35.25 67.78125 35.378906 C 67.730469 37.65625 67.484375 39.898438 67.320312 42.160156 C 67.136719 43.46875 66.625 43.878906 66.230469 43.992188 C 66.214844 44.027344 66.179688 44.074219 66.164062 44.109375 L 65.289062 45.433594 C 65.222656 45.566406 65.058594 45.628906 64.910156 45.566406 C 64.8125 45.515625 64.679688 45.402344 64.8125 45.105469 L 64.695312 45.417969 C 64.628906 45.566406 64.449219 45.628906 64.300781 45.546875 C 64.167969 45.484375 64.101562 45.300781 64.167969 45.105469 L 64.050781 45.320312 C 63.96875 45.484375 63.773438 45.53125 63.605469 45.449219 C 63.457031 45.367188 63.425781 45.1875 63.476562 45.039062 L 63.605469 44.730469 L 63.625 44.695312 L 63.390625 45.023438 C 63.292969 45.1875 63.078125 45.238281 62.914062 45.121094 C 62.765625 45.023438 62.714844 44.84375 62.78125 44.679688 L 63.558594 42.765625 L 63.144531 42.570312 C 62.996094 42.503906 62.914062 42.339844 62.929688 42.175781 C 62.964844 42.011719 63.09375 41.878906 63.261719 41.878906 L 65.585938 41.832031 C 64.992188 37.132812 64.496094 32.433594 64.070312 27.71875 C 64.050781 26.636719 64.960938 25.753906 66.015625 25.753906 C 66.046875 25.753906 66.082031 25.753906 66.128906 25.753906 C 67.121094 25.820312 67.136719 26.933594 67.335938 27.898438 C 67.78125 30.15625 67.796875 32.515625 67.78125 34.953125 Z M 67.78125 34.953125 " fill-opacity="1" fill-rule="nonzero"/><path fill="#000000" d="M 63.539062 44.828125 C 63.507812 44.8125 63.507812 44.796875 63.507812 44.777344 L 63.984375 43.683594 C 63.984375 43.664062 64.019531 43.648438 64.035156 43.664062 C 64.050781 43.664062 64.070312 43.699219 64.050781 43.714844 L 63.574219 44.8125 C 63.574219 44.828125 63.558594 44.828125 63.539062 44.828125 Z M 63.539062 44.828125 " fill-opacity="1" fill-rule="nonzero"/><path fill="#000000" d="M 64.152344 45.089844 C 64.117188 45.074219 64.117188 45.058594 64.117188 45.039062 L 64.628906 44.027344 C 64.644531 44.007812 64.664062 43.992188 64.679688 44.007812 C 64.695312 44.027344 64.710938 44.042969 64.695312 44.058594 L 64.183594 45.074219 C 64.183594 45.089844 64.167969 45.089844 64.152344 45.089844 Z M 64.152344 45.089844 " fill-opacity="1" fill-rule="nonzero"/><path fill="#000000" d="M 64.746094 45.238281 C 64.746094 45.238281 64.730469 45.238281 64.730469 45.238281 C 64.710938 45.222656 64.710938 45.203125 64.710938 45.1875 L 65.15625 44.335938 C 65.175781 44.320312 65.191406 44.320312 65.207031 44.320312 C 65.222656 44.320312 65.222656 44.351562 65.222656 44.371094 L 64.777344 45.222656 C 64.761719 45.238281 64.761719 45.238281 64.746094 45.238281 Z M 64.746094 45.238281 " fill-opacity="1" fill-rule="nonzero"/><path fill="#3f2952" d="M 65.074219 23.410156 C 65.074219 23.410156 67.796875 24.867188 68.242188 30.484375 L 64.25 31.746094 L 62.816406 27.257812 Z M 65.074219 23.410156 " fill-opacity="1" fill-rule="nonzero"/><path fill="#000000" d="M 49.289062 48.824219 C 49.253906 48.824219 49.222656 48.789062 49.222656 48.757812 C 49.222656 48.726562 49.253906 45.402344 49.222656 42.976562 C 49.1875 40.539062 50.011719 39.488281 50.046875 39.457031 C 50.0625 39.425781 50.113281 39.425781 50.128906 39.441406 C 50.160156 39.457031 50.160156 39.507812 50.144531 39.523438 C 50.128906 39.539062 49.320312 40.570312 49.351562 42.976562 C 49.386719 45.402344 49.351562 48.726562 49.351562 48.757812 C 49.351562 48.789062 49.320312 48.824219 49.289062 48.824219 Z M 49.289062 48.824219 " fill-opacity="1" fill-rule="nonzero"/><path fill="#000000" d="M 53.609375 54.554688 C 53.558594 54.554688 53.542969 54.519531 53.542969 54.488281 L 54.171875 49.707031 C 54.171875 49.675781 54.203125 49.65625 54.238281 49.65625 C 54.269531 49.65625 54.285156 49.691406 54.285156 49.722656 L 53.660156 54.503906 C 53.675781 54.539062 53.640625 54.554688 53.609375 54.554688 Z M 53.609375 54.554688 " fill-opacity="1" fill-rule="nonzero"/><path fill="#000000" d="M 64.347656 31.777344 C 64.316406 31.777344 64.300781 31.761719 64.28125 31.730469 L 63.753906 27.160156 C 63.753906 27.128906 63.773438 27.09375 63.804688 27.09375 C 63.835938 27.09375 63.871094 27.113281 63.871094 27.144531 L 64.398438 31.710938 C 64.414062 31.746094 64.398438 31.761719 64.347656 31.777344 C 64.367188 31.777344 64.347656 31.777344 64.347656 31.777344 Z M 64.347656 31.777344 " fill-opacity="1" fill-rule="nonzero"/><path fill="#ffffff" d="M 18.15625 5.53125 L 19.082031 7.496094 C 19.082031 7.496094 18.554688 8.152344 17.960938 7.9375 L 17.019531 6.007812 C 17.003906 6.023438 17.496094 5.351562 18.15625 5.53125 Z M 18.15625 5.53125 " fill-opacity="0.2275" fill-rule="nonzero"/><path fill="#ffffff" d="M 21.078125 6.121094 L 22 8.085938 C 22 8.085938 21.472656 8.742188 20.878906 8.527344 L 19.921875 6.613281 C 19.921875 6.613281 20.417969 5.941406 21.078125 6.121094 Z M 21.078125 6.121094 " fill-opacity="0.2275" fill-rule="nonzero"/><path fill="#ffffff" d="M 17.894531 8.054688 C 17.84375 8.054688 17.8125 8.035156 17.761719 8.035156 C 17.050781 7.890625 16.589844 7.203125 16.738281 6.496094 C 16.804688 6.152344 17.003906 5.859375 17.300781 5.679688 C 17.597656 5.484375 17.941406 5.417969 18.289062 5.484375 C 18.636719 5.546875 18.933594 5.746094 19.113281 6.039062 C 19.3125 6.335938 19.378906 6.679688 19.3125 7.023438 C 19.246094 7.367188 19.046875 7.660156 18.75 7.839844 C 18.503906 8.003906 18.207031 8.070312 17.894531 8.054688 Z M 18.15625 5.546875 C 17.875 5.515625 17.597656 5.582031 17.347656 5.746094 C 17.085938 5.925781 16.886719 6.203125 16.820312 6.515625 C 16.6875 7.167969 17.117188 7.808594 17.777344 7.9375 C 18.089844 8.003906 18.421875 7.9375 18.703125 7.757812 C 18.964844 7.578125 19.164062 7.300781 19.230469 6.988281 C 19.296875 6.679688 19.230469 6.351562 19.046875 6.070312 C 18.867188 5.808594 18.585938 5.613281 18.273438 5.546875 C 18.238281 5.566406 18.207031 5.546875 18.15625 5.546875 Z M 18.15625 5.546875 " fill-opacity="1" fill-rule="nonzero"/><path fill="#ffffff" d="M 20.8125 8.644531 C 20.78125 8.644531 20.730469 8.625 20.699219 8.625 C 19.988281 8.480469 19.527344 7.792969 19.675781 7.085938 C 19.742188 6.742188 19.9375 6.449219 20.234375 6.269531 C 20.53125 6.070312 20.878906 6.007812 21.226562 6.070312 C 21.570312 6.136719 21.867188 6.335938 22.050781 6.628906 C 22.230469 6.921875 22.3125 7.265625 22.25 7.609375 C 22.101562 8.265625 21.488281 8.707031 20.8125 8.644531 Z M 21.09375 6.136719 C 20.8125 6.105469 20.53125 6.171875 20.285156 6.335938 C 20.019531 6.515625 19.824219 6.792969 19.757812 7.105469 C 19.625 7.757812 20.054688 8.398438 20.714844 8.527344 C 21.375 8.660156 22.015625 8.234375 22.148438 7.578125 C 22.214844 7.265625 22.148438 6.941406 21.96875 6.660156 C 21.785156 6.398438 21.507812 6.203125 21.191406 6.136719 C 21.160156 6.152344 21.125 6.136719 21.09375 6.136719 Z M 21.09375 6.136719 " fill-opacity="1" fill-rule="nonzero"/><path fill="#ffffff" d="M 19.691406 7.121094 C 19.511719 6.972656 19.296875 7.039062 19.296875 7.039062 L 19.261719 6.957031 C 19.277344 6.957031 19.527344 6.875 19.742188 7.054688 Z M 19.691406 7.121094 " fill-opacity="1" fill-rule="nonzero"/><path fill="#ffffff" d="M 45.261719 61.121094 L 46.597656 60.875 L 47.820312 61.054688 L 47.078125 61.316406 L 45.707031 61.316406 Z M 45.261719 61.121094 " fill-opacity="1" fill-rule="nonzero"/><path fill="#000000" d="M 19.445312 9.347656 C 19.425781 9.296875 19.394531 9.28125 19.34375 9.296875 C 19.230469 9.3125 19.113281 9.3125 19.015625 9.28125 C 18.933594 9.25 18.851562 9.199219 18.816406 9.132812 C 18.765625 9.050781 18.617188 9.132812 18.667969 9.214844 C 18.734375 9.332031 18.832031 9.394531 18.964844 9.445312 C 19.097656 9.496094 19.246094 9.476562 19.394531 9.460938 C 19.425781 9.429688 19.460938 9.378906 19.445312 9.347656 Z M 19.445312 9.347656 " fill-opacity="1" fill-rule="nonzero"/><path fill="#ffffff" d="M 15.335938 6.761719 C 15.285156 6.761719 15.253906 6.726562 15.253906 6.679688 C 15.253906 6.628906 15.285156 6.597656 15.335938 6.597656 L 16.769531 6.515625 C 16.820312 6.515625 16.855469 6.546875 16.855469 6.597656 C 16.855469 6.644531 16.820312 6.679688 16.769531 6.679688 Z M 15.335938 6.761719 " fill-opacity="1" fill-rule="nonzero"/></svg>