<svg xmlns="http://www.w3.org/2000/svg" xmlns:xlink="http://www.w3.org/1999/xlink" width="100" zoomAndPan="magnify" viewBox="0 0 75 74.999997" height="100" preserveAspectRatio="xMidYMid meet" version="1.0"><defs><clipPath id="72f2a6647e"><path d="M 21 51 L 22 51 L 22 66.75 L 21 66.75 Z M 21 51 " clip-rule="nonzero"/></clipPath><clipPath id="3cf758aab0"><path d="M 7.5 64 L 25 64 L 25 66.75 L 7.5 66.75 Z M 7.5 64 " clip-rule="nonzero"/></clipPath><clipPath id="90e186c3bb"><path d="M 22 51 L 37 51 L 37 66.75 L 22 66.75 Z M 22 51 " clip-rule="nonzero"/></clipPath><clipPath id="a6fd2c70db"><path d="M 7.5 51 L 22 51 L 22 66.75 L 7.5 66.75 Z M 7.5 51 " clip-rule="nonzero"/></clipPath><clipPath id="4f992860fa"><path d="M 51 45 L 61 45 L 61 66.75 L 51 66.75 Z M 51 45 " clip-rule="nonzero"/></clipPath><clipPath id="1d11b17dce"><path d="M 57 58 L 61 58 L 61 66.75 L 57 66.75 Z M 57 58 " clip-rule="nonzero"/></clipPath><clipPath id="2de7ac9a4b"><path d="M 58 46 L 68 46 L 68 66.75 L 58 66.75 Z M 58 46 " clip-rule="nonzero"/></clipPath><clipPath id="1a4ef79e6e"><path d="M 60 46 L 69 46 L 69 66.75 L 60 66.75 Z M 60 46 " clip-rule="nonzero"/></clipPath><clipPath id="08707b9a63"><path d="M 57 58 L 61 58 L 61 66.75 L 57 66.75 Z M 57 58 " clip-rule="nonzero"/></clipPath></defs><path fill="#000000" d="M 12.816406 46.449219 L 69.300781 46.449219 L 69.300781 0.160156 L 12.816406 0.160156 Z M 69.378906 46.609375 L 12.738281 46.609375 C 12.695312 46.609375 12.65625 46.574219 12.65625 46.527344 L 12.65625 0.0820312 C 12.65625 0.0351562 12.695312 0 12.738281 0 L 69.378906 0 C 69.425781 0 69.460938 0.0351562 69.460938 0.0820312 L 69.460938 46.527344 C 69.460938 46.574219 69.425781 46.609375 69.378906 46.609375 " fill-opacity="1" fill-rule="nonzero"/><path fill="#000000" d="M 40.542969 42.21875 C 40.5 42.21875 40.464844 42.183594 40.464844 42.136719 L 40.464844 2.472656 C 40.464844 2.429688 40.5 2.394531 40.542969 2.394531 C 40.589844 2.394531 40.625 2.429688 40.625 2.472656 L 40.625 42.136719 C 40.625 42.183594 40.589844 42.21875 40.542969 42.21875 " fill-opacity="1" fill-rule="nonzero"/><path fill="#000000" d="M 27.25 42.21875 C 27.207031 42.21875 27.171875 42.183594 27.171875 42.136719 L 27.171875 2.472656 C 27.171875 2.429688 27.207031 2.394531 27.25 2.394531 C 27.296875 2.394531 27.332031 2.429688 27.332031 2.472656 L 27.332031 42.136719 C 27.332031 42.183594 27.296875 42.21875 27.25 42.21875 " fill-opacity="1" fill-rule="nonzero"/><path fill="#000000" d="M 54.738281 42.21875 C 54.695312 42.21875 54.660156 42.183594 54.660156 42.136719 L 54.660156 2.472656 C 54.660156 2.429688 54.695312 2.394531 54.738281 2.394531 C 54.785156 2.394531 54.820312 2.429688 54.820312 2.472656 L 54.820312 42.136719 C 54.820312 42.183594 54.785156 42.21875 54.738281 42.21875 " fill-opacity="1" fill-rule="nonzero"/><path fill="#000000" d="M 67.109375 5.839844 L 14.558594 5.839844 C 14.515625 5.839844 14.480469 5.804688 14.480469 5.761719 C 14.480469 5.714844 14.515625 5.679688 14.558594 5.679688 L 67.109375 5.679688 C 67.152344 5.679688 67.1875 5.714844 67.1875 5.761719 C 67.1875 5.804688 67.152344 5.839844 67.109375 5.839844 " fill-opacity="1" fill-rule="nonzero"/><path fill="#8c7bff" d="M 25.054688 4.390625 L 15.5625 4.390625 L 15.5625 3.21875 L 25.054688 3.21875 L 25.054688 4.390625 " fill-opacity="1" fill-rule="nonzero"/><path fill="#8c7bff" d="M 38.8125 4.390625 L 29.320312 4.390625 L 29.320312 3.21875 L 38.8125 3.21875 L 38.8125 4.390625 " fill-opacity="1" fill-rule="nonzero"/><path fill="#8c7bff" d="M 52.054688 4.390625 L 42.5625 4.390625 L 42.5625 3.21875 L 52.054688 3.21875 L 52.054688 4.390625 " fill-opacity="1" fill-rule="nonzero"/><path fill="#8c7bff" d="M 66.671875 4.390625 L 57.179688 4.390625 L 57.179688 3.21875 L 66.671875 3.21875 L 66.671875 4.390625 " fill-opacity="1" fill-rule="nonzero"/><path fill="#000000" d="M 66.914062 28.230469 L 56.773438 28.230469 L 56.773438 24.519531 L 58.214844 23.074219 L 66.914062 23.074219 L 66.914062 28.230469 " fill-opacity="1" fill-rule="nonzero"/><path fill="#ffffff" d="M 66.597656 27.910156 L 56.457031 27.910156 L 56.457031 24.203125 L 57.898438 22.757812 L 66.597656 22.757812 L 66.597656 27.910156 " fill-opacity="1" fill-rule="nonzero"/><path fill="#000000" d="M 56.535156 27.832031 L 66.515625 27.832031 L 66.515625 22.835938 L 57.929688 22.835938 L 56.535156 24.234375 Z M 66.597656 27.992188 L 56.457031 27.992188 C 56.414062 27.992188 56.375 27.957031 56.375 27.910156 L 56.375 24.203125 C 56.375 24.179688 56.386719 24.160156 56.398438 24.144531 L 57.839844 22.699219 C 57.855469 22.683594 57.875 22.675781 57.898438 22.675781 L 66.597656 22.675781 C 66.640625 22.675781 66.675781 22.710938 66.675781 22.757812 L 66.675781 27.910156 C 66.675781 27.957031 66.640625 27.992188 66.597656 27.992188 " fill-opacity="1" fill-rule="nonzero"/><path fill="#000000" d="M 65.117188 23.945312 L 61.78125 23.945312 C 61.738281 23.945312 61.703125 23.910156 61.703125 23.863281 C 61.703125 23.820312 61.738281 23.785156 61.78125 23.785156 L 65.117188 23.785156 C 65.160156 23.785156 65.195312 23.820312 65.195312 23.863281 C 65.195312 23.910156 65.160156 23.945312 65.117188 23.945312 " fill-opacity="1" fill-rule="nonzero"/><path fill="#000000" d="M 61.035156 23.945312 L 58.460938 23.945312 C 58.417969 23.945312 58.382812 23.910156 58.382812 23.863281 C 58.382812 23.820312 58.417969 23.785156 58.460938 23.785156 L 61.035156 23.785156 C 61.082031 23.785156 61.117188 23.820312 61.117188 23.863281 C 61.117188 23.910156 61.082031 23.945312 61.035156 23.945312 " fill-opacity="1" fill-rule="nonzero"/><path fill="#000000" d="M 65.117188 25.007812 L 63.695312 25.007812 C 63.648438 25.007812 63.613281 24.972656 63.613281 24.925781 C 63.613281 24.882812 63.648438 24.847656 63.695312 24.847656 L 65.117188 24.847656 C 65.160156 24.847656 65.195312 24.882812 65.195312 24.925781 C 65.195312 24.972656 65.160156 25.007812 65.117188 25.007812 " fill-opacity="1" fill-rule="nonzero"/><path fill="#000000" d="M 62.949219 25.007812 L 58.460938 25.007812 C 58.417969 25.007812 58.382812 24.972656 58.382812 24.925781 C 58.382812 24.882812 58.417969 24.847656 58.460938 24.847656 L 62.949219 24.847656 C 62.992188 24.847656 63.027344 24.882812 63.027344 24.925781 C 63.027344 24.972656 62.992188 25.007812 62.949219 25.007812 " fill-opacity="1" fill-rule="nonzero"/><path fill="#000000" d="M 65.117188 26.070312 L 61.285156 26.070312 C 61.242188 26.070312 61.203125 26.035156 61.203125 25.988281 C 61.203125 25.945312 61.242188 25.910156 61.285156 25.910156 L 65.117188 25.910156 C 65.160156 25.910156 65.195312 25.945312 65.195312 25.988281 C 65.195312 26.035156 65.160156 26.070312 65.117188 26.070312 " fill-opacity="1" fill-rule="nonzero"/><path fill="#000000" d="M 60.539062 26.070312 L 58.460938 26.070312 C 58.417969 26.070312 58.382812 26.03125 58.382812 25.988281 C 58.382812 25.945312 58.417969 25.910156 58.460938 25.910156 L 60.539062 25.910156 C 60.582031 25.910156 60.617188 25.945312 60.617188 25.988281 C 60.617188 26.03125 60.582031 26.070312 60.539062 26.070312 " fill-opacity="1" fill-rule="nonzero"/><path fill="#000000" d="M 65.117188 27.132812 L 63.320312 27.132812 C 63.277344 27.132812 63.242188 27.097656 63.242188 27.050781 C 63.242188 27.007812 63.277344 26.972656 63.320312 26.972656 L 65.117188 26.972656 C 65.160156 26.972656 65.195312 27.007812 65.195312 27.050781 C 65.195312 27.097656 65.160156 27.132812 65.117188 27.132812 " fill-opacity="1" fill-rule="nonzero"/><path fill="#000000" d="M 62.574219 27.132812 L 58.460938 27.132812 C 58.417969 27.132812 58.382812 27.097656 58.382812 27.050781 C 58.382812 27.007812 58.417969 26.972656 58.460938 26.972656 L 62.574219 26.972656 C 62.621094 26.972656 62.65625 27.007812 62.65625 27.050781 C 62.65625 27.097656 62.621094 27.132812 62.574219 27.132812 " fill-opacity="1" fill-rule="nonzero"/><path fill="#000000" d="M 56.648438 24.121094 L 57.816406 24.121094 L 57.816406 22.949219 Z M 57.898438 24.28125 L 56.457031 24.28125 C 56.425781 24.28125 56.394531 24.261719 56.382812 24.230469 C 56.371094 24.203125 56.378906 24.167969 56.398438 24.144531 L 57.839844 22.699219 C 57.863281 22.675781 57.898438 22.667969 57.929688 22.683594 C 57.957031 22.695312 57.976562 22.722656 57.976562 22.757812 L 57.976562 24.203125 C 57.976562 24.246094 57.941406 24.28125 57.898438 24.28125 " fill-opacity="1" fill-rule="nonzero"/><path fill="#000000" d="M 52.371094 13.90625 L 42.714844 13.90625 L 42.714844 10.375 L 44.085938 8.996094 L 52.371094 8.996094 L 52.371094 13.90625 " fill-opacity="1" fill-rule="nonzero"/><path fill="#ffffff" d="M 52.066406 13.605469 L 42.410156 13.605469 L 42.410156 10.070312 L 43.785156 8.695312 L 52.066406 8.695312 L 52.066406 13.605469 " fill-opacity="1" fill-rule="nonzero"/><path fill="#000000" d="M 42.492188 13.523438 L 51.988281 13.523438 L 51.988281 8.773438 L 43.816406 8.773438 L 42.492188 10.105469 Z M 52.066406 13.683594 L 42.410156 13.683594 C 42.367188 13.683594 42.332031 13.648438 42.332031 13.605469 L 42.332031 10.070312 C 42.332031 10.050781 42.339844 10.03125 42.355469 10.015625 L 43.726562 8.636719 C 43.742188 8.625 43.761719 8.613281 43.785156 8.613281 L 52.066406 8.613281 C 52.113281 8.613281 52.148438 8.648438 52.148438 8.695312 L 52.148438 13.605469 C 52.148438 13.648438 52.113281 13.683594 52.066406 13.683594 " fill-opacity="1" fill-rule="nonzero"/><path fill="#000000" d="M 50.65625 9.828125 L 47.484375 9.828125 C 47.4375 9.828125 47.402344 9.792969 47.402344 9.75 C 47.402344 9.707031 47.4375 9.667969 47.484375 9.667969 L 50.65625 9.667969 C 50.703125 9.667969 50.738281 9.707031 50.738281 9.75 C 50.738281 9.792969 50.703125 9.828125 50.65625 9.828125 " fill-opacity="1" fill-rule="nonzero"/><path fill="#000000" d="M 46.773438 9.828125 L 44.320312 9.828125 C 44.277344 9.828125 44.242188 9.792969 44.242188 9.75 C 44.242188 9.707031 44.277344 9.667969 44.320312 9.667969 L 46.773438 9.667969 C 46.816406 9.667969 46.851562 9.707031 46.851562 9.75 C 46.851562 9.792969 46.816406 9.828125 46.773438 9.828125 " fill-opacity="1" fill-rule="nonzero"/><path fill="#000000" d="M 50.65625 10.839844 L 49.304688 10.839844 C 49.257812 10.839844 49.222656 10.804688 49.222656 10.761719 C 49.222656 10.71875 49.257812 10.679688 49.304688 10.679688 L 50.65625 10.679688 C 50.703125 10.679688 50.738281 10.71875 50.738281 10.761719 C 50.738281 10.804688 50.703125 10.839844 50.65625 10.839844 " fill-opacity="1" fill-rule="nonzero"/><path fill="#000000" d="M 48.59375 10.839844 L 44.320312 10.839844 C 44.277344 10.839844 44.242188 10.804688 44.242188 10.761719 C 44.242188 10.71875 44.277344 10.679688 44.320312 10.679688 L 48.59375 10.679688 C 48.636719 10.679688 48.671875 10.71875 48.671875 10.761719 C 48.671875 10.804688 48.636719 10.839844 48.59375 10.839844 " fill-opacity="1" fill-rule="nonzero"/><path fill="#000000" d="M 50.65625 11.855469 L 47.007812 11.855469 C 46.964844 11.855469 46.929688 11.816406 46.929688 11.773438 C 46.929688 11.730469 46.964844 11.691406 47.007812 11.691406 L 50.65625 11.691406 C 50.703125 11.691406 50.738281 11.730469 50.738281 11.773438 C 50.738281 11.816406 50.703125 11.855469 50.65625 11.855469 " fill-opacity="1" fill-rule="nonzero"/><path fill="#000000" d="M 46.296875 11.855469 L 44.320312 11.855469 C 44.277344 11.855469 44.242188 11.816406 44.242188 11.773438 C 44.242188 11.730469 44.277344 11.691406 44.320312 11.691406 L 46.296875 11.691406 C 46.34375 11.691406 46.378906 11.730469 46.378906 11.773438 C 46.378906 11.816406 46.34375 11.855469 46.296875 11.855469 " fill-opacity="1" fill-rule="nonzero"/><path fill="#000000" d="M 50.65625 12.863281 L 48.949219 12.863281 C 48.902344 12.863281 48.867188 12.828125 48.867188 12.785156 C 48.867188 12.738281 48.902344 12.703125 48.949219 12.703125 L 50.65625 12.703125 C 50.703125 12.703125 50.738281 12.738281 50.738281 12.785156 C 50.738281 12.828125 50.703125 12.863281 50.65625 12.863281 " fill-opacity="1" fill-rule="nonzero"/><path fill="#000000" d="M 48.238281 12.863281 L 44.320312 12.863281 C 44.277344 12.863281 44.242188 12.828125 44.242188 12.785156 C 44.242188 12.738281 44.277344 12.703125 44.320312 12.703125 L 48.238281 12.703125 C 48.28125 12.703125 48.316406 12.738281 48.316406 12.785156 C 48.316406 12.828125 48.28125 12.863281 48.238281 12.863281 " fill-opacity="1" fill-rule="nonzero"/><path fill="#000000" d="M 42.605469 9.992188 L 43.703125 9.992188 L 43.703125 8.886719 Z M 43.785156 10.152344 L 42.410156 10.152344 C 42.378906 10.152344 42.347656 10.132812 42.335938 10.101562 C 42.324219 10.070312 42.332031 10.039062 42.355469 10.015625 L 43.726562 8.636719 C 43.75 8.613281 43.785156 8.609375 43.8125 8.621094 C 43.84375 8.632812 43.863281 8.664062 43.863281 8.695312 L 43.863281 10.070312 C 43.863281 10.117188 43.828125 10.152344 43.785156 10.152344 " fill-opacity="1" fill-rule="nonzero"/><path fill="#8c7bff" d="M 54.144531 4.535156 L 53.453125 5.917969 L 52.21875 6.515625 L 54.285156 8.632812 L 54.894531 7.367188 L 56.273438 6.671875 L 54.144531 4.535156 " fill-opacity="1" fill-rule="nonzero"/><path fill="#6155ff" d="M 54.660156 6.15625 C 54.070312 5.566406 53.855469 4.828125 54.175781 4.507812 C 54.5 4.183594 55.234375 4.398438 55.820312 4.988281 C 56.410156 5.578125 56.625 6.316406 56.304688 6.640625 C 55.980469 6.960938 55.246094 6.746094 54.660156 6.15625 " fill-opacity="1" fill-rule="nonzero"/><path fill="#ffffff" d="M 52.925781 7.46875 L 53.351562 7.894531 L 51.625 9.425781 C 51.503906 9.53125 51.335938 9.367188 51.4375 9.242188 L 52.925781 7.46875 " fill-opacity="1" fill-rule="nonzero"/><path fill="#000000" d="M 52.929688 7.585938 L 51.5 9.292969 C 51.472656 9.328125 51.492188 9.351562 51.503906 9.363281 C 51.515625 9.371094 51.542969 9.394531 51.574219 9.363281 L 53.234375 7.890625 Z M 51.542969 9.539062 C 51.484375 9.539062 51.429688 9.515625 51.390625 9.476562 C 51.324219 9.410156 51.296875 9.289062 51.378906 9.191406 L 52.863281 7.414062 C 52.878906 7.398438 52.898438 7.386719 52.921875 7.386719 C 52.941406 7.386719 52.964844 7.394531 52.980469 7.410156 L 53.40625 7.835938 C 53.421875 7.851562 53.429688 7.875 53.429688 7.898438 C 53.429688 7.917969 53.421875 7.941406 53.402344 7.953125 L 51.679688 9.484375 C 51.636719 9.523438 51.585938 9.539062 51.542969 9.539062 " fill-opacity="1" fill-rule="nonzero"/><path fill="#8c7bff" d="M 52.554688 8.265625 C 51.96875 7.675781 51.753906 6.9375 52.074219 6.613281 C 52.394531 6.292969 53.132812 6.507812 53.71875 7.097656 C 54.304688 7.6875 54.523438 8.425781 54.199219 8.746094 C 53.878906 9.070312 53.144531 8.851562 52.554688 8.265625 " fill-opacity="1" fill-rule="nonzero"/><path fill="#fda4ff" d="M 66.335938 18.835938 L 56.527344 18.835938 L 56.527344 9 L 66.335938 9 L 66.335938 18.835938 " fill-opacity="1" fill-rule="nonzero"/><path fill="#ffffff" d="M 65.609375 18.105469 L 57.257812 18.105469 L 59.417969 15.472656 L 60.628906 16.664062 L 62.785156 13.648438 L 65.609375 18.105469 " fill-opacity="1" fill-rule="nonzero"/><path fill="#ffffff" d="M 60.644531 12.636719 C 60.644531 13.148438 60.226562 13.566406 59.714844 13.566406 C 59.203125 13.566406 58.789062 13.148438 58.789062 12.636719 C 58.789062 12.121094 59.203125 11.707031 59.714844 11.707031 C 60.226562 11.707031 60.644531 12.121094 60.644531 12.636719 " fill-opacity="1" fill-rule="nonzero"/><g clip-path="url(#72f2a6647e)"><path fill="#000000" d="M 21.539062 66.148438 C 21.496094 66.148438 21.460938 66.109375 21.460938 66.066406 L 21.460938 51.601562 C 21.460938 51.554688 21.496094 51.519531 21.539062 51.519531 C 21.582031 51.519531 21.621094 51.554688 21.621094 51.601562 L 21.621094 66.066406 C 21.621094 66.109375 21.582031 66.148438 21.539062 66.148438 " fill-opacity="1" fill-rule="nonzero"/></g><path fill="#ffffff" d="M 33.976562 54.042969 L 19.144531 54.042969 L 21.378906 51.601562 L 36.207031 51.601562 L 33.976562 54.042969 " fill-opacity="1" fill-rule="nonzero"/><path fill="#000000" d="M 19.324219 53.960938 L 33.941406 53.960938 L 36.027344 51.679688 L 21.414062 51.679688 Z M 33.976562 54.121094 L 19.144531 54.121094 C 19.113281 54.121094 19.082031 54.101562 19.070312 54.074219 C 19.058594 54.042969 19.0625 54.011719 19.085938 53.988281 L 21.320312 51.546875 C 21.332031 51.53125 21.355469 51.519531 21.378906 51.519531 L 36.207031 51.519531 C 36.242188 51.519531 36.269531 51.539062 36.28125 51.566406 C 36.292969 51.597656 36.289062 51.632812 36.269531 51.65625 L 34.035156 54.09375 C 34.019531 54.113281 33.996094 54.121094 33.976562 54.121094 " fill-opacity="1" fill-rule="nonzero"/><path fill="#ffffff" d="M 28.234375 60.300781 L 13.464844 60.300781 L 15.636719 57.859375 L 30.46875 57.859375 L 28.234375 60.300781 " fill-opacity="1" fill-rule="nonzero"/><path fill="#000000" d="M 13.644531 60.222656 L 28.199219 60.222656 L 30.285156 57.941406 L 15.671875 57.941406 Z M 28.234375 60.382812 L 13.464844 60.382812 C 13.433594 60.382812 13.402344 60.363281 13.390625 60.335938 C 13.378906 60.304688 13.382812 60.273438 13.402344 60.25 L 15.578125 57.808594 C 15.59375 57.789062 15.613281 57.78125 15.636719 57.78125 L 30.46875 57.78125 C 30.5 57.78125 30.527344 57.800781 30.542969 57.828125 C 30.554688 57.859375 30.546875 57.890625 30.527344 57.914062 L 28.292969 60.355469 C 28.277344 60.375 28.257812 60.382812 28.234375 60.382812 " fill-opacity="1" fill-rule="nonzero"/><g clip-path="url(#3cf758aab0)"><path fill="#ffffff" d="M 22.585938 66.5625 L 7.753906 66.5625 L 9.988281 64.121094 L 24.820312 64.121094 L 22.585938 66.5625 " fill-opacity="1" fill-rule="nonzero"/><path fill="#000000" d="M 7.9375 66.484375 L 22.550781 66.484375 L 24.636719 64.203125 L 10.023438 64.203125 Z M 22.585938 66.644531 L 7.753906 66.644531 C 7.722656 66.644531 7.691406 66.625 7.679688 66.59375 C 7.667969 66.566406 7.671875 66.53125 7.695312 66.507812 L 9.929688 64.066406 C 9.945312 64.050781 9.964844 64.042969 9.988281 64.042969 L 24.820312 64.042969 C 24.851562 64.042969 24.878906 64.058594 24.890625 64.089844 C 24.90625 64.117188 24.898438 64.152344 24.878906 64.175781 L 22.644531 66.617188 C 22.628906 66.632812 22.605469 66.644531 22.585938 66.644531 " fill-opacity="1" fill-rule="nonzero"/></g><g clip-path="url(#90e186c3bb)"><path fill="#000000" d="M 22.464844 66.742188 C 22.445312 66.742188 22.425781 66.734375 22.410156 66.722656 C 22.378906 66.691406 22.375 66.640625 22.40625 66.609375 L 36.128906 51.570312 C 36.136719 51.5625 36.140625 51.554688 36.148438 51.546875 C 36.15625 51.539062 36.164062 51.535156 36.171875 51.53125 L 36.171875 51.527344 C 36.1875 51.523438 36.203125 51.519531 36.21875 51.519531 C 36.21875 51.519531 36.21875 51.519531 36.222656 51.519531 C 36.222656 51.519531 36.222656 51.519531 36.222656 51.523438 C 36.230469 51.523438 36.234375 51.523438 36.238281 51.527344 C 36.246094 51.527344 36.25 51.53125 36.257812 51.535156 C 36.257812 51.539062 36.257812 51.539062 36.257812 51.539062 C 36.257812 51.539062 36.261719 51.539062 36.257812 51.539062 C 36.261719 51.539062 36.261719 51.539062 36.261719 51.539062 C 36.261719 51.539062 36.261719 51.539062 36.261719 51.542969 L 36.265625 51.542969 C 36.265625 51.542969 36.265625 51.542969 36.265625 51.546875 C 36.265625 51.546875 36.265625 51.546875 36.269531 51.546875 C 36.269531 51.546875 36.269531 51.546875 36.269531 51.550781 C 36.28125 51.5625 36.289062 51.582031 36.289062 51.601562 C 36.308594 56.398438 36.308594 61.265625 36.289062 66.066406 C 36.289062 66.109375 36.253906 66.148438 36.207031 66.148438 C 36.164062 66.148438 36.128906 66.109375 36.128906 66.066406 C 36.148438 61.335938 36.152344 56.539062 36.128906 51.804688 L 22.523438 66.714844 C 22.507812 66.734375 22.484375 66.742188 22.464844 66.742188 " fill-opacity="1" fill-rule="nonzero"/></g><g clip-path="url(#a6fd2c70db)"><path fill="#000000" d="M 7.597656 66.75 C 7.578125 66.75 7.558594 66.742188 7.542969 66.730469 C 7.507812 66.699219 7.507812 66.648438 7.535156 66.617188 L 8.417969 65.65625 C 12.652344 61.039062 17.03125 56.261719 21.316406 51.546875 C 21.347656 51.511719 21.398438 51.511719 21.429688 51.539062 C 21.464844 51.570312 21.464844 51.621094 21.4375 51.65625 C 17.148438 56.371094 12.769531 61.144531 8.535156 65.761719 L 7.65625 66.722656 C 7.640625 66.742188 7.617188 66.75 7.597656 66.75 " fill-opacity="1" fill-rule="nonzero"/></g><path fill="#000000" d="M 21.828125 13.898438 C 21.722656 13.898438 21.605469 14.0625 21.605469 14.300781 C 21.605469 14.539062 21.722656 14.707031 21.828125 14.707031 C 21.933594 14.707031 22.046875 14.539062 22.046875 14.300781 C 22.046875 14.0625 21.933594 13.898438 21.828125 13.898438 Z M 21.828125 14.867188 C 21.613281 14.867188 21.445312 14.617188 21.445312 14.300781 C 21.445312 13.984375 21.613281 13.738281 21.828125 13.738281 C 22.042969 13.738281 22.207031 13.984375 22.207031 14.300781 C 22.207031 14.617188 22.042969 14.867188 21.828125 14.867188 " fill-opacity="1" fill-rule="nonzero"/><path fill="#fda4ff" d="M 21.726562 14.144531 C 21.726562 14.980469 21.511719 15.917969 20.742188 15.917969 C 19.972656 15.917969 18.9375 14.980469 18.9375 14.144531 C 18.9375 13.308594 19.5625 12.632812 20.332031 12.632812 C 21.101562 12.632812 21.726562 13.308594 21.726562 14.144531 " fill-opacity="1" fill-rule="nonzero"/><path fill="#fda4ff" d="M 19.097656 16.796875 L 20.695312 16.796875 L 20.695312 14.144531 L 19.097656 14.144531 L 19.097656 16.796875 " fill-opacity="1" fill-rule="nonzero"/><path fill="#000000" d="M 20.695312 16.878906 C 20.652344 16.878906 20.617188 16.839844 20.617188 16.796875 L 20.617188 15.433594 C 20.617188 15.386719 20.652344 15.351562 20.695312 15.351562 C 20.742188 15.351562 20.777344 15.386719 20.777344 15.433594 L 20.777344 16.796875 C 20.777344 16.839844 20.742188 16.878906 20.695312 16.878906 " fill-opacity="1" fill-rule="nonzero"/><path fill="#000000" d="M 21.039062 13.886719 C 21.039062 14.566406 20.675781 15.632812 19.816406 15.632812 C 18.761719 15.632812 18.59375 14.566406 18.59375 13.886719 C 18.59375 13.210938 19.140625 12.660156 19.816406 12.660156 C 20.492188 12.660156 21.039062 13.210938 21.039062 13.886719 " fill-opacity="1" fill-rule="nonzero"/><path fill="#000000" d="M 22.191406 12.972656 C 22.191406 13.414062 21.632812 13.769531 20.949219 13.769531 C 20.261719 13.769531 19.707031 13.414062 19.707031 12.972656 C 19.707031 12.535156 20.261719 12.175781 20.949219 12.175781 C 21.632812 12.175781 22.191406 12.535156 22.191406 12.972656 " fill-opacity="1" fill-rule="nonzero"/><path fill="#000000" d="M 22.128906 14.382812 C 22.125 14.382812 22.125 14.382812 22.121094 14.382812 L 20.792969 14.285156 C 20.746094 14.28125 20.714844 14.242188 20.71875 14.199219 C 20.722656 14.15625 20.757812 14.121094 20.804688 14.125 L 22.132812 14.222656 C 22.179688 14.226562 22.210938 14.265625 22.207031 14.308594 C 22.207031 14.351562 22.171875 14.382812 22.128906 14.382812 " fill-opacity="1" fill-rule="nonzero"/><path fill="#fda4ff" d="M 21.308594 14.363281 C 21.410156 14.601562 21.335938 14.867188 21.136719 14.953125 C 20.9375 15.039062 20.695312 14.917969 20.589844 14.679688 C 20.484375 14.441406 20.5625 14.175781 20.761719 14.089844 C 20.957031 14.003906 21.203125 14.125 21.308594 14.363281 " fill-opacity="1" fill-rule="nonzero"/><path fill="#000000" d="M 24.429688 46.554688 L 26.925781 40.523438 L 30.566406 42.230469 L 28.332031 47.757812 L 24.429688 46.554688 " fill-opacity="1" fill-rule="nonzero"/><path fill="#ffffff" d="M 24.429688 46.554688 L 25.132812 44.851562 L 29.425781 45.132812 L 28.332031 47.757812 L 24.429688 46.554688 " fill-opacity="1" fill-rule="nonzero"/><path fill="#000000" d="M 24.535156 46.503906 L 28.285156 47.660156 L 29.308594 45.203125 L 25.183594 44.9375 Z M 28.332031 47.835938 C 28.324219 47.835938 28.316406 47.835938 28.308594 47.832031 L 24.40625 46.632812 C 24.382812 46.625 24.367188 46.609375 24.355469 46.589844 C 24.347656 46.566406 24.34375 46.542969 24.355469 46.523438 L 25.058594 44.820312 C 25.074219 44.789062 25.105469 44.769531 25.140625 44.773438 L 29.433594 45.050781 C 29.457031 45.054688 29.480469 45.066406 29.496094 45.089844 C 29.507812 45.113281 29.511719 45.140625 29.5 45.164062 L 28.40625 47.789062 C 28.390625 47.816406 28.363281 47.835938 28.332031 47.835938 " fill-opacity="1" fill-rule="nonzero"/><path fill="#fed101" d="M 34.339844 50.421875 L 34.339844 49.617188 C 34.339844 49.015625 33.898438 48.507812 33.308594 48.421875 L 31.648438 48.1875 C 31.386719 48.152344 31.136719 48.046875 30.925781 47.886719 L 30.546875 47.628906 C 29.726562 47.0625 29.527344 46.273438 29.480469 46.191406 L 24.089844 46.191406 L 23.746094 50.367188 L 34.339844 50.421875 " fill-opacity="1" fill-rule="nonzero"/><path fill="#000000" d="M 23.71875 50.335938 C 23.570312 50.335938 23.449219 50.457031 23.449219 50.605469 L 23.445312 51.710938 C 23.445312 51.871094 23.574219 52.003906 23.734375 52.003906 L 34.339844 52.003906 C 34.59375 52.003906 34.796875 51.796875 34.796875 51.542969 L 34.796875 50.792969 C 34.796875 50.542969 34.59375 50.335938 34.339844 50.335938 L 23.71875 50.335938 " fill-opacity="1" fill-rule="nonzero"/><path fill="#000000" d="M 34.34375 50.417969 C 34.339844 50.417969 34.339844 50.417969 34.339844 50.417969 C 34.292969 50.414062 34.261719 50.375 34.261719 50.332031 L 34.296875 49.742188 C 34.332031 49.152344 33.914062 48.636719 33.332031 48.546875 L 31.339844 48.242188 C 31.328125 48.242188 31.316406 48.246094 31.3125 48.257812 L 30.285156 49.820312 C 30.261719 49.859375 30.210938 49.871094 30.175781 49.84375 C 30.136719 49.820312 30.128906 49.769531 30.152344 49.734375 L 31.179688 48.167969 C 31.21875 48.105469 31.292969 48.074219 31.363281 48.085938 L 33.355469 48.386719 C 34.023438 48.488281 34.496094 49.078125 34.457031 49.753906 L 34.421875 50.339844 C 34.421875 50.382812 34.386719 50.417969 34.34375 50.417969 " fill-opacity="1" fill-rule="nonzero"/><path fill="#000000" d="M 29.480469 48.472656 C 29.453125 48.472656 29.425781 48.457031 29.410156 48.433594 C 29.386719 48.394531 29.402344 48.34375 29.4375 48.324219 L 30.527344 47.6875 C 30.566406 47.664062 30.613281 47.679688 30.636719 47.714844 C 30.660156 47.753906 30.644531 47.804688 30.605469 47.824219 L 29.519531 48.460938 C 29.507812 48.46875 29.492188 48.472656 29.480469 48.472656 " fill-opacity="1" fill-rule="nonzero"/><path fill="#020202" d="M 25.773438 50.390625 C 25.429688 48.992188 24.4375 48.398438 23.921875 48.179688 L 23.730469 50.34375 C 23.671875 50.34375 25.773438 50.390625 25.773438 50.390625 " fill-opacity="1" fill-rule="nonzero"/><path fill="#000000" d="M 12.023438 52.652344 L 15.835938 46.953125 L 19.234375 49.460938 L 15.796875 54.695312 L 12.023438 52.652344 " fill-opacity="1" fill-rule="nonzero"/><path fill="#ffffff" d="M 12.023438 52.652344 L 13.679688 50.175781 L 17.097656 52.714844 L 15.796875 54.695312 L 12.023438 52.652344 " fill-opacity="1" fill-rule="nonzero"/><path fill="#000000" d="M 12.136719 52.621094 L 15.769531 54.589844 L 16.988281 52.734375 L 13.699219 50.289062 Z M 15.796875 54.773438 C 15.785156 54.773438 15.773438 54.773438 15.761719 54.765625 L 11.984375 52.722656 C 11.964844 52.710938 11.949219 52.691406 11.945312 52.667969 C 11.9375 52.648438 11.941406 52.625 11.957031 52.605469 L 13.613281 50.128906 C 13.625 50.113281 13.644531 50.097656 13.664062 50.09375 C 13.6875 50.089844 13.707031 50.097656 13.726562 50.109375 L 17.144531 52.648438 C 17.179688 52.675781 17.1875 52.722656 17.164062 52.757812 L 15.863281 54.738281 C 15.847656 54.761719 15.824219 54.773438 15.796875 54.773438 " fill-opacity="1" fill-rule="nonzero"/><path fill="#fed101" d="M 12.976562 50.421875 L 10.128906 52.570312 L 14.308594 57.199219 C 14.6875 57.617188 15.222656 57.855469 15.78125 57.855469 L 19.199219 57.855469 C 19.199219 56.023438 17.957031 55.628906 17.3125 55.550781 C 17.050781 55.515625 16.804688 55.390625 16.625 55.195312 L 16.75 54.136719 L 12.976562 50.421875 " fill-opacity="1" fill-rule="nonzero"/><path fill="#000000" d="M 19.199219 57.933594 C 19.15625 57.933594 19.121094 57.898438 19.121094 57.855469 C 19.121094 56.585938 18.484375 55.835938 17.28125 55.6875 C 17.1875 55.675781 17.097656 55.652344 17.011719 55.617188 C 16.96875 55.601562 16.945312 55.558594 16.960938 55.515625 C 16.976562 55.472656 17.023438 55.453125 17.066406 55.46875 C 17.140625 55.496094 17.222656 55.515625 17.300781 55.527344 C 18.203125 55.640625 19.28125 56.136719 19.28125 57.855469 C 19.28125 57.898438 19.242188 57.933594 19.199219 57.933594 " fill-opacity="1" fill-rule="nonzero"/><path fill="#020202" d="M 19.199219 57.855469 L 15.78125 57.855469 C 15.222656 57.855469 14.6875 57.617188 14.308594 57.199219 L 10.128906 52.570312 L 10.070312 52.507812 C 9.941406 52.371094 9.730469 52.359375 9.585938 52.472656 L 9.054688 52.945312 C 8.886719 53.074219 8.867188 53.320312 9.011719 53.472656 L 13.550781 58.386719 C 14.09375 58.972656 14.859375 59.308594 15.65625 59.308594 L 19.199219 59.308594 C 19.390625 59.308594 19.546875 59.152344 19.546875 58.957031 L 19.546875 58.203125 C 19.546875 58.011719 19.390625 57.855469 19.199219 57.855469 " fill-opacity="1" fill-rule="nonzero"/><path fill="#020202" d="M 11.332031 53.902344 C 11.742188 53.472656 11.992188 52.886719 11.992188 52.246094 C 11.992188 51.914062 11.925781 51.59375 11.800781 51.308594 L 10.128906 52.570312 L 11.332031 53.902344 " fill-opacity="1" fill-rule="nonzero"/><path fill="#000000" d="M 15.359375 56.914062 C 15.335938 56.914062 15.3125 56.902344 15.296875 56.882812 C 15.269531 56.847656 15.277344 56.796875 15.3125 56.769531 L 16.984375 55.484375 C 17.019531 55.457031 17.066406 55.464844 17.09375 55.5 C 17.121094 55.535156 17.113281 55.585938 17.078125 55.613281 L 15.40625 56.898438 C 15.394531 56.90625 15.375 56.914062 15.359375 56.914062 " fill-opacity="1" fill-rule="nonzero"/><path fill="#000000" d="M 14.921875 55.808594 C 14.890625 55.808594 14.863281 55.789062 14.851562 55.757812 C 14.832031 55.71875 14.851562 55.671875 14.894531 55.652344 L 15.894531 55.230469 C 15.933594 55.214844 15.980469 55.234375 16 55.273438 C 16.015625 55.316406 15.996094 55.363281 15.957031 55.378906 L 14.953125 55.800781 C 14.945312 55.804688 14.933594 55.808594 14.921875 55.808594 " fill-opacity="1" fill-rule="nonzero"/><path fill="#8c7bff" d="M 34.636719 33.761719 L 34.304688 34.679688 L 22.679688 34.046875 C 20.214844 33.914062 18.105469 32.238281 17.40625 29.863281 L 16.722656 27.527344 L 31.15625 28.441406 C 33.796875 28.605469 35.542969 31.269531 34.636719 33.761719 " fill-opacity="1" fill-rule="nonzero"/><path fill="#8c7bff" d="M 30.4375 45.414062 L 24.773438 43.363281 L 29.023438 31.566406 L 34.683594 33.617188 L 30.4375 45.414062 " fill-opacity="1" fill-rule="nonzero"/><path fill="#000000" d="M 30.4375 45.492188 C 30.425781 45.492188 30.417969 45.492188 30.410156 45.488281 L 24.746094 43.4375 C 24.726562 43.433594 24.710938 43.417969 24.703125 43.398438 C 24.695312 43.378906 24.691406 43.355469 24.699219 43.335938 L 27.945312 34.324219 C 27.957031 34.28125 28.003906 34.261719 28.046875 34.277344 C 28.085938 34.292969 28.109375 34.335938 28.09375 34.378906 L 24.878906 43.316406 L 30.386719 45.308594 L 34.605469 33.589844 C 34.621094 33.546875 34.667969 33.523438 34.710938 33.539062 C 34.75 33.554688 34.773438 33.601562 34.757812 33.644531 L 30.511719 45.441406 C 30.5 45.472656 30.46875 45.492188 30.4375 45.492188 " fill-opacity="1" fill-rule="nonzero"/><path fill="#8c7bff" d="M 23.238281 38.738281 L 21.585938 26.035156 L 15.617188 26.820312 L 17.355469 40.160156 L 13.171875 49.546875 L 18.667969 52.003906 L 22.589844 43.207031 C 23.214844 41.804688 23.4375 40.257812 23.238281 38.738281 " fill-opacity="1" fill-rule="nonzero"/><path fill="#8c7bff" d="M 24.230469 30.183594 L 16.722656 30.183594 L 16.722656 26.546875 L 24.230469 26.546875 L 24.230469 30.183594 " fill-opacity="1" fill-rule="nonzero"/><path fill="#000000" d="M 24.230469 27.242188 L 15.890625 28.886719 L 15.5625 26.546875 L 24.230469 26.546875 L 24.230469 27.242188 " fill-opacity="1" fill-rule="nonzero"/><path fill="#000000" d="M 31.824219 34.625 C 31.820312 34.625 31.820312 34.625 31.820312 34.625 L 22.675781 34.128906 C 22.628906 34.125 22.597656 34.085938 22.597656 34.042969 C 22.601562 34 22.640625 33.960938 22.683594 33.964844 L 31.828125 34.464844 C 31.871094 34.46875 31.90625 34.507812 31.902344 34.550781 C 31.902344 34.59375 31.867188 34.625 31.824219 34.625 " fill-opacity="1" fill-rule="nonzero"/><path fill="#000000" d="M 22.679688 34.128906 C 22.679688 34.128906 22.675781 34.128906 22.675781 34.128906 C 21.832031 34.082031 21.023438 33.859375 20.277344 33.472656 C 20.238281 33.449219 20.222656 33.402344 20.242188 33.363281 C 20.261719 33.324219 20.3125 33.308594 20.351562 33.328125 C 21.078125 33.707031 21.863281 33.921875 22.683594 33.964844 C 22.726562 33.96875 22.761719 34.007812 22.757812 34.050781 C 22.757812 34.09375 22.722656 34.128906 22.679688 34.128906 " fill-opacity="1" fill-rule="nonzero"/><path fill="#000000" d="M 27.980469 34.339844 L 31.292969 34.515625 L 26.457031 38.691406 Z M 27.980469 34.339844 " fill-opacity="1" fill-rule="nonzero"/><path fill="#000000" d="M 19.234375 40.605469 C 19.230469 40.605469 19.226562 40.605469 19.21875 40.601562 L 17.339844 40.238281 C 17.296875 40.230469 17.269531 40.1875 17.277344 40.144531 C 17.285156 40.101562 17.328125 40.074219 17.371094 40.082031 L 19.25 40.445312 C 19.292969 40.453125 19.320312 40.496094 19.3125 40.539062 C 19.304688 40.578125 19.273438 40.605469 19.234375 40.605469 " fill-opacity="1" fill-rule="nonzero"/><path fill="#000000" d="M 30.4375 45.492188 C 30.425781 45.492188 30.417969 45.492188 30.410156 45.488281 C 30.367188 45.472656 30.347656 45.425781 30.359375 45.386719 L 34.222656 34.652344 C 34.226562 34.644531 34.230469 34.636719 34.238281 34.628906 L 34.5625 33.734375 C 34.984375 32.570312 34.835938 31.308594 34.160156 30.273438 C 33.480469 29.234375 32.386719 28.597656 31.152344 28.523438 L 23.105469 28.011719 C 23.058594 28.007812 23.027344 27.96875 23.03125 27.925781 C 23.03125 27.882812 23.070312 27.847656 23.113281 27.851562 L 31.160156 28.363281 C 32.445312 28.441406 33.585938 29.105469 34.292969 30.183594 C 35 31.261719 35.152344 32.578125 34.710938 33.789062 L 34.378906 34.707031 C 34.375 34.71875 34.371094 34.726562 34.367188 34.730469 L 30.511719 45.441406 C 30.5 45.472656 30.46875 45.492188 30.4375 45.492188 " fill-opacity="1" fill-rule="nonzero"/><path fill="#4ada85" d="M 34.507812 16.753906 L 22.464844 15.167969 L 23.632812 6.265625 L 35.675781 7.851562 L 34.507812 16.753906 " fill-opacity="1" fill-rule="nonzero"/><path fill="#ffffff" d="M 31.300781 11.480469 C 31.136719 12.746094 29.980469 13.632812 28.722656 13.46875 C 27.464844 13.300781 26.578125 12.144531 26.742188 10.878906 C 26.90625 9.617188 28.0625 8.730469 29.320312 8.894531 C 30.582031 9.0625 31.46875 10.21875 31.300781 11.480469 " fill-opacity="1" fill-rule="nonzero"/><path fill="#ffffff" d="M 29.890625 11.296875 L 28.574219 10.28125 L 28.359375 11.933594 L 29.890625 11.296875 " fill-opacity="1" fill-rule="nonzero"/><path fill="#000000" d="M 28.636719 10.429688 L 28.457031 11.804688 L 29.734375 11.273438 Z M 28.359375 12.011719 C 28.339844 12.011719 28.324219 12.007812 28.308594 11.996094 C 28.285156 11.980469 28.273438 11.949219 28.277344 11.921875 L 28.496094 10.273438 C 28.5 10.242188 28.515625 10.21875 28.542969 10.207031 C 28.570312 10.199219 28.601562 10.203125 28.625 10.21875 L 29.941406 11.230469 C 29.960938 11.25 29.972656 11.277344 29.972656 11.304688 C 29.96875 11.335938 29.949219 11.359375 29.921875 11.371094 L 28.390625 12.007812 C 28.378906 12.011719 28.367188 12.011719 28.359375 12.011719 " fill-opacity="1" fill-rule="nonzero"/><path fill="#ffffff" d="M 34.214844 15.679688 L 23.003906 14.203125 L 22.949219 14.617188 L 34.160156 16.09375 L 34.214844 15.679688 " fill-opacity="1" fill-rule="nonzero"/><path fill="#fda4ff" d="M 24.515625 16.878906 C 24.5625 16.8125 24.953125 16.515625 25.007812 15.921875 L 25.03125 15.6875 C 25.054688 15.421875 24.960938 15.359375 24.984375 15.097656 L 25.085938 14.011719 C 25.101562 13.851562 24.988281 13.710938 24.828125 13.699219 L 24.808594 13.695312 C 24.648438 13.679688 24.507812 13.796875 24.492188 13.957031 L 24.222656 16.847656 L 24.515625 16.878906 " fill-opacity="1" fill-rule="nonzero"/><path fill="#fda4ff" d="M 24.316406 16.398438 L 23.585938 15.25 C 23.402344 14.957031 23.320312 14.609375 23.351562 14.265625 C 23.417969 13.597656 23.46875 13.296875 23.402344 12.824219 L 23.394531 12.757812 C 23.367188 12.578125 23.515625 12.417969 23.699219 12.4375 L 23.722656 12.4375 C 23.851562 12.453125 23.953125 12.550781 23.972656 12.679688 C 24.011719 12.960938 24.058594 13.222656 24.019531 13.632812 L 23.984375 14.003906 C 23.953125 14.347656 24.035156 14.691406 24.21875 14.980469 L 24.421875 15.292969 L 24.316406 16.398438 " fill-opacity="1" fill-rule="nonzero"/><path fill="#fda4ff" d="M 22.605469 15.976562 L 22.773438 14.089844 C 22.789062 13.886719 22.851562 13.691406 22.949219 13.515625 L 23.015625 13.398438 C 23.132812 13.191406 23.398438 13.117188 23.605469 13.234375 C 23.683594 13.277344 23.710938 13.378906 23.667969 13.453125 L 23.566406 13.632812 C 23.445312 13.851562 23.371094 14.089844 23.347656 14.339844 L 23.195312 16.03125 L 22.605469 15.976562 " fill-opacity="1" fill-rule="nonzero"/><path fill="#fda4ff" d="M 22.203125 16.378906 C 22.082031 16.121094 22.03125 15.832031 22.054688 15.546875 L 22.105469 14.941406 C 22.121094 14.742188 22.183594 14.546875 22.28125 14.371094 L 22.347656 14.25 C 22.464844 14.042969 22.730469 13.96875 22.9375 14.085938 C 23.015625 14.132812 23.042969 14.230469 23 14.308594 L 22.714844 14.816406 L 22.507812 17.035156 L 22.203125 16.378906 " fill-opacity="1" fill-rule="nonzero"/><path fill="#fda4ff" d="M 22.375 18.109375 L 22.785156 14.046875 L 23.441406 14.335938 L 24.640625 15.515625 L 24.359375 18.25 L 22.375 18.109375 " fill-opacity="1" fill-rule="nonzero"/><path fill="#000000" d="M 23.160156 15.648438 C 23.148438 15.648438 23.140625 15.644531 23.132812 15.644531 C 23.089844 15.628906 23.070312 15.582031 23.082031 15.542969 L 23.101562 15.492188 C 23.152344 15.335938 23.1875 15.175781 23.203125 15.011719 L 23.21875 14.84375 C 23.234375 14.679688 23.246094 14.523438 23.25 14.492188 C 23.269531 14.296875 23.285156 14.128906 23.300781 13.984375 C 23.351562 13.496094 23.378906 13.226562 23.324219 12.835938 L 23.3125 12.769531 C 23.296875 12.65625 23.332031 12.546875 23.410156 12.46875 C 23.488281 12.386719 23.59375 12.347656 23.703125 12.355469 L 23.730469 12.359375 C 23.894531 12.375 24.027344 12.503906 24.050781 12.667969 L 24.058594 12.722656 C 24.097656 12.980469 24.136719 13.246094 24.097656 13.636719 L 24.0625 14.011719 C 24.035156 14.335938 24.113281 14.664062 24.289062 14.9375 L 24.441406 15.175781 C 24.464844 15.214844 24.453125 15.265625 24.417969 15.289062 C 24.378906 15.3125 24.328125 15.300781 24.304688 15.265625 L 24.152344 15.023438 C 23.957031 14.722656 23.871094 14.355469 23.90625 13.996094 L 23.941406 13.625 C 23.976562 13.25 23.9375 13.007812 23.902344 12.746094 L 23.894531 12.691406 C 23.878906 12.597656 23.804688 12.527344 23.714844 12.519531 L 23.691406 12.515625 C 23.628906 12.511719 23.570312 12.535156 23.527344 12.578125 C 23.484375 12.625 23.464844 12.683594 23.472656 12.746094 L 23.480469 12.8125 C 23.542969 13.226562 23.511719 13.515625 23.460938 14 C 23.445312 14.144531 23.425781 14.3125 23.410156 14.507812 C 23.40625 14.535156 23.390625 14.695312 23.375 14.859375 L 23.359375 15.027344 C 23.34375 15.203125 23.308594 15.375 23.25 15.542969 L 23.234375 15.59375 C 23.222656 15.625 23.191406 15.648438 23.160156 15.648438 " fill-opacity="1" fill-rule="nonzero"/><path fill="#000000" d="M 22.578125 15.59375 C 22.570312 15.59375 22.5625 15.589844 22.554688 15.589844 C 22.511719 15.574219 22.492188 15.527344 22.503906 15.488281 L 22.523438 15.425781 C 22.574219 15.273438 22.605469 15.113281 22.617188 14.953125 L 22.695312 14.082031 C 22.710938 13.867188 22.773438 13.664062 22.878906 13.476562 L 22.945312 13.359375 C 23.046875 13.183594 23.238281 13.082031 23.4375 13.097656 C 23.484375 13.101562 23.515625 13.140625 23.511719 13.1875 C 23.507812 13.230469 23.472656 13.265625 23.425781 13.257812 C 23.285156 13.246094 23.15625 13.316406 23.085938 13.4375 L 23.019531 13.554688 C 22.925781 13.722656 22.871094 13.902344 22.851562 14.09375 L 22.777344 14.964844 C 22.765625 15.140625 22.730469 15.308594 22.675781 15.476562 L 22.65625 15.535156 C 22.644531 15.570312 22.613281 15.59375 22.578125 15.59375 " fill-opacity="1" fill-rule="nonzero"/><path fill="#000000" d="M 22.378906 18.1875 C 22.371094 18.1875 22.367188 18.1875 22.363281 18.1875 C 22.320312 18.179688 22.289062 18.140625 22.296875 18.09375 C 22.304688 18.050781 22.316406 17.988281 22.332031 17.917969 C 22.390625 17.636719 22.5 17.113281 22.394531 16.898438 C 22.125 16.519531 21.984375 16.15625 21.957031 15.761719 L 21.957031 15.75 C 21.960938 15.679688 21.964844 15.609375 21.96875 15.53125 C 22 14.925781 22.042969 14.097656 22.765625 13.957031 C 22.808594 13.945312 22.851562 13.976562 22.859375 14.019531 C 22.867188 14.0625 22.839844 14.105469 22.796875 14.113281 C 22.195312 14.230469 22.160156 14.957031 22.128906 15.539062 C 22.125 15.613281 22.121094 15.6875 22.117188 15.753906 C 22.144531 16.121094 22.273438 16.453125 22.527344 16.808594 L 22.535156 16.820312 C 22.667969 17.085938 22.5625 17.605469 22.488281 17.953125 C 22.476562 18.019531 22.464844 18.078125 22.457031 18.121094 C 22.449219 18.160156 22.414062 18.1875 22.378906 18.1875 " fill-opacity="1" fill-rule="nonzero"/><path fill="#000000" d="M 24.359375 18.332031 C 24.359375 18.332031 24.355469 18.328125 24.355469 18.328125 C 24.3125 18.328125 24.277344 18.289062 24.28125 18.246094 C 24.285156 18.195312 24.285156 18.125 24.289062 18.046875 C 24.308594 17.714844 24.332031 17.207031 24.398438 16.976562 C 24.441406 16.820312 24.539062 16.71875 24.636719 16.621094 C 24.722656 16.53125 24.800781 16.449219 24.835938 16.332031 C 25 15.730469 24.980469 15.144531 24.960938 14.53125 C 24.957031 14.320312 24.949219 14.105469 24.949219 13.886719 C 24.953125 13.871094 24.953125 13.839844 24.90625 13.8125 C 24.84375 13.773438 24.726562 13.761719 24.636719 13.808594 C 24.59375 13.851562 24.546875 13.9375 24.539062 14.019531 C 24.503906 14.515625 24.464844 15.078125 24.417969 15.609375 C 24.414062 15.65625 24.375 15.6875 24.332031 15.683594 C 24.289062 15.679688 24.253906 15.640625 24.257812 15.597656 C 24.304688 15.066406 24.34375 14.503906 24.378906 14.007812 C 24.390625 13.871094 24.46875 13.746094 24.539062 13.683594 L 24.550781 13.671875 C 24.683594 13.597656 24.871094 13.597656 24.992188 13.675781 C 25.074219 13.726562 25.117188 13.804688 25.109375 13.890625 C 25.109375 14.101562 25.117188 14.316406 25.121094 14.523438 C 25.144531 15.152344 25.160156 15.746094 24.988281 16.375 C 24.945312 16.535156 24.847656 16.636719 24.75 16.734375 C 24.664062 16.820312 24.582031 16.902344 24.550781 17.019531 C 24.492188 17.234375 24.464844 17.746094 24.449219 18.054688 C 24.445312 18.136719 24.441406 18.203125 24.441406 18.253906 C 24.4375 18.296875 24.402344 18.332031 24.359375 18.332031 " fill-opacity="1" fill-rule="nonzero"/><path fill="#fda4ff" d="M 32.882812 13.730469 C 32.871094 13.644531 32.65625 13.160156 32.914062 12.570312 L 33.015625 12.335938 C 33.128906 12.074219 33.253906 12.0625 33.367188 11.800781 L 33.835938 10.722656 C 33.902344 10.566406 34.085938 10.496094 34.242188 10.5625 L 34.265625 10.574219 C 34.421875 10.640625 34.492188 10.824219 34.425781 10.980469 L 33.171875 13.859375 L 32.882812 13.730469 " fill-opacity="1" fill-rule="nonzero"/><path fill="#fda4ff" d="M 33.320312 13.382812 L 34.609375 12.679688 C 34.9375 12.503906 35.195312 12.21875 35.339844 11.875 C 35.628906 11.210938 35.734375 10.898438 36.046875 10.484375 L 36.089844 10.425781 C 36.207031 10.269531 36.148438 10.042969 35.96875 9.964844 L 35.945312 9.957031 C 35.816406 9.898438 35.667969 9.9375 35.582031 10.050781 C 35.398438 10.292969 35.21875 10.519531 35.042969 10.925781 L 34.882812 11.296875 C 34.734375 11.636719 34.476562 11.917969 34.148438 12.097656 L 33.796875 12.285156 L 33.320312 13.382812 " fill-opacity="1" fill-rule="nonzero"/><path fill="#fda4ff" d="M 35.152344 13.882812 L 35.980469 12.011719 C 36.070312 11.8125 36.113281 11.597656 36.113281 11.378906 L 36.113281 11.230469 C 36.109375 10.972656 35.898438 10.765625 35.640625 10.765625 C 35.542969 10.769531 35.464844 10.847656 35.46875 10.941406 L 35.46875 11.167969 C 35.472656 11.433594 35.417969 11.699219 35.308594 11.945312 L 34.570312 13.625 L 35.152344 13.882812 " fill-opacity="1" fill-rule="nonzero"/><path fill="#fda4ff" d="M 35.328125 14.472656 C 35.574219 14.292969 35.773438 14.046875 35.898438 13.765625 L 36.167969 13.167969 C 36.257812 12.96875 36.300781 12.753906 36.300781 12.535156 L 36.296875 12.386719 C 36.296875 12.128906 36.085938 11.921875 35.828125 11.921875 C 35.730469 11.925781 35.652344 12.003906 35.652344 12.101562 L 35.660156 12.730469 L 34.699219 14.933594 L 35.328125 14.472656 " fill-opacity="1" fill-rule="nonzero"/><path fill="#fda4ff" d="M 34.257812 16.015625 L 35.992188 11.964844 L 35.21875 11.894531 L 33.472656 12.378906 L 32.3125 15.109375 L 34.257812 16.015625 " fill-opacity="1" fill-rule="nonzero"/><path fill="#000000" d="M 34.847656 13.285156 C 34.839844 13.285156 34.835938 13.285156 34.832031 13.285156 C 34.789062 13.277344 34.757812 13.234375 34.769531 13.191406 L 34.777344 13.136719 C 34.8125 12.949219 34.867188 12.765625 34.941406 12.589844 L 34.949219 12.574219 C 35.039062 12.367188 35.152344 12.113281 35.167969 12.074219 C 35.253906 11.882812 35.324219 11.714844 35.386719 11.570312 C 35.589844 11.085938 35.710938 10.796875 35.984375 10.4375 L 36.027344 10.378906 C 36.066406 10.324219 36.082031 10.253906 36.0625 10.1875 C 36.046875 10.121094 36 10.066406 35.9375 10.039062 L 35.914062 10.027344 C 35.820312 9.988281 35.710938 10.015625 35.648438 10.097656 L 35.609375 10.148438 C 35.4375 10.375 35.277344 10.585938 35.117188 10.957031 L 34.953125 11.328125 C 34.800781 11.683594 34.527344 11.980469 34.1875 12.167969 L 33.917969 12.3125 C 33.878906 12.332031 33.832031 12.320312 33.808594 12.28125 C 33.789062 12.242188 33.800781 12.191406 33.839844 12.171875 L 34.109375 12.023438 C 34.421875 11.855469 34.667969 11.585938 34.808594 11.261719 L 34.96875 10.894531 C 35.136719 10.503906 35.3125 10.273438 35.480469 10.050781 L 35.519531 10.003906 C 35.625 9.859375 35.816406 9.808594 35.976562 9.882812 L 36 9.890625 C 36.109375 9.9375 36.1875 10.03125 36.21875 10.148438 C 36.25 10.261719 36.226562 10.382812 36.152344 10.476562 L 36.109375 10.535156 C 35.851562 10.875 35.738281 11.144531 35.53125 11.632812 C 35.46875 11.777344 35.398438 11.945312 35.3125 12.140625 C 35.296875 12.175781 35.1875 12.429688 35.097656 12.636719 L 35.089844 12.65625 C 35.019531 12.816406 34.96875 12.988281 34.933594 13.164062 L 34.925781 13.21875 C 34.917969 13.257812 34.882812 13.285156 34.847656 13.285156 " fill-opacity="1" fill-rule="nonzero"/><path fill="#000000" d="M 35.421875 13.539062 C 35.417969 13.539062 35.410156 13.535156 35.40625 13.535156 C 35.363281 13.527344 35.335938 13.484375 35.34375 13.441406 L 35.355469 13.375 C 35.390625 13.191406 35.449219 13.011719 35.523438 12.839844 L 35.910156 11.976562 C 35.992188 11.789062 36.035156 11.585938 36.03125 11.378906 L 36.03125 11.230469 C 36.03125 11.078125 35.941406 10.941406 35.800781 10.878906 C 35.761719 10.863281 35.742188 10.816406 35.761719 10.773438 C 35.777344 10.734375 35.824219 10.714844 35.867188 10.734375 C 36.0625 10.820312 36.191406 11.015625 36.191406 11.230469 L 36.191406 11.378906 C 36.195312 11.609375 36.148438 11.832031 36.054688 12.042969 L 35.671875 12.90625 C 35.601562 13.066406 35.546875 13.234375 35.515625 13.40625 L 35.5 13.472656 C 35.492188 13.511719 35.460938 13.539062 35.421875 13.539062 " fill-opacity="1" fill-rule="nonzero"/><path fill="#000000" d="M 34.199219 16.558594 C 34.191406 16.558594 34.183594 16.558594 34.175781 16.554688 C 34.132812 16.539062 34.109375 16.492188 34.125 16.453125 C 34.144531 16.394531 34.175781 16.273438 34.214844 16.136719 C 34.386719 15.480469 34.558594 14.878906 34.785156 14.722656 L 34.796875 14.714844 C 35.222656 14.515625 35.523438 14.265625 35.738281 13.933594 C 35.769531 13.867188 35.804688 13.796875 35.839844 13.722656 C 36.117188 13.15625 36.460938 12.445312 35.949219 12.015625 C 35.917969 11.988281 35.910156 11.9375 35.941406 11.90625 C 35.96875 11.871094 36.019531 11.867188 36.054688 11.894531 C 36.660156 12.402344 36.269531 13.207031 35.984375 13.792969 C 35.949219 13.867188 35.914062 13.9375 35.882812 14.007812 L 35.875 14.015625 C 35.644531 14.375 35.324219 14.640625 34.871094 14.859375 C 34.675781 15 34.476562 15.765625 34.367188 16.175781 C 34.328125 16.324219 34.300781 16.441406 34.277344 16.503906 C 34.265625 16.539062 34.234375 16.558594 34.199219 16.558594 " fill-opacity="1" fill-rule="nonzero"/><path fill="#000000" d="M 32.109375 15.554688 C 32.097656 15.554688 32.085938 15.550781 32.074219 15.546875 C 32.035156 15.527344 32.015625 15.480469 32.035156 15.441406 C 32.066406 15.375 32.125 15.261719 32.195312 15.125 C 32.394531 14.726562 32.726562 14.066406 32.78125 13.851562 C 32.8125 13.71875 32.777344 13.597656 32.742188 13.472656 C 32.703125 13.328125 32.660156 13.179688 32.703125 13.011719 C 32.867188 12.328125 33.191406 11.777344 33.539062 11.195312 C 33.65625 11 33.773438 10.800781 33.882812 10.597656 C 33.917969 10.519531 34 10.46875 34.097656 10.464844 C 34.253906 10.457031 34.429688 10.550781 34.511719 10.6875 L 34.519531 10.703125 C 34.554688 10.796875 34.5625 10.953125 34.5 11.089844 C 34.273438 11.578125 34.015625 12.132812 33.785156 12.652344 C 33.765625 12.695312 33.71875 12.714844 33.679688 12.695312 C 33.640625 12.675781 33.621094 12.628906 33.640625 12.589844 C 33.871094 12.066406 34.128906 11.511719 34.355469 11.023438 C 34.394531 10.9375 34.390625 10.828125 34.371094 10.765625 C 34.308594 10.671875 34.191406 10.621094 34.109375 10.625 C 34.066406 10.625 34.039062 10.640625 34.027344 10.667969 C 33.914062 10.878906 33.792969 11.082031 33.675781 11.277344 C 33.335938 11.847656 33.015625 12.390625 32.855469 13.046875 C 32.824219 13.179688 32.859375 13.300781 32.894531 13.425781 C 32.933594 13.570312 32.976562 13.71875 32.933594 13.886719 C 32.878906 14.121094 32.550781 14.769531 32.335938 15.195312 C 32.265625 15.332031 32.210938 15.445312 32.179688 15.507812 C 32.167969 15.539062 32.136719 15.554688 32.109375 15.554688 " fill-opacity="1" fill-rule="nonzero"/><path fill="#000000" d="M 34.203125 16.476562 L 32.109375 15.476562 L 32.574219 14.570312 L 34.507812 15.433594 L 34.203125 16.476562 " fill-opacity="1" fill-rule="nonzero"/><path fill="#fed101" d="M 31.808594 23.683594 L 27.570312 22.519531 L 30.648438 16.078125 C 30.929688 15.488281 31.632812 15.238281 32.21875 15.519531 L 34.003906 16.378906 C 34.589844 16.660156 34.839844 17.367188 34.558594 17.953125 L 31.808594 23.683594 " fill-opacity="1" fill-rule="nonzero"/><path fill="#000000" d="M 27.6875 22.46875 L 31.765625 23.589844 L 34.488281 17.917969 C 34.746094 17.371094 34.515625 16.710938 33.96875 16.449219 L 32.183594 15.59375 C 31.636719 15.332031 30.980469 15.5625 30.71875 16.113281 Z M 31.808594 23.761719 C 31.804688 23.761719 31.796875 23.761719 31.789062 23.761719 L 27.550781 22.597656 C 27.527344 22.589844 27.507812 22.574219 27.5 22.554688 C 27.488281 22.53125 27.488281 22.507812 27.5 22.484375 L 30.574219 16.042969 C 30.875 15.414062 31.628906 15.148438 32.253906 15.449219 L 34.039062 16.304688 C 34.664062 16.605469 34.929688 17.363281 34.628906 17.988281 L 31.882812 23.71875 C 31.867188 23.746094 31.839844 23.761719 31.808594 23.761719 " fill-opacity="1" fill-rule="nonzero"/><path fill="#fcb503" d="M 21.617188 17.273438 C 21.617188 17.917969 20.847656 18.4375 19.898438 18.4375 C 18.945312 18.4375 18.175781 17.917969 18.175781 17.273438 C 18.175781 16.632812 18.945312 16.113281 19.898438 16.113281 C 20.847656 16.113281 21.617188 16.632812 21.617188 17.273438 " fill-opacity="1" fill-rule="nonzero"/><path fill="#fed101" d="M 26.046875 17.757812 C 25.21875 17.121094 24.207031 16.777344 23.167969 16.777344 L 17.199219 16.792969 C 14.980469 16.796875 13.308594 18.886719 13.859375 21.042969 C 13.871094 21.085938 13.882812 21.132812 13.898438 21.179688 L 15.402344 26.117188 L 15.402344 27.242188 L 24.792969 27.242188 L 24.792969 22.277344 L 27.714844 24.53125 C 29.105469 25.601562 31.125 25.121094 31.882812 23.539062 L 32.332031 22.605469 L 26.046875 17.757812 " fill-opacity="1" fill-rule="nonzero"/><path fill="#000000" d="M 30.628906 21.375 C 30.613281 21.375 30.597656 21.367188 30.582031 21.355469 L 25.996094 17.820312 C 25.191406 17.199219 24.191406 16.859375 23.179688 16.859375 C 23.175781 16.859375 23.171875 16.859375 23.167969 16.859375 L 21.539062 16.863281 C 21.496094 16.863281 21.460938 16.828125 21.460938 16.78125 C 21.460938 16.738281 21.496094 16.703125 21.539062 16.703125 L 23.167969 16.699219 C 23.171875 16.699219 23.175781 16.699219 23.179688 16.699219 C 24.226562 16.699219 25.261719 17.050781 26.09375 17.695312 L 30.679688 21.230469 C 30.714844 21.257812 30.71875 21.308594 30.695312 21.34375 C 30.679688 21.363281 30.652344 21.375 30.628906 21.375 " fill-opacity="1" fill-rule="nonzero"/><path fill="#000000" d="M 29.394531 25.1875 C 28.773438 25.1875 28.167969 24.984375 27.667969 24.59375 L 24.746094 22.34375 C 24.710938 22.316406 24.703125 22.265625 24.730469 22.230469 C 24.757812 22.195312 24.808594 22.1875 24.84375 22.214844 L 27.765625 24.46875 C 28.40625 24.964844 29.226562 25.140625 30.015625 24.953125 C 30.804688 24.765625 31.460938 24.238281 31.8125 23.503906 L 32.261719 22.570312 C 32.28125 22.53125 32.328125 22.515625 32.367188 22.535156 C 32.40625 22.554688 32.421875 22.601562 32.40625 22.640625 L 31.957031 23.574219 C 31.582031 24.351562 30.890625 24.910156 30.054688 25.109375 C 29.835938 25.160156 29.613281 25.1875 29.394531 25.1875 " fill-opacity="1" fill-rule="nonzero"/><path fill="#000000" d="M 15.402344 26.199219 C 15.359375 26.199219 15.324219 26.160156 15.324219 26.117188 L 15.324219 19.675781 C 15.324219 19.628906 15.359375 19.59375 15.402344 19.59375 C 15.445312 19.59375 15.484375 19.628906 15.484375 19.675781 L 15.484375 26.117188 C 15.484375 26.160156 15.445312 26.199219 15.402344 26.199219 " fill-opacity="1" fill-rule="nonzero"/><path fill="#000000" d="M 24.792969 22.359375 C 24.75 22.359375 24.714844 22.324219 24.714844 22.277344 L 24.714844 19.15625 C 24.714844 19.109375 24.75 19.074219 24.792969 19.074219 C 24.839844 19.074219 24.875 19.109375 24.875 19.15625 L 24.875 22.277344 C 24.875 22.324219 24.839844 22.359375 24.792969 22.359375 " fill-opacity="1" fill-rule="nonzero"/><path fill="#000000" d="M 27.714844 24.53125 L 24.792969 22.277344 L 24.792969 20.410156 Z M 27.714844 24.53125 " fill-opacity="1" fill-rule="nonzero"/><g clip-path="url(#4f992860fa)"><path fill="#fed101" d="M 58.71875 66.617188 L 51.214844 66.617188 C 51.234375 64.617188 51.394531 62.398438 51.71875 60.074219 C 52.863281 51.828125 55.589844 45.390625 57.808594 45.703125 C 60.027344 46.011719 60.898438 52.949219 59.753906 61.195312 C 59.488281 63.121094 59.132812 64.949219 58.71875 66.617188 " fill-opacity="1" fill-rule="nonzero"/></g><g clip-path="url(#1d11b17dce)"><path fill="#000000" d="M 58.3125 58.800781 L 60.035156 58.800781 C 59.960938 59.582031 59.867188 60.382812 59.753906 61.195312 C 59.484375 63.121094 59.132812 64.949219 58.71875 66.617188 L 57 66.617188 C 57.410156 64.949219 57.765625 63.121094 58.03125 61.195312 C 58.144531 60.382812 58.238281 59.582031 58.3125 58.800781 " fill-opacity="1" fill-rule="nonzero"/></g><g clip-path="url(#2de7ac9a4b)"><path fill="#fed101" d="M 60.308594 66.617188 C 59.882812 65.132812 59.503906 63.53125 59.1875 61.847656 C 57.648438 53.664062 58.1875 46.695312 60.386719 46.277344 C 62.589844 45.863281 65.621094 52.15625 67.160156 60.339844 C 67.578125 62.554688 67.84375 64.683594 67.964844 66.617188 L 60.308594 66.617188 " fill-opacity="1" fill-rule="nonzero"/></g><g clip-path="url(#1a4ef79e6e)"><path fill="#000000" d="M 67.960938 66.695312 C 67.921875 66.695312 67.886719 66.664062 67.882812 66.621094 C 67.757812 64.625 67.488281 62.515625 67.082031 60.355469 C 66.339844 56.402344 65.226562 52.769531 63.949219 50.121094 C 62.707031 47.539062 61.414062 46.167969 60.402344 46.355469 C 60.359375 46.367188 60.316406 46.335938 60.308594 46.292969 C 60.300781 46.25 60.328125 46.207031 60.371094 46.199219 C 61.476562 45.992188 62.796875 47.359375 64.09375 50.050781 C 65.378906 52.710938 66.492188 56.359375 67.238281 60.324219 C 67.648438 62.492188 67.917969 64.609375 68.042969 66.609375 C 68.046875 66.65625 68.011719 66.691406 67.96875 66.695312 C 67.964844 66.695312 67.964844 66.695312 67.960938 66.695312 " fill-opacity="1" fill-rule="nonzero"/></g><g clip-path="url(#08707b9a63)"><path fill="#000000" d="M 60.308594 66.695312 C 60.273438 66.695312 60.238281 66.671875 60.230469 66.636719 C 59.796875 65.117188 59.417969 63.511719 59.109375 61.863281 C 58.921875 60.875 58.765625 59.882812 58.636719 58.914062 L 57.886719 58.914062 C 57.84375 58.914062 57.804688 58.875 57.804688 58.832031 C 57.804688 58.789062 57.84375 58.75 57.886719 58.75 L 58.703125 58.75 C 58.746094 58.75 58.777344 58.78125 58.785156 58.820312 C 58.914062 59.8125 59.078125 60.824219 59.265625 61.832031 C 59.574219 63.476562 59.953125 65.078125 60.382812 66.59375 C 60.394531 66.636719 60.371094 66.679688 60.328125 66.691406 C 60.320312 66.695312 60.3125 66.695312 60.308594 66.695312 " fill-opacity="1" fill-rule="nonzero"/></g><path fill="#955b50" d="M 46.183594 41.519531 L 45.796875 40.101562 C 45.796875 40.101562 46.425781 39.378906 45.878906 38.480469 C 45.75 38.269531 45.453125 37.867188 45.195312 37.527344 C 44.90625 37.140625 44.667969 36.71875 44.484375 36.273438 L 44.277344 35.757812 C 44.175781 35.5 43.886719 35.371094 43.625 35.464844 L 43.570312 35.484375 C 43.304688 35.578125 43.164062 35.867188 43.25 36.136719 L 43.820312 37.863281 L 42.941406 37.863281 C 42.488281 37.863281 42.046875 37.738281 41.664062 37.5 L 40.09375 36.570312 C 39.835938 36.414062 39.5 36.476562 39.3125 36.714844 L 39.28125 36.753906 L 38.488281 36.171875 C 38.25 36.007812 37.925781 36.0625 37.75 36.292969 C 37.578125 36.519531 37.613281 36.84375 37.828125 37.027344 L 43.097656 41.628906 L 43.699219 42.671875 L 46.183594 41.519531 " fill-opacity="1" fill-rule="nonzero"/><path fill="#000000" d="M 43.214844 41.816406 C 43.195312 41.816406 43.175781 41.808594 43.160156 41.796875 L 37.773438 37.089844 C 37.53125 36.875 37.492188 36.503906 37.6875 36.246094 C 37.886719 35.980469 38.257812 35.917969 38.535156 36.105469 L 39.265625 36.644531 C 39.480469 36.394531 39.851562 36.332031 40.136719 36.5 L 41.703125 37.429688 C 42.078125 37.660156 42.503906 37.78125 42.941406 37.78125 L 43.710938 37.78125 L 43.175781 36.160156 C 43.074219 35.855469 43.238281 35.515625 43.542969 35.40625 L 43.597656 35.386719 C 43.902344 35.28125 44.230469 35.429688 44.351562 35.726562 L 44.558594 36.242188 C 44.738281 36.683594 44.976562 37.101562 45.261719 37.480469 C 45.5 37.796875 45.816406 38.222656 45.945312 38.4375 C 46.519531 39.375 45.863281 40.144531 45.855469 40.152344 C 45.828125 40.1875 45.777344 40.191406 45.742188 40.160156 C 45.710938 40.132812 45.707031 40.082031 45.734375 40.046875 C 45.761719 40.019531 46.320312 39.355469 45.8125 38.523438 C 45.707031 38.355469 45.476562 38.027344 45.132812 37.578125 C 44.839844 37.1875 44.597656 36.757812 44.410156 36.300781 L 44.203125 35.789062 C 44.117188 35.570312 43.875 35.460938 43.652344 35.539062 L 43.59375 35.558594 C 43.375 35.636719 43.253906 35.886719 43.328125 36.109375 L 43.898438 37.835938 C 43.90625 37.863281 43.902344 37.890625 43.886719 37.910156 C 43.871094 37.929688 43.847656 37.945312 43.820312 37.945312 L 42.941406 37.945312 C 42.476562 37.945312 42.019531 37.8125 41.621094 37.566406 L 40.054688 36.636719 C 39.828125 36.503906 39.539062 36.558594 39.375 36.765625 L 39.34375 36.804688 C 39.316406 36.839844 39.269531 36.84375 39.234375 36.820312 L 38.441406 36.238281 C 38.238281 36.097656 37.964844 36.144531 37.816406 36.34375 C 37.667969 36.535156 37.699219 36.808594 37.878906 36.96875 L 43.265625 41.675781 C 43.300781 41.703125 43.304688 41.753906 43.273438 41.789062 C 43.257812 41.804688 43.234375 41.816406 43.214844 41.816406 " fill-opacity="1" fill-rule="nonzero"/><path fill="#955b50" d="M 42.683594 39.570312 L 42.308594 39.199219 C 42.070312 38.964844 41.902344 38.664062 41.832031 38.335938 L 41.4375 36.542969 C 41.378906 36.285156 41.125 36.121094 40.867188 36.175781 C 40.621094 36.226562 40.457031 36.457031 40.488281 36.707031 L 40.734375 38.75 C 40.753906 38.914062 40.808594 39.074219 40.890625 39.21875 L 41.332031 39.996094 L 42.683594 39.570312 " fill-opacity="1" fill-rule="nonzero"/><path fill="#955b50" d="M 41.722656 38.558594 L 41.292969 38.253906 C 41.015625 38.0625 40.804688 37.792969 40.679688 37.484375 L 39.992188 35.78125 C 39.894531 35.535156 39.617188 35.414062 39.375 35.511719 C 39.140625 35.601562 39.015625 35.855469 39.085938 36.097656 L 39.664062 38.070312 C 39.710938 38.230469 39.789062 38.378906 39.894531 38.507812 L 40.460938 39.199219 L 41.722656 38.558594 " fill-opacity="1" fill-rule="nonzero"/><path fill="#000000" d="M 39.894531 38.585938 C 39.871094 38.585938 39.847656 38.578125 39.832031 38.558594 C 39.722656 38.421875 39.636719 38.265625 39.589844 38.09375 L 39.007812 36.121094 C 38.925781 35.839844 39.074219 35.539062 39.34375 35.433594 C 39.628906 35.324219 39.953125 35.464844 40.066406 35.75 L 40.589844 37.0625 C 40.605469 37.101562 40.585938 37.148438 40.542969 37.164062 C 40.503906 37.179688 40.457031 37.160156 40.441406 37.121094 L 39.917969 35.808594 C 39.839844 35.605469 39.605469 35.507812 39.402344 35.585938 C 39.207031 35.660156 39.101562 35.875 39.160156 36.074219 L 39.742188 38.046875 C 39.785156 38.199219 39.859375 38.335938 39.957031 38.457031 C 39.984375 38.492188 39.980469 38.542969 39.945312 38.570312 C 39.929688 38.582031 39.914062 38.585938 39.894531 38.585938 " fill-opacity="1" fill-rule="nonzero"/><path fill="#000000" d="M 43.132812 39.976562 C 43.113281 39.976562 43.097656 39.972656 43.082031 39.960938 L 42.257812 39.261719 C 42 39.011719 41.828125 38.699219 41.753906 38.355469 L 41.359375 36.5625 C 41.3125 36.347656 41.097656 36.210938 40.882812 36.253906 C 40.679688 36.296875 40.542969 36.492188 40.566406 36.695312 L 40.734375 38.484375 C 40.765625 38.855469 40.945312 39.15625 41.132812 39.480469 L 41.144531 39.5 C 41.167969 39.539062 41.152344 39.589844 41.113281 39.609375 C 41.078125 39.632812 41.027344 39.621094 41.003906 39.582031 L 40.992188 39.558594 C 40.796875 39.222656 40.609375 38.902344 40.574219 38.5 L 40.40625 36.714844 C 40.371094 36.425781 40.566406 36.15625 40.851562 36.097656 C 41.152344 36.035156 41.449219 36.226562 41.515625 36.527344 L 41.910156 38.320312 C 41.980469 38.632812 42.136719 38.917969 42.363281 39.140625 L 43.183594 39.835938 C 43.21875 39.867188 43.222656 39.917969 43.195312 39.949219 C 43.179688 39.96875 43.15625 39.976562 43.132812 39.976562 " fill-opacity="1" fill-rule="nonzero"/><path fill="#000000" d="M 44.078125 38.703125 C 44.042969 38.703125 44.011719 38.679688 44 38.648438 L 43.746094 37.890625 C 43.730469 37.847656 43.753906 37.800781 43.796875 37.785156 C 43.835938 37.773438 43.882812 37.796875 43.898438 37.835938 L 44.152344 38.59375 C 44.167969 38.636719 44.144531 38.683594 44.101562 38.695312 C 44.09375 38.699219 44.085938 38.703125 44.078125 38.703125 " fill-opacity="1" fill-rule="nonzero"/><path fill="#955b50" d="M 46.101562 40.996094 L 47.75 47.105469 L 51.011719 43.304688 L 53.515625 47.171875 L 49.53125 51.992188 C 47.734375 54.167969 44.207031 53.082031 43.9375 50.269531 L 43.214844 41.644531 L 46.101562 40.996094 " fill-opacity="1" fill-rule="nonzero"/><path fill="#000000" d="M 47.167969 53.25 C 46.410156 53.25 45.628906 52.992188 44.976562 52.507812 C 44.5625 52.199219 44.214844 51.636719 44.09375 51.355469 C 43.992188 51.117188 43.9375 50.824219 43.890625 50.566406 C 43.878906 50.503906 43.867188 50.445312 43.855469 50.386719 C 43.855469 50.382812 43.855469 50.382812 43.855469 50.378906 C 43.726562 48.996094 43.625 47.714844 43.527344 46.476562 C 43.402344 44.882812 43.28125 43.378906 43.113281 41.679688 C 43.109375 41.636719 43.140625 41.597656 43.183594 41.589844 C 43.230469 41.589844 43.269531 41.621094 43.273438 41.664062 C 43.441406 43.363281 43.5625 44.871094 43.6875 46.464844 C 43.785156 47.703125 43.886719 48.980469 44.015625 50.359375 C 44.027344 50.414062 44.035156 50.476562 44.046875 50.539062 C 44.09375 50.789062 44.148438 51.070312 44.242188 51.289062 C 44.355469 51.558594 44.683594 52.085938 45.074219 52.378906 C 45.972656 53.046875 47.128906 53.261719 48.09375 52.941406 C 48.152344 52.914062 48.222656 52.886719 48.292969 52.855469 C 48.363281 52.828125 48.433594 52.800781 48.488281 52.773438 C 48.875 52.550781 49.214844 52.265625 49.496094 51.929688 C 50.414062 50.820312 51.292969 49.738281 52.148438 48.695312 C 52.566406 48.183594 52.988281 47.667969 53.414062 47.144531 C 53.210938 46.859375 53.027344 46.558594 52.847656 46.269531 C 52.632812 45.921875 52.433594 45.59375 52.199219 45.285156 L 51.003906 43.4375 L 47.808594 47.15625 C 47.789062 47.179688 47.757812 47.191406 47.730469 47.183594 C 47.699219 47.175781 47.675781 47.152344 47.671875 47.121094 C 47.664062 47.089844 47.574219 46.792969 47.457031 46.378906 C 47.039062 44.964844 46.066406 41.644531 45.71875 40.117188 C 45.707031 40.074219 45.734375 40.03125 45.777344 40.023438 C 45.820312 40.011719 45.863281 40.039062 45.875 40.082031 C 46.222656 41.601562 47.195312 44.917969 47.609375 46.335938 C 47.695312 46.625 47.75 46.820312 47.785156 46.9375 L 50.953125 43.25 C 50.96875 43.230469 50.992188 43.222656 51.019531 43.222656 C 51.042969 43.226562 51.066406 43.238281 51.082031 43.261719 L 52.332031 45.195312 C 52.566406 45.5 52.777344 45.847656 52.984375 46.183594 C 53.171875 46.488281 53.363281 46.804688 53.582031 47.101562 C 53.601562 47.132812 53.601562 47.171875 53.578125 47.199219 C 53.136719 47.738281 52.703125 48.269531 52.269531 48.796875 C 51.417969 49.839844 50.539062 50.921875 49.617188 52.035156 C 49.328125 52.382812 48.972656 52.679688 48.5625 52.914062 C 48.5 52.949219 48.425781 52.976562 48.351562 53.007812 C 48.285156 53.035156 48.214844 53.0625 48.160156 53.089844 C 48.15625 53.089844 48.152344 53.09375 48.148438 53.09375 C 47.835938 53.199219 47.503906 53.25 47.167969 53.25 " fill-opacity="1" fill-rule="nonzero"/><path fill="#000000" d="M 53.011719 47.765625 L 49.863281 44.644531 L 48.851562 45.820312 L 50.933594 50.117188 L 53.011719 47.765625 " fill-opacity="1" fill-rule="nonzero"/><path fill="#000000" d="M 48.367188 49.753906 C 48.328125 49.753906 48.296875 49.730469 48.289062 49.691406 L 47.671875 47.125 C 47.660156 47.082031 47.6875 47.039062 47.730469 47.027344 C 47.773438 47.015625 47.816406 47.042969 47.828125 47.085938 L 48.441406 49.65625 C 48.453125 49.699219 48.425781 49.742188 48.382812 49.75 C 48.378906 49.753906 48.371094 49.753906 48.367188 49.753906 " fill-opacity="1" fill-rule="nonzero"/><path fill="#8c7bff" d="M 48.203125 43.871094 L 50.304688 42.035156 C 51.625 40.878906 53.320312 40.242188 55.074219 40.242188 L 62.765625 40.238281 C 64.90625 40.238281 66.960938 41.089844 68.476562 42.601562 L 70.636719 44.757812 L 66.734375 48.667969 L 66.109375 48.042969 L 66.109375 50.980469 L 52.355469 50.980469 L 52.355469 47.578125 L 51.824219 48.042969 L 48.203125 43.871094 " fill-opacity="1" fill-rule="nonzero"/><path fill="#6155ff" d="M 58.136719 43.234375 L 60.339844 46.128906 L 61.640625 40.160156 L 59.695312 40.160156 L 58.136719 43.234375 " fill-opacity="1" fill-rule="nonzero"/><path fill="#000000" d="M 51.839844 48.503906 C 51.835938 48.503906 51.828125 48.503906 51.820312 48.5 C 51.777344 48.488281 51.753906 48.445312 51.765625 48.402344 L 53.148438 43.332031 C 53.160156 43.289062 53.207031 43.265625 53.25 43.277344 C 53.292969 43.289062 53.316406 43.332031 53.304688 43.375 L 51.917969 48.445312 C 51.910156 48.480469 51.878906 48.503906 51.839844 48.503906 " fill-opacity="1" fill-rule="nonzero"/><path fill="#000000" d="M 66.109375 48.042969 L 66.109375 50.347656 L 63.539062 45.460938 L 66.109375 48.042969 " fill-opacity="1" fill-rule="nonzero"/><path fill="#6155ff" d="M 55.332031 45.535156 L 58.136719 43.234375 L 58.136719 40.160156 L 56.1875 40.160156 L 55.332031 45.535156 " fill-opacity="1" fill-rule="nonzero"/><path fill="#000000" d="M 66.734375 48.75 C 66.714844 48.75 66.695312 48.742188 66.679688 48.726562 L 62.921875 44.960938 C 62.890625 44.929688 62.890625 44.878906 62.921875 44.847656 C 62.953125 44.816406 63.003906 44.816406 63.035156 44.847656 L 66.792969 48.613281 C 66.824219 48.644531 66.824219 48.695312 66.792969 48.726562 C 66.777344 48.742188 66.753906 48.75 66.734375 48.75 " fill-opacity="1" fill-rule="nonzero"/><path fill="#955b50" d="M 55.964844 49.121094 L 57.078125 49.121094 C 57.578125 49.121094 58.070312 49.234375 58.519531 49.453125 L 60.664062 50.5 L 55.964844 50.5 C 55.59375 50.5 55.292969 50.195312 55.292969 49.824219 L 55.292969 49.796875 C 55.292969 49.421875 55.59375 49.121094 55.964844 49.121094 " fill-opacity="1" fill-rule="nonzero"/><path fill="#000000" d="M 55.964844 49.199219 C 55.640625 49.199219 55.375 49.46875 55.375 49.796875 L 55.375 49.824219 C 55.375 50.152344 55.640625 50.417969 55.964844 50.417969 L 60.316406 50.417969 L 58.484375 49.527344 C 58.050781 49.3125 57.5625 49.199219 57.078125 49.199219 Z M 61.011719 50.578125 L 55.964844 50.578125 C 55.550781 50.578125 55.214844 50.242188 55.214844 49.824219 L 55.214844 49.796875 C 55.214844 49.378906 55.550781 49.039062 55.964844 49.039062 L 57.078125 49.039062 C 57.585938 49.039062 58.097656 49.160156 58.554688 49.382812 L 61.011719 50.578125 " fill-opacity="1" fill-rule="nonzero"/><path fill="#4ada85" d="M 59.167969 55.320312 L 51.945312 55.320312 L 49.296875 46.890625 L 56.523438 46.890625 L 59.167969 55.320312 " fill-opacity="1" fill-rule="nonzero"/><path fill="#000000" d="M 52.003906 55.242188 L 59.058594 55.242188 L 56.460938 46.96875 L 49.40625 46.96875 Z M 59.167969 55.402344 L 51.945312 55.402344 C 51.910156 55.402344 51.878906 55.378906 51.867188 55.34375 L 49.222656 46.914062 C 49.214844 46.890625 49.21875 46.863281 49.234375 46.84375 C 49.246094 46.820312 49.273438 46.808594 49.296875 46.808594 L 56.519531 46.808594 C 56.554688 46.808594 56.585938 46.832031 56.597656 46.867188 L 59.246094 55.296875 C 59.25 55.320312 59.246094 55.347656 59.234375 55.367188 C 59.21875 55.390625 59.191406 55.402344 59.167969 55.402344 " fill-opacity="1" fill-rule="nonzero"/><path fill="#ffffff" d="M 55.472656 47.53125 L 55.03125 46.128906 L 50.15625 46.128906 L 50.597656 47.53125 L 55.472656 47.53125 " fill-opacity="1" fill-rule="nonzero"/><path fill="#000000" d="M 50.65625 47.453125 L 55.363281 47.453125 L 54.972656 46.207031 L 50.265625 46.207031 Z M 55.472656 47.613281 L 50.597656 47.613281 C 50.5625 47.613281 50.53125 47.589844 50.523438 47.554688 L 50.082031 46.152344 C 50.074219 46.128906 50.078125 46.101562 50.09375 46.082031 C 50.109375 46.058594 50.132812 46.046875 50.15625 46.046875 L 55.03125 46.046875 C 55.066406 46.046875 55.097656 46.070312 55.109375 46.105469 L 55.550781 47.507812 C 55.558594 47.53125 55.550781 47.558594 55.539062 47.578125 C 55.523438 47.601562 55.5 47.613281 55.472656 47.613281 " fill-opacity="1" fill-rule="nonzero"/><path fill="#955b50" d="M 56.40625 49.574219 L 55.054688 49.050781 C 54.8125 48.953125 54.546875 49.136719 54.546875 49.398438 L 54.546875 49.433594 C 54.546875 49.589844 54.640625 49.726562 54.785156 49.785156 L 56.023438 50.265625 C 56.167969 50.320312 56.324219 50.347656 56.476562 50.347656 L 57.902344 50.347656 L 57.902344 49.574219 L 56.40625 49.574219 " fill-opacity="1" fill-rule="nonzero"/><path fill="#955b50" d="M 55.804688 51.007812 L 54.742188 50.59375 C 54.496094 50.5 54.234375 50.679688 54.234375 50.941406 L 54.234375 50.980469 C 54.234375 51.132812 54.328125 51.273438 54.472656 51.328125 L 55.710938 51.808594 C 55.855469 51.863281 56.007812 51.894531 56.164062 51.894531 L 58.671875 51.894531 L 58.671875 51.117188 L 56.398438 51.117188 C 56.195312 51.117188 55.992188 51.082031 55.804688 51.007812 " fill-opacity="1" fill-rule="nonzero"/><path fill="#955b50" d="M 56.011719 50.257812 L 54.597656 49.710938 C 54.351562 49.613281 54.085938 49.796875 54.085938 50.0625 L 54.085938 50.089844 C 54.085938 50.246094 54.183594 50.386719 54.328125 50.441406 L 55.808594 51.019531 C 55.984375 51.085938 56.171875 51.121094 56.359375 51.121094 L 58.671875 51.121094 L 58.671875 50.34375 L 56.476562 50.34375 C 56.316406 50.34375 56.160156 50.316406 56.011719 50.257812 " fill-opacity="1" fill-rule="nonzero"/><path fill="#955b50" d="M 56.164062 51.890625 C 56.007812 51.890625 55.851562 51.863281 55.703125 51.804688 L 54.988281 51.527344 C 54.746094 51.433594 54.484375 51.613281 54.484375 51.875 L 54.484375 51.914062 C 54.484375 52.066406 54.578125 52.207031 54.722656 52.261719 L 55.609375 52.609375 C 55.710938 52.648438 55.820312 52.667969 55.929688 52.667969 L 58.671875 52.667969 L 58.671875 51.890625 L 56.164062 51.890625 " fill-opacity="1" fill-rule="nonzero"/><path fill="#955b50" d="M 58.746094 51.691406 L 56.253906 50.722656 L 56.253906 52.523438 L 58.1875 53.277344 C 58.554688 53.417969 58.945312 53.492188 59.339844 53.492188 L 60.253906 53.492188 L 60.253906 51.691406 L 58.746094 51.691406 " fill-opacity="1" fill-rule="nonzero"/><path fill="#955b50" d="M 57.972656 49.570312 L 57.109375 49.570312 L 59.148438 53.492188 L 60.453125 53.492188 L 60.453125 50.402344 L 59.363281 49.886719 C 58.929688 49.679688 58.453125 49.570312 57.972656 49.570312 " fill-opacity="1" fill-rule="nonzero"/><path fill="#955b50" d="M 70.867188 53.140625 L 59.894531 53.492188 L 59.894531 50.402344 L 67.964844 49.121094 L 64.390625 45.609375 L 68.398438 43.355469 L 72.941406 47.652344 C 74.992188 49.589844 73.683594 53.050781 70.867188 53.140625 " fill-opacity="1" fill-rule="nonzero"/><path fill="#000000" d="M 59.894531 53.574219 C 59.851562 53.574219 59.8125 53.539062 59.8125 53.496094 C 59.8125 53.449219 59.847656 53.414062 59.890625 53.414062 L 70.894531 53.058594 C 72.164062 53.019531 73.226562 52.253906 73.675781 51.070312 C 74.125 49.882812 73.832031 48.601562 72.910156 47.730469 L 68.386719 43.453125 L 64.523438 45.625 L 68.019531 49.0625 C 68.039062 49.085938 68.046875 49.117188 68.039062 49.144531 C 68.03125 49.175781 68.003906 49.195312 67.976562 49.199219 L 60.324219 50.414062 C 60.28125 50.421875 60.238281 50.390625 60.234375 50.347656 C 60.226562 50.304688 60.257812 50.261719 60.300781 50.257812 L 67.792969 49.066406 L 64.335938 45.667969 C 64.316406 45.648438 64.308594 45.625 64.3125 45.597656 C 64.316406 45.574219 64.328125 45.550781 64.351562 45.539062 L 68.359375 43.285156 C 68.390625 43.265625 68.429688 43.269531 68.453125 43.296875 L 73.019531 47.613281 C 73.988281 48.53125 74.296875 49.875 73.824219 51.125 C 73.351562 52.375 72.234375 53.175781 70.902344 53.21875 L 59.894531 53.574219 " fill-opacity="1" fill-rule="nonzero"/><path fill="#000000" d="M 57.792969 51.199219 L 56.359375 51.199219 C 56.160156 51.199219 55.964844 51.164062 55.78125 51.09375 L 54.296875 50.519531 C 54.125 50.449219 54.007812 50.277344 54.007812 50.089844 L 54.007812 50.0625 C 54.007812 49.910156 54.082031 49.769531 54.203125 49.683594 C 54.328125 49.597656 54.488281 49.582031 54.625 49.632812 L 56.039062 50.183594 C 56.179688 50.238281 56.328125 50.265625 56.476562 50.265625 L 57.792969 50.265625 C 57.839844 50.265625 57.875 50.300781 57.875 50.34375 C 57.875 50.390625 57.839844 50.425781 57.792969 50.425781 L 56.476562 50.425781 C 56.308594 50.425781 56.140625 50.394531 55.984375 50.332031 L 54.570312 49.785156 C 54.476562 49.75 54.375 49.761719 54.296875 49.816406 C 54.214844 49.871094 54.167969 49.960938 54.167969 50.0625 L 54.167969 50.089844 C 54.167969 50.210938 54.242188 50.324219 54.355469 50.367188 L 55.839844 50.941406 C 56.003906 51.007812 56.179688 51.039062 56.359375 51.039062 L 57.792969 51.039062 C 57.839844 51.039062 57.875 51.078125 57.875 51.121094 C 57.875 51.164062 57.839844 51.199219 57.792969 51.199219 " fill-opacity="1" fill-rule="nonzero"/><path fill="#000000" d="M 57.792969 52.746094 L 55.929688 52.746094 C 55.808594 52.746094 55.691406 52.726562 55.582031 52.683594 L 54.691406 52.335938 C 54.519531 52.269531 54.402344 52.101562 54.402344 51.914062 L 54.402344 51.875 C 54.402344 51.726562 54.476562 51.585938 54.597656 51.503906 C 54.722656 51.417969 54.878906 51.398438 55.019531 51.453125 L 55.734375 51.730469 C 55.871094 51.785156 56.015625 51.8125 56.164062 51.8125 L 57.792969 51.8125 C 57.839844 51.8125 57.875 51.847656 57.875 51.890625 C 57.875 51.9375 57.839844 51.972656 57.792969 51.972656 L 56.164062 51.972656 C 55.996094 51.972656 55.832031 51.941406 55.675781 51.878906 L 54.960938 51.601562 C 54.871094 51.566406 54.769531 51.578125 54.691406 51.632812 C 54.609375 51.691406 54.5625 51.777344 54.5625 51.875 L 54.5625 51.914062 C 54.5625 52.035156 54.636719 52.144531 54.75 52.1875 L 55.640625 52.53125 C 55.730469 52.570312 55.828125 52.585938 55.929688 52.585938 L 57.792969 52.585938 C 57.839844 52.585938 57.875 52.621094 57.875 52.667969 C 57.875 52.710938 57.839844 52.746094 57.792969 52.746094 " fill-opacity="1" fill-rule="nonzero"/><path fill="#000000" d="M 60.3125 50.414062 C 60.300781 50.414062 60.289062 50.410156 60.277344 50.402344 L 58.746094 49.652344 C 58.707031 49.632812 58.691406 49.585938 58.710938 49.546875 C 58.730469 49.507812 58.777344 49.488281 58.816406 49.507812 L 60.347656 50.261719 C 60.386719 50.28125 60.402344 50.328125 60.382812 50.367188 C 60.367188 50.394531 60.339844 50.414062 60.3125 50.414062 " fill-opacity="1" fill-rule="nonzero"/><path fill="#000000" d="M 59.894531 53.574219 L 59.152344 53.574219 C 59.136719 53.574219 59.125 53.570312 59.113281 53.566406 C 58.785156 53.542969 58.464844 53.46875 58.160156 53.351562 L 56.605469 52.746094 L 55.929688 52.746094 C 55.808594 52.746094 55.691406 52.726562 55.582031 52.683594 L 54.691406 52.335938 C 54.519531 52.269531 54.402344 52.101562 54.402344 51.914062 L 54.402344 51.875 C 54.402344 51.726562 54.472656 51.59375 54.59375 51.507812 C 54.605469 51.496094 54.621094 51.488281 54.636719 51.476562 L 54.441406 51.402344 C 54.269531 51.335938 54.152344 51.164062 54.152344 50.980469 L 54.152344 50.941406 C 54.152344 50.808594 54.210938 50.683594 54.3125 50.597656 C 54.332031 50.578125 54.355469 50.5625 54.378906 50.550781 L 54.296875 50.519531 C 54.125 50.449219 54.007812 50.277344 54.007812 50.089844 L 54.007812 50.0625 C 54.007812 49.910156 54.082031 49.769531 54.203125 49.683594 C 54.292969 49.625 54.398438 49.597656 54.5 49.605469 C 54.480469 49.550781 54.46875 49.496094 54.46875 49.433594 L 54.46875 49.398438 C 54.46875 49.25 54.539062 49.109375 54.664062 49.023438 C 54.789062 48.9375 54.945312 48.921875 55.082031 48.976562 L 56.417969 49.492188 L 57.09375 49.492188 C 57.097656 49.492188 57.105469 49.492188 57.109375 49.492188 L 57.792969 49.492188 C 57.839844 49.492188 57.875 49.527344 57.875 49.570312 C 57.875 49.617188 57.839844 49.652344 57.792969 49.652344 L 57.128906 49.652344 C 57.125 49.652344 57.117188 49.652344 57.113281 49.652344 L 56.402344 49.652344 C 56.394531 49.652344 56.382812 49.652344 56.375 49.648438 L 55.027344 49.125 C 54.933594 49.089844 54.835938 49.101562 54.753906 49.15625 C 54.671875 49.210938 54.628906 49.300781 54.628906 49.398438 L 54.628906 49.433594 C 54.628906 49.550781 54.695312 49.65625 54.800781 49.703125 C 54.84375 49.71875 54.859375 49.765625 54.84375 49.808594 C 54.828125 49.847656 54.78125 49.867188 54.742188 49.851562 L 54.570312 49.785156 C 54.476562 49.75 54.375 49.761719 54.296875 49.816406 C 54.214844 49.871094 54.167969 49.960938 54.167969 50.0625 L 54.167969 50.089844 C 54.167969 50.210938 54.242188 50.324219 54.355469 50.367188 L 54.695312 50.5 C 54.730469 50.515625 54.753906 50.554688 54.742188 50.59375 C 54.730469 50.636719 54.691406 50.660156 54.652344 50.652344 C 54.566406 50.640625 54.480469 50.664062 54.414062 50.71875 C 54.347656 50.777344 54.3125 50.855469 54.3125 50.941406 L 54.3125 50.980469 C 54.3125 51.101562 54.386719 51.210938 54.5 51.253906 L 55.003906 51.449219 C 55.046875 51.464844 55.066406 51.511719 55.050781 51.550781 C 55.035156 51.59375 54.992188 51.613281 54.949219 51.597656 C 54.859375 51.566406 54.761719 51.582031 54.683594 51.636719 C 54.605469 51.695312 54.5625 51.78125 54.5625 51.875 L 54.5625 51.914062 C 54.5625 52.035156 54.636719 52.144531 54.75 52.1875 L 55.640625 52.53125 C 55.730469 52.570312 55.828125 52.585938 55.929688 52.585938 L 56.617188 52.585938 C 56.628906 52.585938 56.636719 52.589844 56.648438 52.59375 L 58.21875 53.203125 C 58.515625 53.316406 58.828125 53.386719 59.152344 53.40625 C 59.160156 53.40625 59.171875 53.410156 59.179688 53.414062 L 59.894531 53.414062 C 59.9375 53.414062 59.972656 53.449219 59.972656 53.492188 C 59.972656 53.539062 59.9375 53.574219 59.894531 53.574219 " fill-opacity="1" fill-rule="nonzero"/><path fill="#000000" d="M 66.871094 49.375 C 66.832031 49.375 66.800781 49.347656 66.792969 49.304688 C 66.785156 49.261719 66.816406 49.222656 66.859375 49.214844 L 70.023438 48.722656 C 70.070312 48.714844 70.109375 48.746094 70.117188 48.789062 C 70.125 48.832031 70.09375 48.875 70.050781 48.878906 L 66.886719 49.375 C 66.878906 49.375 66.875 49.375 66.871094 49.375 " fill-opacity="1" fill-rule="nonzero"/><path fill="#000000" d="M 70.535156 45.375 L 67.804688 48.964844 L 66.226562 47.414062 L 69.660156 44.546875 L 70.535156 45.375 " fill-opacity="1" fill-rule="nonzero"/><path fill="#8c7bff" d="M 66.777344 48.628906 L 70.636719 44.757812 L 68.476562 42.601562 L 63.578125 45.421875 L 66.777344 48.628906 " fill-opacity="1" fill-rule="nonzero"/><path fill="#000000" d="M 57.734375 36.335938 L 58.835938 36.738281 C 58.820312 37.089844 58.757812 37.46875 58.648438 37.859375 C 58.285156 39.175781 59.726562 40.363281 59.046875 40.363281 C 58.980469 40.363281 56.691406 40.175781 56.628906 40.160156 C 56.234375 40.050781 55.976562 39.539062 55.894531 38.917969 C 56.441406 38.644531 57.027344 37.988281 57.441406 37.117188 C 57.5625 36.855469 57.664062 36.589844 57.734375 36.335938 " fill-opacity="1" fill-rule="nonzero"/><path fill="#955b50" d="M 60.332031 37.570312 C 60.617188 36.785156 60.214844 35.917969 59.429688 35.632812 C 58.648438 35.347656 57.78125 35.753906 57.496094 36.539062 C 57.210938 37.324219 57.617188 38.191406 58.398438 38.476562 C 59.183594 38.761719 60.046875 38.355469 60.332031 37.570312 " fill-opacity="1" fill-rule="nonzero"/><path fill="#955b50" d="M 58.132812 38.21875 L 58.132812 43.234375 L 59.695312 40.269531 L 59.675781 37.992188 L 58.132812 38.21875 " fill-opacity="1" fill-rule="nonzero"/><path fill="#ffffff" d="M 58.90625 37.492188 C 58.796875 37.75 58.507812 37.878906 58.242188 37.785156 C 58.144531 37.75 58.0625 37.6875 58.003906 37.609375 C 58.296875 37.574219 58.605469 37.53125 58.90625 37.492188 " fill-opacity="1" fill-rule="nonzero"/><path fill="#000000" d="M 57.988281 35.863281 C 58.382812 35.550781 58.921875 35.449219 59.429688 35.632812 C 60.160156 35.898438 60.5625 36.671875 60.378906 37.414062 C 60 37.425781 59.488281 37.265625 58.992188 36.949219 C 58.492188 36.625 58.128906 36.21875 57.988281 35.863281 " fill-opacity="1" fill-rule="nonzero"/><path fill="#000000" d="M 58.398438 38.554688 C 58.390625 38.554688 58.382812 38.554688 58.371094 38.550781 C 57.972656 38.40625 57.65625 38.113281 57.476562 37.726562 C 57.296875 37.34375 57.277344 36.910156 57.421875 36.507812 C 57.566406 36.109375 57.859375 35.789062 58.242188 35.609375 C 58.628906 35.429688 59.058594 35.410156 59.457031 35.558594 C 60.28125 35.855469 60.707031 36.773438 60.40625 37.597656 C 60.347656 37.761719 60.265625 37.914062 60.15625 38.046875 C 60.128906 38.082031 60.078125 38.089844 60.042969 38.058594 C 60.007812 38.03125 60.003906 37.980469 60.03125 37.949219 C 60.128906 37.828125 60.203125 37.691406 60.257812 37.542969 C 60.527344 36.800781 60.144531 35.976562 59.402344 35.707031 C 59.042969 35.578125 58.65625 35.59375 58.3125 35.757812 C 57.964844 35.917969 57.703125 36.207031 57.574219 36.566406 C 57.441406 36.925781 57.460938 37.3125 57.621094 37.660156 C 57.78125 38.007812 58.066406 38.269531 58.425781 38.398438 C 58.46875 38.414062 58.488281 38.460938 58.476562 38.503906 C 58.460938 38.535156 58.433594 38.554688 58.398438 38.554688 " fill-opacity="1" fill-rule="nonzero"/><path fill="#000000" d="M 59.496094 37.976562 C 59.578125 37.0625 59.425781 36.234375 59.121094 35.714844 C 59.191406 35.6875 59.257812 35.671875 59.332031 35.664062 C 60.074219 35.605469 60.769531 36.765625 60.886719 38.253906 C 61.003906 39.746094 60.5 41 59.757812 41.058594 C 59.351562 41.089844 58.957031 40.753906 58.664062 40.199219 C 59.082031 39.753906 59.410156 38.9375 59.496094 37.976562 " fill-opacity="1" fill-rule="nonzero"/><path fill="#fed101" d="M 37.808594 27.628906 C 37.808594 25.398438 39.617188 23.585938 41.84375 23.585938 C 44.039062 23.585938 45.8125 25.3125 45.875 27.515625 C 45.910156 28.832031 45.320312 30.015625 44.375 30.777344 C 43.894531 31.167969 43.628906 31.761719 43.628906 32.382812 C 43.628906 33.371094 42.828125 34.171875 41.84375 34.171875 C 40.859375 34.171875 40.058594 33.371094 40.058594 32.382812 C 40.058594 31.753906 39.773438 31.160156 39.289062 30.757812 C 38.386719 30.015625 37.808594 28.890625 37.808594 27.628906 " fill-opacity="1" fill-rule="nonzero"/><path fill="#ffffff" d="M 41.84375 35.328125 C 42.902344 35.328125 43.757812 34.46875 43.757812 33.40625 L 43.757812 32.453125 L 39.929688 32.453125 L 39.929688 33.40625 C 39.929688 34.46875 40.785156 35.328125 41.84375 35.328125 " fill-opacity="1" fill-rule="nonzero"/><path fill="#000000" d="M 40.007812 32.535156 L 40.007812 33.40625 C 40.007812 34.421875 40.832031 35.246094 41.84375 35.246094 C 42.855469 35.246094 43.679688 34.421875 43.679688 33.40625 L 43.679688 32.535156 Z M 41.84375 35.40625 C 40.742188 35.40625 39.847656 34.511719 39.847656 33.40625 L 39.847656 32.453125 C 39.847656 32.410156 39.886719 32.375 39.929688 32.375 L 43.757812 32.375 C 43.800781 32.375 43.839844 32.410156 43.839844 32.453125 L 43.839844 33.40625 C 43.839844 34.511719 42.941406 35.40625 41.84375 35.40625 " fill-opacity="1" fill-rule="nonzero"/><path fill="#000000" d="M 40.980469 32.375 L 42.625 32.375 L 43.425781 27.765625 L 43.171875 27.824219 C 43.15625 27.828125 43.140625 27.824219 43.125 27.820312 L 42.746094 27.664062 L 42.328125 27.820312 C 42.308594 27.828125 42.289062 27.828125 42.273438 27.820312 L 41.84375 27.664062 L 41.472656 27.820312 C 41.453125 27.828125 41.433594 27.828125 41.410156 27.816406 L 41.050781 27.664062 L 40.714844 27.816406 C 40.699219 27.824219 40.683594 27.828125 40.667969 27.824219 L 40.339844 27.761719 Z M 42.691406 32.535156 L 40.910156 32.535156 C 40.871094 32.535156 40.835938 32.503906 40.832031 32.464844 L 40.164062 27.671875 C 40.160156 27.644531 40.171875 27.621094 40.1875 27.601562 C 40.207031 27.585938 40.234375 27.578125 40.257812 27.582031 L 40.671875 27.660156 L 41.015625 27.503906 C 41.035156 27.496094 41.058594 27.496094 41.082031 27.503906 L 41.445312 27.65625 L 41.8125 27.503906 C 41.832031 27.496094 41.851562 27.496094 41.871094 27.5 L 42.300781 27.660156 L 42.71875 27.503906 C 42.738281 27.496094 42.757812 27.496094 42.777344 27.503906 L 43.160156 27.660156 L 43.507812 27.582031 C 43.535156 27.578125 43.5625 27.585938 43.582031 27.601562 C 43.601562 27.621094 43.609375 27.648438 43.605469 27.675781 L 42.769531 32.46875 C 42.765625 32.507812 42.730469 32.535156 42.691406 32.535156 " fill-opacity="1" fill-rule="nonzero"/></svg>