<svg xmlns="http://www.w3.org/2000/svg" xmlns:xlink="http://www.w3.org/1999/xlink" width="100" zoomAndPan="magnify" viewBox="0 0 75 74.999997" height="100" preserveAspectRatio="xMidYMid meet" version="1.0"><defs><clipPath id="af9b326dfd"><path d="M 32 52 L 49 52 L 49 67.5 L 32 67.5 Z M 32 52 " clip-rule="nonzero"/></clipPath></defs><path fill="#8ad59d" d="M 60.640625 16.601562 C 59.042969 16.601562 57.917969 12.613281 57.917969 10.453125 C 57.917969 8.867188 58.546875 8.542969 59.496094 8.542969 C 59.664062 8.542969 59.839844 8.550781 60.027344 8.5625 C 60.226562 8.570312 60.429688 8.582031 60.640625 8.582031 C 60.851562 8.582031 61.058594 8.570312 61.257812 8.5625 C 61.445312 8.550781 61.621094 8.542969 61.789062 8.542969 C 62.734375 8.542969 63.367188 8.867188 63.367188 10.453125 C 63.367188 12.613281 62.242188 16.601562 60.640625 16.601562 " fill-opacity="1" fill-rule="nonzero"/><path fill="#4ebf6a" d="M 61.789062 8.335938 C 61.613281 8.335938 61.4375 8.34375 61.246094 8.351562 C 61.050781 8.363281 60.847656 8.375 60.640625 8.375 C 60.4375 8.375 60.234375 8.363281 60.039062 8.351562 C 59.847656 8.34375 59.667969 8.335938 59.496094 8.335938 C 58.242188 8.335938 57.710938 8.96875 57.710938 10.453125 C 57.710938 12.300781 58.738281 16.808594 60.640625 16.808594 C 62.546875 16.808594 63.574219 12.300781 63.574219 10.453125 C 63.574219 8.96875 63.042969 8.335938 61.789062 8.335938 M 61.789062 8.75 C 62.601562 8.75 63.15625 8.972656 63.15625 10.453125 C 63.15625 12.5625 62.03125 16.394531 60.640625 16.394531 C 59.253906 16.394531 58.125 12.5625 58.125 10.453125 C 58.125 8.972656 58.683594 8.75 59.496094 8.75 C 59.839844 8.75 60.230469 8.789062 60.640625 8.789062 C 61.054688 8.789062 61.445312 8.75 61.789062 8.75 " fill-opacity="1" fill-rule="nonzero"/><path fill="#71cc8c" d="M 59.554688 15.617188 C 59.410156 15.398438 59.269531 15.148438 59.136719 14.871094 C 59.054688 14.640625 58.957031 14.414062 58.859375 14.199219 C 58.855469 14.191406 58.851562 14.179688 58.847656 14.171875 C 58.828125 14.125 58.8125 14.078125 58.796875 14.027344 C 59.039062 14.214844 59.296875 14.375 59.585938 14.496094 C 59.660156 14.53125 59.738281 14.546875 59.820312 14.546875 C 59.996094 14.546875 60.183594 14.476562 60.375 14.40625 C 60.570312 14.335938 60.769531 14.261719 60.972656 14.261719 C 61.066406 14.261719 61.160156 14.277344 61.253906 14.316406 C 61.417969 14.371094 61.550781 14.558594 61.734375 14.558594 C 61.75 14.558594 61.769531 14.558594 61.789062 14.554688 C 62.367188 14.425781 62.429688 13.5625 62.777344 13.082031 C 62.679688 13.457031 62.566406 13.824219 62.4375 14.171875 C 62.433594 14.183594 62.429688 14.191406 62.425781 14.199219 C 62.328125 14.414062 62.230469 14.636719 62.148438 14.871094 C 62.015625 15.148438 61.875 15.398438 61.730469 15.617188 C 61.386719 15.507812 61.019531 15.449219 60.640625 15.449219 C 60.265625 15.449219 59.898438 15.507812 59.554688 15.617188 " fill-opacity="1" fill-rule="nonzero"/><path fill="#40bb64" d="M 59.136719 14.871094 L 59.136719 14.871094 M 58.847656 14.171875 C 58.847656 14.171875 58.847656 14.171875 58.847656 14.167969 C 58.828125 14.121094 58.8125 14.074219 58.792969 14.027344 C 58.792969 14.027344 58.792969 14.027344 58.796875 14.027344 C 58.8125 14.078125 58.828125 14.125 58.847656 14.171875 " fill-opacity="1" fill-rule="nonzero"/><path fill="#b9e6c0" d="M 60.664062 10.128906 C 60.65625 10.128906 60.648438 10.128906 60.640625 10.128906 C 60.332031 10.121094 60.03125 10.085938 59.753906 9.9375 C 59.539062 9.820312 59.355469 9.789062 59.105469 9.785156 C 58.640625 9.777344 58.636719 9.054688 59.101562 9.054688 C 59.101562 9.054688 59.105469 9.054688 59.105469 9.054688 C 59.421875 9.058594 59.726562 9.097656 60.007812 9.246094 C 60.207031 9.351562 60.386719 9.398438 60.617188 9.398438 C 60.625 9.398438 60.632812 9.398438 60.640625 9.398438 C 60.902344 9.394531 61.058594 9.324219 61.285156 9.226562 C 61.574219 9.101562 61.863281 9.058594 62.175781 9.054688 C 62.179688 9.054688 62.183594 9.054688 62.183594 9.054688 C 62.648438 9.054688 62.644531 9.777344 62.175781 9.785156 C 61.632812 9.792969 61.214844 10.128906 60.664062 10.128906 " fill-opacity="1" fill-rule="nonzero"/><path fill="#8ad59d" d="M 63.320312 17.644531 C 62.910156 17.644531 62.589844 17.535156 62.371094 17.316406 C 61.71875 16.667969 62.144531 15.3125 62.613281 14.285156 C 63.15625 13.101562 64.015625 11.828125 64.800781 11.046875 C 65.339844 10.507812 65.792969 10.257812 66.21875 10.257812 C 66.789062 10.257812 67.199219 10.710938 67.636719 11.195312 C 67.769531 11.34375 67.90625 11.496094 68.054688 11.644531 C 68.207031 11.792969 68.359375 11.929688 68.507812 12.0625 C 69.003906 12.511719 69.429688 12.894531 69.445312 13.449219 C 69.457031 13.882812 69.207031 14.339844 68.65625 14.890625 C 67.503906 16.039062 64.914062 17.644531 63.320312 17.644531 " fill-opacity="1" fill-rule="nonzero"/><path fill="#4ebf6a" d="M 66.21875 10.050781 C 65.734375 10.050781 65.234375 10.320312 64.65625 10.898438 C 63.855469 11.699219 62.976562 12.992188 62.425781 14.199219 C 61.925781 15.285156 61.488281 16.730469 62.222656 17.460938 C 62.480469 17.722656 62.851562 17.851562 63.320312 17.851562 C 64.96875 17.851562 67.625 16.214844 68.804688 15.035156 C 69.398438 14.445312 69.667969 13.9375 69.652344 13.445312 C 69.636719 12.800781 69.15625 12.367188 68.644531 11.910156 C 68.5 11.777344 68.347656 11.640625 68.203125 11.496094 C 68.058594 11.351562 67.921875 11.203125 67.789062 11.058594 C 67.320312 10.539062 66.878906 10.050781 66.21875 10.050781 M 66.21875 10.464844 C 66.847656 10.464844 67.269531 11.15625 67.910156 11.792969 C 68.890625 12.773438 70.003906 13.25 68.507812 14.742188 C 67.296875 15.953125 64.761719 17.4375 63.320312 17.4375 C 62.980469 17.4375 62.703125 17.355469 62.515625 17.167969 C 61.535156 16.1875 63.453125 12.6875 64.949219 11.191406 C 65.476562 10.667969 65.875 10.464844 66.21875 10.464844 " fill-opacity="1" fill-rule="nonzero"/><path fill="#71cc8c" d="M 63.835938 17.382812 C 63.496094 16.730469 62.957031 16.195312 62.300781 15.851562 C 62.394531 15.351562 62.605469 14.777344 62.890625 14.191406 C 62.925781 14.496094 63 14.792969 63.117188 15.082031 C 63.285156 15.585938 64.167969 15.542969 64.421875 16.132812 C 64.507812 16.296875 64.453125 16.5625 64.632812 16.675781 C 64.738281 16.746094 64.855469 16.773438 64.972656 16.773438 C 65.410156 16.773438 65.914062 16.40625 66.375 16.332031 C 66.03125 16.53125 65.679688 16.71875 65.335938 16.875 C 65.101562 16.960938 64.878906 17.054688 64.664062 17.152344 C 64.375 17.257812 64.09375 17.335938 63.835938 17.382812 " fill-opacity="1" fill-rule="nonzero"/><path fill="#40bb64" d="M 63.835938 17.382812 C 64.09375 17.335938 64.375 17.257812 64.664062 17.152344 C 64.375 17.257812 64.09375 17.335938 63.835938 17.382812 M 62.300781 15.851562 C 62.394531 15.351562 62.605469 14.777344 62.890625 14.191406 C 62.605469 14.777344 62.394531 15.351562 62.300781 15.851562 " fill-opacity="1" fill-rule="nonzero"/><path fill="#b9e6c0" d="M 68.53125 13.679688 C 68.449219 13.679688 68.363281 13.648438 68.289062 13.578125 C 67.894531 13.191406 67.347656 13.136719 66.960938 12.738281 C 66.742188 12.515625 66.558594 12.277344 66.46875 11.976562 C 66.398438 11.742188 66.292969 11.589844 66.121094 11.410156 C 65.867188 11.152344 66.113281 10.785156 66.390625 10.785156 C 66.476562 10.785156 66.558594 10.820312 66.636719 10.894531 C 66.855469 11.121094 67.042969 11.363281 67.136719 11.667969 C 67.207031 11.890625 67.304688 12.054688 67.476562 12.222656 C 67.664062 12.402344 67.824219 12.460938 68.054688 12.554688 C 68.347656 12.671875 68.582031 12.839844 68.808594 13.0625 C 69.066406 13.316406 68.816406 13.679688 68.53125 13.679688 " fill-opacity="1" fill-rule="nonzero"/><path fill="#8ad59d" d="M 69.25 21.757812 C 67.085938 21.757812 63.085938 20.636719 63.085938 19.039062 C 63.085938 17.441406 67.085938 16.320312 69.25 16.320312 C 70.027344 16.320312 70.53125 16.46875 70.828125 16.78125 C 71.210938 17.183594 71.183594 17.757812 71.148438 18.425781 C 71.136719 18.625 71.125 18.828125 71.125 19.039062 C 71.125 19.25 71.136719 19.453125 71.148438 19.652344 C 71.183594 20.316406 71.210938 20.894531 70.828125 21.296875 C 70.53125 21.609375 70.027344 21.757812 69.25 21.757812 " fill-opacity="1" fill-rule="nonzero"/><path fill="#4ebf6a" d="M 69.25 16.113281 C 67.398438 16.113281 62.875 17.136719 62.875 19.039062 C 62.875 20.9375 67.398438 21.964844 69.25 21.964844 C 70.089844 21.964844 70.640625 21.796875 70.980469 21.4375 C 71.425781 20.972656 71.390625 20.324219 71.355469 19.640625 C 71.34375 19.445312 71.335938 19.242188 71.335938 19.039062 C 71.335938 18.832031 71.34375 18.632812 71.355469 18.4375 C 71.390625 17.75 71.425781 17.105469 70.980469 16.636719 C 70.640625 16.28125 70.089844 16.113281 69.25 16.113281 M 69.25 16.527344 C 71.367188 16.527344 70.917969 17.652344 70.917969 19.039062 C 70.917969 20.425781 71.367188 21.546875 69.25 21.546875 C 67.132812 21.546875 63.292969 20.425781 63.292969 19.039062 C 63.292969 17.652344 67.132812 16.527344 69.25 16.527344 " fill-opacity="1" fill-rule="nonzero"/><path fill="#71cc8c" d="M 66.613281 21.167969 C 66.234375 21.070312 65.863281 20.953125 65.511719 20.824219 C 65.28125 20.71875 65.050781 20.621094 64.824219 20.539062 C 64.546875 20.410156 64.292969 20.269531 64.074219 20.121094 C 64.183594 19.78125 64.242188 19.414062 64.242188 19.039062 C 64.242188 18.660156 64.183594 18.296875 64.074219 17.953125 C 64.496094 17.667969 65.054688 17.410156 65.667969 17.195312 C 65.480469 17.4375 65.320312 17.695312 65.199219 17.984375 C 64.960938 18.460938 65.613281 19.054688 65.375 19.648438 C 65.316406 19.828125 65.089844 19.972656 65.136719 20.183594 C 65.265625 20.757812 66.132812 20.820312 66.613281 21.167969 " fill-opacity="1" fill-rule="nonzero"/><path fill="#b9e6c0" d="M 70.292969 20.921875 C 70.109375 20.921875 69.925781 20.804688 69.921875 20.570312 C 69.914062 20.019531 69.566406 19.597656 69.578125 19.039062 C 69.582031 18.726562 69.621094 18.429688 69.769531 18.152344 C 69.882812 17.9375 69.917969 17.753906 69.921875 17.507812 C 69.925781 17.273438 70.109375 17.15625 70.292969 17.15625 C 70.476562 17.15625 70.65625 17.273438 70.652344 17.507812 C 70.648438 17.820312 70.609375 18.125 70.460938 18.40625 C 70.351562 18.613281 70.304688 18.796875 70.308594 19.039062 C 70.3125 19.296875 70.382812 19.453125 70.480469 19.679688 C 70.605469 19.96875 70.648438 20.253906 70.652344 20.570312 C 70.65625 20.804688 70.476562 20.921875 70.292969 20.921875 " fill-opacity="1" fill-rule="nonzero"/><path fill="#8ad59d" d="M 66.214844 27.820312 C 65.792969 27.820312 65.339844 27.570312 64.800781 27.03125 C 63.269531 25.503906 61.238281 21.890625 62.371094 20.761719 C 62.589844 20.542969 62.910156 20.433594 63.320312 20.433594 C 64.914062 20.433594 67.503906 22.035156 68.65625 23.1875 C 69.207031 23.734375 69.457031 24.191406 69.445312 24.625 C 69.429688 25.179688 69.003906 25.566406 68.507812 26.011719 C 68.359375 26.144531 68.207031 26.285156 68.054688 26.433594 C 67.90625 26.582031 67.769531 26.734375 67.636719 26.882812 C 67.199219 27.363281 66.789062 27.820312 66.214844 27.820312 " fill-opacity="1" fill-rule="nonzero"/><path fill="#4ebf6a" d="M 63.320312 20.226562 C 62.851562 20.226562 62.480469 20.355469 62.222656 20.613281 C 60.875 21.957031 63.347656 25.871094 64.652344 27.175781 C 65.234375 27.757812 65.730469 28.027344 66.21875 28.027344 C 66.878906 28.027344 67.320312 27.539062 67.789062 27.019531 C 67.921875 26.875 68.058594 26.722656 68.203125 26.578125 C 68.347656 26.433594 68.5 26.296875 68.644531 26.167969 C 69.15625 25.707031 69.636719 25.273438 69.652344 24.628906 C 69.667969 24.136719 69.398438 23.632812 68.804688 23.039062 C 67.625 21.863281 64.96875 20.226562 63.320312 20.226562 M 63.320312 20.640625 C 64.761719 20.640625 67.296875 22.125 68.507812 23.332031 C 70.003906 24.828125 68.890625 25.304688 67.910156 26.285156 C 67.269531 26.921875 66.84375 27.609375 66.21875 27.609375 C 65.875 27.609375 65.476562 27.40625 64.949219 26.882812 C 63.453125 25.390625 61.535156 21.890625 62.515625 20.910156 C 62.703125 20.722656 62.980469 20.640625 63.320312 20.640625 " fill-opacity="1" fill-rule="nonzero"/><path fill="#71cc8c" d="M 63.15625 24.164062 L 62.96875 24.046875 C 62.914062 23.9375 62.859375 23.824219 62.808594 23.714844 C 62.722656 23.484375 62.632812 23.261719 62.535156 23.050781 C 62.429688 22.761719 62.347656 22.484375 62.300781 22.222656 C 62.957031 21.882812 63.496094 21.347656 63.835938 20.691406 C 64.339844 20.785156 64.914062 20.996094 65.5 21.28125 C 65.199219 21.316406 64.898438 21.386719 64.609375 21.507812 C 64.105469 21.675781 64.148438 22.554688 63.558594 22.808594 C 63.390625 22.894531 63.125 22.839844 63.011719 23.019531 C 62.796875 23.351562 62.984375 23.757812 63.15625 24.164062 " fill-opacity="1" fill-rule="nonzero"/><path fill="#b9e6c0" d="M 66.390625 27.289062 C 66.113281 27.289062 65.867188 26.925781 66.121094 26.664062 C 66.503906 26.269531 66.558594 25.726562 66.960938 25.339844 C 67.183594 25.125 67.421875 24.9375 67.722656 24.847656 C 67.957031 24.777344 68.113281 24.671875 68.289062 24.5 C 68.367188 24.425781 68.449219 24.394531 68.53125 24.394531 C 68.816406 24.394531 69.070312 24.761719 68.808594 25.015625 C 68.582031 25.234375 68.339844 25.421875 68.035156 25.515625 C 67.808594 25.585938 67.644531 25.679688 67.476562 25.855469 C 67.296875 26.039062 67.238281 26.203125 67.144531 26.429688 C 67.027344 26.722656 66.855469 26.957031 66.636719 27.179688 C 66.558594 27.257812 66.476562 27.289062 66.390625 27.289062 " fill-opacity="1" fill-rule="nonzero"/><path fill="#8ad59d" d="M 61.789062 29.535156 C 61.621094 29.535156 61.445312 29.527344 61.257812 29.515625 C 61.058594 29.503906 60.851562 29.496094 60.640625 29.496094 C 60.433594 29.496094 60.226562 29.503906 60.027344 29.515625 C 59.839844 29.527344 59.664062 29.535156 59.492188 29.535156 C 59.109375 29.535156 58.671875 29.492188 58.359375 29.179688 C 58.058594 28.878906 57.917969 28.382812 57.917969 27.625 C 57.917969 25.464844 59.042969 21.476562 60.640625 21.476562 C 62.242188 21.476562 63.367188 25.464844 63.367188 27.625 C 63.367188 29.210938 62.738281 29.535156 61.789062 29.535156 " fill-opacity="1" fill-rule="nonzero"/><path fill="#4ebf6a" d="M 60.640625 21.265625 C 58.738281 21.265625 57.710938 25.777344 57.710938 27.625 C 57.710938 29.109375 58.242188 29.742188 59.492188 29.742188 C 59.667969 29.742188 59.847656 29.734375 60.039062 29.722656 C 60.234375 29.714844 60.4375 29.703125 60.644531 29.703125 C 60.847656 29.703125 61.050781 29.714844 61.246094 29.722656 C 61.4375 29.734375 61.613281 29.742188 61.789062 29.742188 C 63.042969 29.742188 63.574219 29.109375 63.574219 27.625 C 63.574219 25.777344 62.546875 21.265625 60.640625 21.265625 M 60.640625 21.683594 C 62.03125 21.683594 63.15625 25.511719 63.15625 27.625 C 63.15625 29.105469 62.601562 29.328125 61.789062 29.328125 C 61.445312 29.328125 61.054688 29.285156 60.640625 29.285156 C 60.230469 29.285156 59.839844 29.328125 59.492188 29.328125 C 58.683594 29.328125 58.125 29.105469 58.125 27.625 C 58.125 25.511719 59.253906 21.683594 60.640625 21.683594 " fill-opacity="1" fill-rule="nonzero"/><path fill="#71cc8c" d="M 58.507812 24.992188 C 58.535156 24.894531 58.5625 24.796875 58.589844 24.695312 C 58.667969 24.425781 58.753906 24.160156 58.847656 23.90625 C 58.851562 23.894531 58.855469 23.886719 58.859375 23.875 C 58.957031 23.664062 59.054688 23.4375 59.136719 23.207031 C 59.269531 22.929688 59.40625 22.675781 59.554688 22.460938 C 59.898438 22.570312 60.265625 22.628906 60.640625 22.628906 C 61.019531 22.628906 61.386719 22.570312 61.730469 22.460938 C 61.835938 22.617188 61.9375 22.789062 62.035156 22.976562 C 62.035156 22.976562 62.035156 22.980469 62.035156 22.980469 C 62.144531 23.191406 62.246094 23.414062 62.339844 23.652344 L 62.304688 23.628906 C 62.167969 23.542969 62.011719 23.5 61.855469 23.5 C 61.765625 23.5 61.675781 23.515625 61.589844 23.542969 C 61.546875 23.535156 61.507812 23.527344 61.464844 23.527344 C 61.289062 23.527344 61.101562 23.601562 60.910156 23.671875 C 60.714844 23.742188 60.515625 23.8125 60.3125 23.8125 C 60.21875 23.8125 60.125 23.796875 60.03125 23.761719 C 59.867188 23.707031 59.730469 23.515625 59.550781 23.515625 C 59.53125 23.515625 59.515625 23.519531 59.496094 23.523438 C 58.917969 23.648438 58.855469 24.511719 58.507812 24.992188 " fill-opacity="1" fill-rule="nonzero"/><path fill="#40bb64" d="M 58.589844 24.695312 C 58.667969 24.425781 58.753906 24.160156 58.847656 23.90625 C 58.753906 24.160156 58.667969 24.425781 58.589844 24.695312 M 62.339844 23.652344 C 62.246094 23.414062 62.144531 23.191406 62.035156 22.980469 C 62.144531 23.191406 62.246094 23.414062 62.339844 23.652344 M 59.136719 23.207031 C 59.136719 23.203125 59.136719 23.203125 59.136719 23.203125 C 59.269531 22.929688 59.40625 22.675781 59.554688 22.460938 C 59.40625 22.675781 59.269531 22.929688 59.136719 23.207031 M 62.035156 22.980469 L 62.035156 22.980469 M 62.035156 22.976562 L 62.035156 22.976562 " fill-opacity="1" fill-rule="nonzero"/><path fill="#b9e6c0" d="M 59.101562 29.023438 C 58.636719 29.023438 58.640625 28.300781 59.105469 28.292969 C 59.292969 28.292969 59.460938 28.25 59.628906 28.199219 L 59.625 28.203125 L 59.347656 29.011719 C 59.269531 29.015625 59.1875 29.019531 59.105469 29.023438 C 59.105469 29.023438 59.101562 29.023438 59.101562 29.023438 " fill-opacity="1" fill-rule="nonzero"/><path fill="#8ad59d" d="M 55.066406 27.820312 C 54.496094 27.820312 54.085938 27.363281 53.648438 26.882812 C 53.515625 26.734375 53.378906 26.582031 53.230469 26.433594 C 53.078125 26.285156 52.925781 26.144531 52.777344 26.011719 C 52.28125 25.566406 51.851562 25.179688 51.839844 24.625 C 51.828125 24.195312 52.078125 23.734375 52.628906 23.1875 C 53.78125 22.035156 56.371094 20.433594 57.964844 20.433594 C 58.375 20.433594 58.695312 20.542969 58.914062 20.761719 C 59.566406 21.410156 59.140625 22.765625 58.671875 23.789062 C 58.125 24.976562 57.269531 26.246094 56.480469 27.03125 C 55.941406 27.570312 55.492188 27.820312 55.066406 27.820312 " fill-opacity="1" fill-rule="nonzero"/><path fill="#4ebf6a" d="M 57.964844 20.226562 L 57.964844 20.640625 L 57.964844 20.226562 C 56.316406 20.226562 53.660156 21.863281 52.480469 23.039062 C 51.886719 23.632812 51.617188 24.136719 51.628906 24.628906 C 51.648438 25.273438 52.128906 25.707031 52.640625 26.167969 C 52.785156 26.296875 52.9375 26.433594 53.082031 26.578125 C 53.226562 26.722656 53.363281 26.875 53.492188 27.019531 C 53.960938 27.539062 54.402344 28.027344 55.066406 28.027344 C 55.550781 28.027344 56.046875 27.757812 56.628906 27.175781 C 57.429688 26.378906 58.304688 25.082031 58.859375 23.875 C 59.355469 22.792969 59.796875 21.347656 59.0625 20.613281 C 58.800781 20.355469 58.433594 20.226562 57.964844 20.226562 M 57.964844 20.640625 C 58.300781 20.640625 58.582031 20.722656 58.765625 20.910156 C 59.75 21.890625 57.832031 25.390625 56.335938 26.882812 C 55.808594 27.40625 55.410156 27.609375 55.066406 27.609375 C 54.4375 27.609375 54.011719 26.921875 53.375 26.285156 C 52.394531 25.304688 51.28125 24.828125 52.777344 23.332031 C 53.988281 22.125 56.523438 20.640625 57.964844 20.640625 " fill-opacity="1" fill-rule="nonzero"/><path fill="#71cc8c" d="M 58.394531 23.882812 C 58.390625 23.847656 58.386719 23.808594 58.378906 23.773438 C 58.566406 23.246094 58.734375 22.710938 58.867188 22.160156 C 58.90625 22.183594 58.945312 22.203125 58.984375 22.222656 C 58.890625 22.722656 58.679688 23.300781 58.394531 23.882812 " fill-opacity="1" fill-rule="nonzero"/><path fill="#8ad59d" d="M 52.035156 21.757812 C 51.253906 21.757812 50.753906 21.609375 50.457031 21.296875 C 50.074219 20.894531 50.101562 20.320312 50.136719 19.652344 C 50.148438 19.453125 50.15625 19.25 50.15625 19.039062 C 50.15625 18.828125 50.148438 18.621094 50.136719 18.425781 C 50.101562 17.757812 50.074219 17.183594 50.457031 16.78125 C 50.753906 16.46875 51.253906 16.320312 52.035156 16.320312 C 53.144531 16.320312 54.652344 16.613281 55.878906 17.070312 C 56.9375 17.460938 58.199219 18.121094 58.199219 19.039062 C 58.199219 20.636719 54.199219 21.757812 52.035156 21.757812 " fill-opacity="1" fill-rule="nonzero"/><path fill="#4ebf6a" d="M 52.035156 16.113281 C 51.195312 16.113281 50.644531 16.28125 50.304688 16.636719 C 49.859375 17.105469 49.894531 17.75 49.929688 18.433594 C 49.9375 18.632812 49.949219 18.832031 49.949219 19.039062 C 49.949219 19.242188 49.9375 19.445312 49.929688 19.640625 C 49.894531 20.324219 49.859375 20.972656 50.304688 21.4375 C 50.644531 21.796875 51.195312 21.964844 52.035156 21.964844 C 53.882812 21.964844 58.40625 20.9375 58.40625 19.039062 C 58.40625 18.003906 57.070312 17.289062 55.953125 16.875 C 54.707031 16.410156 53.167969 16.113281 52.035156 16.113281 M 52.035156 16.527344 C 54.152344 16.527344 57.992188 17.652344 57.992188 19.039062 C 57.992188 20.425781 54.152344 21.546875 52.035156 21.546875 C 49.917969 21.546875 50.367188 20.425781 50.367188 19.039062 C 50.367188 17.652344 49.917969 16.527344 52.035156 16.527344 " fill-opacity="1" fill-rule="nonzero"/><path fill="#8ad59d" d="M 57.964844 17.644531 C 56.371094 17.644531 53.78125 16.039062 52.628906 14.890625 C 52.078125 14.339844 51.828125 13.882812 51.839844 13.449219 C 51.851562 12.894531 52.28125 12.511719 52.777344 12.0625 C 52.925781 11.929688 53.078125 11.792969 53.230469 11.644531 C 53.378906 11.496094 53.515625 11.34375 53.648438 11.195312 C 54.085938 10.714844 54.496094 10.257812 55.066406 10.257812 C 55.492188 10.257812 55.941406 10.507812 56.480469 11.046875 C 57.269531 11.832031 58.125 13.101562 58.671875 14.285156 C 59.140625 15.3125 59.566406 16.667969 58.914062 17.316406 C 58.695312 17.535156 58.375 17.644531 57.964844 17.644531 " fill-opacity="1" fill-rule="nonzero"/><path fill="#4ebf6a" d="M 55.066406 10.050781 C 54.402344 10.050781 53.960938 10.539062 53.492188 11.058594 C 53.363281 11.203125 53.226562 11.351562 53.082031 11.496094 C 52.9375 11.640625 52.785156 11.777344 52.640625 11.910156 C 52.128906 12.367188 51.648438 12.800781 51.628906 13.445312 C 51.617188 13.9375 51.886719 14.445312 52.480469 15.035156 C 53.660156 16.210938 56.316406 17.851562 57.964844 17.851562 C 58.433594 17.851562 58.800781 17.722656 59.0625 17.460938 C 59.796875 16.730469 59.355469 15.285156 58.859375 14.199219 C 58.304688 12.992188 57.429688 11.699219 56.628906 10.898438 C 56.046875 10.320312 55.550781 10.050781 55.066406 10.050781 M 55.066406 10.464844 C 55.410156 10.464844 55.808594 10.667969 56.335938 11.191406 C 57.832031 12.6875 59.75 16.1875 58.765625 17.167969 C 58.582031 17.355469 58.300781 17.4375 57.964844 17.4375 C 56.523438 17.4375 53.988281 15.953125 52.777344 14.742188 C 51.28125 13.25 52.394531 12.773438 53.375 11.792969 C 54.011719 11.15625 54.4375 10.464844 55.066406 10.464844 " fill-opacity="1" fill-rule="nonzero"/><path fill="#f89b52" d="M 60.640625 22.382812 C 58.792969 22.382812 57.289062 20.882812 57.289062 19.039062 C 57.289062 17.195312 58.792969 15.691406 60.640625 15.691406 C 62.492188 15.691406 63.996094 17.195312 63.996094 19.039062 C 63.996094 20.882812 62.492188 22.382812 60.640625 22.382812 " fill-opacity="1" fill-rule="nonzero"/><path fill="#845333" d="M 60.640625 15.449219 C 58.65625 15.449219 57.042969 17.058594 57.042969 19.039062 C 57.042969 21.015625 58.65625 22.628906 60.640625 22.628906 C 62.628906 22.628906 64.242188 21.015625 64.242188 19.039062 C 64.242188 17.058594 62.628906 15.449219 60.640625 15.449219 M 60.640625 15.9375 C 62.359375 15.9375 63.753906 17.324219 63.753906 19.039062 C 63.753906 20.75 62.359375 22.140625 60.640625 22.140625 C 58.925781 22.140625 57.53125 20.75 57.53125 19.039062 C 57.53125 17.324219 58.925781 15.9375 60.640625 15.9375 " fill-opacity="1" fill-rule="nonzero"/><path fill="#f68641" d="M 60.675781 22.140625 C 62.292969 21.398438 63.339844 19.847656 63.609375 18.109375 C 63.699219 18.386719 63.746094 18.683594 63.753906 18.984375 C 63.753906 18.992188 63.753906 18.996094 63.753906 19 C 63.753906 19.003906 63.753906 19.011719 63.753906 19.015625 C 63.753906 19.019531 63.753906 19.019531 63.753906 19.023438 C 63.753906 19.023438 63.753906 19.027344 63.753906 19.03125 C 63.753906 19.035156 63.753906 19.035156 63.753906 19.039062 C 63.753906 19.042969 63.753906 19.046875 63.753906 19.046875 C 63.753906 19.050781 63.753906 19.050781 63.753906 19.050781 C 63.753906 19.050781 63.753906 19.054688 63.753906 19.054688 C 63.753906 19.054688 63.753906 19.058594 63.753906 19.058594 C 63.753906 19.058594 63.753906 19.058594 63.753906 19.0625 C 63.753906 19.0625 63.753906 19.066406 63.753906 19.066406 C 63.753906 19.070312 63.753906 19.070312 63.753906 19.070312 C 63.753906 19.070312 63.753906 19.074219 63.753906 19.074219 C 63.753906 19.078125 63.753906 19.078125 63.753906 19.078125 C 63.753906 19.078125 63.753906 19.082031 63.753906 19.082031 C 63.753906 19.085938 63.753906 19.085938 63.753906 19.085938 C 63.753906 19.085938 63.753906 19.085938 63.753906 19.089844 C 63.753906 19.089844 63.753906 19.089844 63.753906 19.09375 C 63.753906 19.09375 63.753906 19.09375 63.75 19.097656 C 63.75 19.101562 63.75 19.101562 63.75 19.101562 C 63.75 19.105469 63.75 19.105469 63.75 19.109375 C 63.714844 20.777344 62.351562 22.121094 60.675781 22.140625 " fill-opacity="1" fill-rule="nonzero"/><path fill="#854a2d" d="M 63.75 19.101562 L 63.75 19.101562 M 63.75 19.097656 L 63.75 19.097656 M 63.753906 19.09375 L 63.753906 19.09375 M 63.753906 19.089844 C 63.753906 19.085938 63.753906 19.085938 63.753906 19.085938 C 63.753906 19.085938 63.753906 19.085938 63.753906 19.089844 M 63.753906 19.082031 L 63.753906 19.082031 M 63.753906 19.078125 C 63.753906 19.078125 63.753906 19.078125 63.753906 19.074219 C 63.753906 19.078125 63.753906 19.078125 63.753906 19.078125 M 63.753906 19.074219 C 63.753906 19.074219 63.753906 19.070312 63.753906 19.070312 C 63.753906 19.070312 63.753906 19.074219 63.753906 19.074219 M 63.753906 19.066406 L 63.753906 19.066406 M 63.753906 19.0625 L 63.753906 19.0625 M 63.753906 19.058594 C 63.753906 19.058594 63.753906 19.054688 63.753906 19.054688 C 63.753906 19.054688 63.753906 19.058594 63.753906 19.058594 M 63.753906 19.054688 C 63.753906 19.054688 63.753906 19.050781 63.753906 19.050781 C 63.753906 19.050781 63.753906 19.054688 63.753906 19.054688 M 63.753906 19.046875 C 63.753906 19.046875 63.753906 19.042969 63.753906 19.039062 C 63.753906 19.042969 63.753906 19.046875 63.753906 19.046875 M 63.753906 19.03125 L 63.753906 19.03125 M 63.753906 19.015625 L 63.753906 19.015625 M 63.753906 19 L 63.753906 19 " fill-opacity="1" fill-rule="nonzero"/><path fill="#fddec3" d="M 59.253906 17.765625 C 59.234375 17.410156 59.207031 17.0625 59.164062 16.710938 C 59.351562 16.617188 59.550781 16.554688 59.757812 16.53125 C 59.769531 16.527344 59.785156 16.527344 59.796875 16.527344 C 60.027344 16.527344 60.214844 16.773438 60.214844 16.988281 C 60.214844 17.257812 60.003906 17.414062 59.757812 17.445312 C 59.574219 17.464844 59.390625 17.597656 59.253906 17.765625 " fill-opacity="1" fill-rule="nonzero"/><path fill="#f14161" d="M 21.796875 28.582031 C 21.757812 28.582031 21.71875 28.574219 21.679688 28.558594 C 21.550781 28.527344 20.804688 28.445312 20.019531 28.355469 C 16.84375 28.003906 10.933594 27.34375 8.9375 26.328125 C 7.449219 25.570312 6.164062 23.527344 5.660156 21.117188 C 5.214844 18.992188 5.480469 17.136719 6.390625 16.027344 C 7.496094 14.683594 9.6875 13.710938 11.597656 13.710938 C 11.71875 13.710938 11.835938 13.714844 11.953125 13.722656 C 12.691406 13.773438 14.402344 14.183594 15.566406 15.082031 C 15.625 13.617188 16.410156 12.046875 16.847656 11.449219 C 17.976562 9.898438 20.300781 8.6875 22.140625 8.6875 L 22.195312 8.6875 C 23.632812 8.707031 25.230469 9.695312 26.574219 11.402344 C 28.097656 13.335938 28.839844 15.636719 28.464844 17.257812 C 27.957031 19.4375 24.71875 24.347656 22.980469 26.988281 C 22.546875 27.644531 22.140625 28.261719 22.089844 28.371094 C 22.058594 28.457031 22 28.515625 21.921875 28.554688 C 21.878906 28.574219 21.839844 28.582031 21.796875 28.582031 " fill-opacity="1" fill-rule="nonzero"/><path fill="#893449" d="M 22.140625 8.363281 C 20.175781 8.363281 17.789062 9.605469 16.582031 11.257812 C 16.167969 11.828125 15.492188 13.140625 15.292969 14.496094 C 14.121094 13.777344 12.683594 13.445312 11.976562 13.398438 C 11.851562 13.386719 11.726562 13.382812 11.597656 13.382812 C 9.597656 13.382812 7.300781 14.410156 6.140625 15.820312 C 5.167969 17.007812 4.875 18.960938 5.339844 21.183594 C 5.863281 23.683594 7.21875 25.816406 8.789062 26.617188 C 10.835938 27.660156 16.785156 28.324219 19.984375 28.679688 C 20.730469 28.765625 21.4375 28.84375 21.59375 28.875 C 21.65625 28.894531 21.722656 28.902344 21.785156 28.902344 C 21.878906 28.902344 21.972656 28.882812 22.0625 28.84375 C 22.207031 28.773438 22.324219 28.652344 22.386719 28.503906 C 22.460938 28.367188 22.84375 27.785156 23.253906 27.167969 C 25.003906 24.511719 28.261719 19.566406 28.78125 17.332031 C 29.175781 15.617188 28.414062 13.210938 26.832031 11.203125 C 25.425781 9.417969 23.738281 8.382812 22.199219 8.363281 L 22.140625 8.363281 M 22.140625 9.011719 L 22.191406 9.011719 C 25.292969 9.050781 28.847656 14.144531 28.144531 17.183594 C 27.496094 19.992188 21.925781 27.847656 21.785156 28.253906 C 21.386719 28.101562 11.65625 27.347656 9.085938 26.039062 C 6.296875 24.617188 4.679688 18.625 6.644531 16.234375 C 7.71875 14.925781 9.855469 14.035156 11.597656 14.035156 C 11.710938 14.035156 11.820312 14.039062 11.929688 14.046875 C 12.816406 14.109375 15.003906 14.691406 15.953125 15.914062 C 15.628906 14.402344 16.585938 12.355469 17.109375 11.640625 C 18.160156 10.203125 20.347656 9.011719 22.140625 9.011719 " fill-opacity="1" fill-rule="nonzero"/><path fill="#ef3352" d="M 22.546875 27.050781 C 22.242188 26.605469 21.894531 26.261719 21.53125 26 C 21.566406 25.527344 21.679688 25.046875 21.886719 24.566406 C 22.0625 24.191406 22.230469 23.820312 22.398438 23.453125 C 22.671875 24.265625 23 25.050781 23.359375 25.816406 C 23.058594 26.277344 22.78125 26.695312 22.546875 27.050781 " fill-opacity="1" fill-rule="nonzero"/><path fill="#892a3d" d="M 22.574219 27.09375 C 22.566406 27.078125 22.554688 27.066406 22.546875 27.050781 C 22.78125 26.695312 23.058594 26.277344 23.359375 25.816406 C 23.367188 25.832031 23.375 25.847656 23.382812 25.863281 C 23.082031 26.328125 22.804688 26.742188 22.574219 27.09375 " fill-opacity="1" fill-rule="nonzero"/><path fill="#f89da2" d="M 8.445312 23.675781 C 8.027344 23.675781 7.628906 23.421875 7.460938 23.019531 C 6.496094 20.722656 6.722656 17.605469 8.699219 15.902344 C 8.875 15.753906 9.089844 15.683594 9.308594 15.683594 C 9.636719 15.683594 9.972656 15.839844 10.171875 16.101562 C 10.535156 16.574219 10.40625 17.195312 9.972656 17.570312 C 9.941406 17.59375 9.914062 17.621094 9.882812 17.644531 C 9.875 17.65625 9.859375 17.675781 9.835938 17.699219 C 9.753906 17.796875 9.671875 17.890625 9.601562 17.996094 C 9.566406 18.046875 9.535156 18.097656 9.5 18.148438 C 9.496094 18.152344 9.492188 18.160156 9.488281 18.167969 C 9.445312 18.253906 9.402344 18.339844 9.367188 18.429688 C 9.316406 18.546875 9.265625 18.667969 9.226562 18.792969 C 9.207031 18.84375 9.191406 18.894531 9.175781 18.945312 C 9.171875 18.960938 9.167969 18.984375 9.160156 19.011719 C 9.109375 19.238281 9.066406 19.46875 9.046875 19.703125 C 9.03125 19.839844 9.019531 19.972656 9.015625 20.109375 C 9.015625 20.148438 9.015625 20.175781 9.015625 20.191406 C 9.015625 20.246094 9.015625 20.296875 9.019531 20.347656 C 9.027344 20.582031 9.046875 20.816406 9.082031 21.046875 C 9.101562 21.175781 9.121094 21.304688 9.148438 21.433594 C 9.160156 21.480469 9.171875 21.53125 9.179688 21.578125 C 9.183594 21.59375 9.191406 21.613281 9.195312 21.636719 C 9.257812 21.839844 9.328125 22.039062 9.414062 22.238281 C 9.632812 22.765625 9.355469 23.390625 8.828125 23.601562 C 8.703125 23.652344 8.574219 23.675781 8.445312 23.675781 " fill-opacity="1" fill-rule="nonzero"/><path fill="#de47ac" d="M 74.007812 33.585938 C 73.90625 33.585938 73.8125 33.539062 73.75 33.460938 C 72.570312 32 70.964844 31.800781 69.402344 31.800781 C 68.90625 31.800781 68.390625 31.824219 67.894531 31.84375 C 67.386719 31.867188 66.867188 31.890625 66.355469 31.890625 C 64.714844 31.890625 62.851562 31.664062 61.496094 29.984375 C 61.425781 29.894531 61.402344 29.777344 61.441406 29.667969 L 62.386719 26.9375 C 62.425781 26.820312 62.53125 26.734375 62.65625 26.71875 L 62.699219 26.714844 C 62.808594 26.714844 62.910156 26.769531 62.972656 26.859375 C 64.371094 28.890625 66.433594 29.003906 68.613281 29.121094 C 70.859375 29.242188 73.179688 29.367188 74.765625 31.664062 C 74.824219 31.75 74.839844 31.859375 74.804688 31.960938 C 74.671875 32.339844 74.316406 33.363281 74.316406 33.363281 C 74.277344 33.476562 74.179688 33.558594 74.0625 33.582031 C 74.042969 33.582031 74.023438 33.585938 74.007812 33.585938 " fill-opacity="1" fill-rule="nonzero"/><path fill="#9f3185" d="M 62.699219 26.386719 C 62.671875 26.386719 62.640625 26.390625 62.609375 26.394531 C 62.363281 26.425781 62.15625 26.59375 62.074219 26.828125 L 61.574219 28.28125 L 61.128906 29.5625 C 61.054688 29.777344 61.09375 30.011719 61.238281 30.191406 C 62.683594 31.980469 64.636719 32.222656 66.355469 32.222656 C 66.875 32.222656 67.398438 32.199219 67.910156 32.175781 C 68.402344 32.152344 68.914062 32.128906 69.402344 32.128906 C 70.882812 32.128906 72.398438 32.316406 73.492188 33.667969 C 73.617188 33.824219 73.808594 33.914062 74.007812 33.914062 C 74.042969 33.914062 74.082031 33.910156 74.121094 33.90625 C 74.355469 33.863281 74.550781 33.699219 74.628906 33.472656 L 74.722656 33.207031 C 74.855469 32.828125 74.984375 32.445312 75.117188 32.066406 C 75.1875 31.871094 75.15625 31.652344 75.035156 31.480469 C 73.359375 29.046875 70.847656 28.910156 68.632812 28.792969 C 66.441406 28.671875 64.550781 28.570312 63.242188 26.671875 C 63.121094 26.492188 62.914062 26.386719 62.699219 26.386719 M 62.699219 27.046875 C 65.683594 31.378906 71.507812 27.519531 74.492188 31.851562 C 74.328125 32.320312 74.167969 32.789062 74.007812 33.257812 C 72.789062 31.746094 71.144531 31.46875 69.402344 31.46875 C 68.398438 31.46875 67.359375 31.5625 66.355469 31.5625 C 64.613281 31.5625 62.96875 31.285156 61.753906 29.777344 C 62.070312 28.867188 62.382812 27.957031 62.699219 27.046875 " fill-opacity="1" fill-rule="nonzero"/><path fill="#d42fa0" d="M 74.007812 33.257812 C 74.003906 33.253906 74.003906 33.253906 74.003906 33.25 C 74 33.246094 73.996094 33.242188 73.992188 33.238281 C 73.984375 33.226562 73.972656 33.214844 73.964844 33.207031 C 73.964844 33.203125 73.960938 33.203125 73.960938 33.203125 C 73.960938 33.199219 73.957031 33.199219 73.957031 33.195312 C 73.359375 32.480469 72.664062 32.050781 71.90625 31.796875 C 71.125 31.539062 70.277344 31.46875 69.402344 31.46875 C 68.703125 31.46875 67.988281 31.515625 67.28125 31.542969 C 66.972656 31.554688 66.660156 31.5625 66.355469 31.5625 C 64.914062 31.5625 63.535156 31.371094 62.414062 30.449219 C 62.414062 30.445312 62.414062 30.445312 62.414062 30.445312 C 62.410156 30.445312 62.410156 30.445312 62.410156 30.445312 C 62.410156 30.445312 62.40625 30.445312 62.40625 30.441406 C 62.402344 30.4375 62.398438 30.433594 62.394531 30.429688 L 62.59375 29.855469 C 63.71875 30.792969 65.105469 30.988281 66.554688 30.988281 C 67.058594 30.988281 67.566406 30.964844 68.078125 30.941406 C 68.589844 30.917969 69.101562 30.894531 69.601562 30.894531 C 71.34375 30.894531 72.988281 31.171875 74.207031 32.679688 C 74.140625 32.871094 74.074219 33.0625 74.007812 33.257812 " fill-opacity="1" fill-rule="nonzero"/><path fill="#9a2881" d="M 74.003906 33.25 C 74 33.246094 73.996094 33.242188 73.992188 33.238281 C 73.996094 33.242188 74 33.246094 74.003906 33.25 M 73.992188 33.238281 C 73.984375 33.226562 73.972656 33.214844 73.964844 33.207031 C 73.972656 33.214844 73.984375 33.226562 73.992188 33.238281 M 73.960938 33.203125 C 73.960938 33.199219 73.957031 33.199219 73.957031 33.195312 C 73.957031 33.199219 73.960938 33.199219 73.960938 33.203125 M 71.90625 31.796875 C 71.125 31.539062 70.277344 31.46875 69.402344 31.46875 C 68.902344 31.46875 68.390625 31.492188 67.878906 31.515625 C 67.679688 31.523438 67.480469 31.535156 67.28125 31.542969 C 67.988281 31.515625 68.703125 31.46875 69.402344 31.46875 C 70.277344 31.46875 71.125 31.539062 71.90625 31.796875 M 62.414062 30.449219 C 62.414062 30.445312 62.414062 30.445312 62.414062 30.445312 C 62.414062 30.445312 62.414062 30.445312 62.414062 30.449219 M 62.410156 30.445312 L 62.410156 30.445312 M 62.40625 30.441406 C 62.402344 30.4375 62.398438 30.433594 62.394531 30.429688 C 62.398438 30.433594 62.402344 30.4375 62.40625 30.441406 " fill-opacity="1" fill-rule="nonzero"/><path fill="#de47ac" d="M 53.230469 45.835938 C 52.964844 45.835938 52.691406 45.816406 52.425781 45.777344 C 51.199219 45.605469 49.886719 45.019531 48.90625 44.210938 C 47.785156 43.289062 47.25 42.222656 47.394531 41.207031 C 47.664062 39.292969 50.25 38.148438 52.59375 38.148438 C 52.90625 38.148438 53.210938 38.167969 53.5 38.210938 C 54.53125 38.355469 55.46875 38.761719 56.199219 39.375 L 61.457031 24.203125 C 61.5 24.082031 61.59375 23.984375 61.714844 23.945312 C 61.761719 23.925781 61.808594 23.917969 61.855469 23.917969 C 61.933594 23.917969 62.011719 23.941406 62.078125 23.984375 L 63.542969 24.902344 C 63.707031 25.007812 63.78125 25.214844 63.714844 25.398438 L 57.347656 43.511719 L 57.332031 43.550781 C 56.679688 44.9375 55.070312 45.835938 53.230469 45.835938 " fill-opacity="1" fill-rule="nonzero"/><path fill="#9f3185" d="M 61.855469 23.5 C 61.761719 23.5 61.664062 23.515625 61.574219 23.546875 C 61.332031 23.632812 61.140625 23.824219 61.058594 24.066406 L 60.402344 25.957031 L 59.625 28.203125 L 55.992188 38.695312 C 55.285156 38.234375 54.457031 37.921875 53.558594 37.792969 C 53.25 37.75 52.925781 37.726562 52.59375 37.726562 C 50.070312 37.726562 47.28125 39.007812 46.976562 41.148438 C 46.8125 42.3125 47.402344 43.515625 48.636719 44.535156 C 49.675781 45.390625 51.070312 46.011719 52.367188 46.195312 C 52.652344 46.234375 52.945312 46.253906 53.230469 46.253906 C 55.234375 46.253906 56.992188 45.261719 57.710938 43.730469 C 57.722656 43.703125 57.734375 43.679688 57.742188 43.652344 L 64.113281 25.535156 C 64.242188 25.167969 64.101562 24.757812 63.765625 24.546875 L 62.304688 23.628906 C 62.167969 23.542969 62.011719 23.5 61.855469 23.5 M 61.855469 24.339844 L 63.316406 25.257812 L 56.949219 43.375 C 56.375 44.605469 54.914062 45.414062 53.230469 45.414062 C 52.984375 45.414062 52.738281 45.398438 52.484375 45.363281 C 50.152344 45.03125 47.546875 43.125 47.808594 41.265625 C 48.042969 39.625 50.433594 38.566406 52.59375 38.566406 C 52.882812 38.566406 53.167969 38.585938 53.441406 38.625 C 54.664062 38.796875 55.703125 39.371094 56.382812 40.140625 L 60.421875 28.476562 L 61.199219 26.230469 L 61.855469 24.339844 " fill-opacity="1" fill-rule="nonzero"/><path fill="#d42fa0" d="M 52.683594 45.386719 C 52.617188 45.378906 52.550781 45.371094 52.484375 45.363281 C 52.070312 45.304688 51.644531 45.195312 51.230469 45.046875 C 51.253906 44.914062 51.28125 44.78125 51.304688 44.644531 C 51.597656 44.734375 51.890625 44.796875 52.179688 44.839844 C 52.433594 44.875 52.683594 44.890625 52.929688 44.890625 C 53.070312 44.890625 53.207031 44.886719 53.339844 44.875 C 53.125 45.039062 52.90625 45.210938 52.683594 45.386719 M 56.765625 42.507812 L 62.917969 25.007812 L 63.316406 25.257812 L 57.386719 42.128906 C 57.222656 42.226562 57.015625 42.351562 56.765625 42.507812 " fill-opacity="1" fill-rule="nonzero"/><path fill="#9a2881" d="M 52.683594 45.386719 C 52.617188 45.378906 52.550781 45.371094 52.484375 45.363281 C 52.550781 45.371094 52.617188 45.378906 52.683594 45.386719 M 57.386719 42.128906 L 63.316406 25.257812 L 57.386719 42.128906 " fill-opacity="1" fill-rule="nonzero"/><path fill="#eea1d5" d="M 53.800781 40.765625 C 53.738281 40.765625 53.667969 40.757812 53.597656 40.738281 C 53.25 40.648438 52.769531 40.601562 52.246094 40.601562 C 52.199219 40.601562 52.152344 40.601562 52.109375 40.601562 C 52.207031 40.136719 52.308594 39.664062 52.414062 39.191406 C 52.566406 39.179688 52.71875 39.171875 52.867188 39.171875 C 53.273438 39.171875 53.652344 39.214844 53.96875 39.296875 C 54.832031 39.519531 54.578125 40.765625 53.800781 40.765625 " fill-opacity="1" fill-rule="nonzero"/><path fill="#f7972c" d="M 46.546875 57.390625 C 46.472656 57.390625 46.398438 57.363281 46.339844 57.308594 L 44.730469 55.75 C 44.636719 55.660156 44.613281 55.519531 44.671875 55.402344 C 44.722656 55.300781 44.824219 55.238281 44.9375 55.238281 L 44.988281 55.242188 L 46.203125 55.449219 L 46.738281 54.417969 C 48.84375 48.675781 54.167969 44.5 58.265625 42.003906 C 62.695312 39.304688 66.6875 37.9375 66.726562 37.925781 C 66.757812 37.914062 66.792969 37.910156 66.824219 37.910156 C 66.878906 37.910156 66.933594 37.921875 66.980469 37.953125 C 67.058594 38 67.105469 38.078125 67.121094 38.167969 L 69.242188 53.695312 C 69.257812 53.796875 69.214844 53.902344 69.132812 53.96875 C 69.082031 54.007812 69.015625 54.03125 68.949219 54.03125 C 68.914062 54.03125 68.878906 54.027344 68.84375 54.011719 C 65.679688 52.839844 62.601562 52.242188 59.691406 52.242188 C 53.40625 52.242188 49.980469 55.035156 49.949219 55.0625 L 49.929688 55.078125 L 46.71875 57.335938 C 46.667969 57.375 46.605469 57.390625 46.546875 57.390625 " fill-opacity="1" fill-rule="nonzero"/><path fill="#f68712" d="M 66.824219 37.613281 C 66.761719 37.613281 66.695312 37.621094 66.632812 37.644531 C 66.46875 37.699219 62.566406 39.035156 58.109375 41.75 C 53.976562 44.265625 48.605469 48.488281 46.464844 54.300781 L 46.039062 55.121094 L 45.035156 54.949219 C 45.003906 54.945312 44.96875 54.941406 44.9375 54.941406 C 44.714844 54.941406 44.507812 55.066406 44.40625 55.269531 C 44.289062 55.5 44.335938 55.78125 44.523438 55.964844 L 46.132812 57.519531 C 46.246094 57.632812 46.398438 57.6875 46.546875 57.6875 C 46.667969 57.6875 46.785156 57.652344 46.890625 57.578125 L 50.101562 55.320312 L 50.136719 55.292969 C 50.171875 55.265625 53.546875 52.542969 59.691406 52.542969 C 62.566406 52.542969 65.609375 53.128906 68.738281 54.292969 C 68.808594 54.316406 68.878906 54.328125 68.949219 54.328125 C 69.082031 54.328125 69.214844 54.285156 69.320312 54.199219 C 69.484375 54.066406 69.566406 53.863281 69.539062 53.65625 L 67.414062 38.125 C 67.390625 37.949219 67.289062 37.792969 67.136719 37.699219 C 67.042969 37.640625 66.933594 37.613281 66.824219 37.613281 M 66.824219 38.207031 L 68.949219 53.734375 C 65.394531 52.417969 62.300781 51.945312 59.691406 51.945312 C 53.226562 51.945312 49.757812 54.835938 49.757812 54.835938 L 46.546875 57.09375 L 44.9375 55.539062 L 46.367188 55.78125 L 47.007812 54.539062 C 51.019531 43.5625 66.824219 38.207031 66.824219 38.207031 " fill-opacity="1" fill-rule="nonzero"/><path fill="#f9a72b" d="M 46.992188 60.714844 L 46.953125 60.714844 C 46.847656 60.699219 46.757812 60.632812 46.71875 60.535156 L 44.660156 55.652344 C 44.628906 55.578125 44.628906 55.496094 44.664062 55.421875 C 47.890625 47.800781 57.832031 42.210938 57.933594 42.15625 C 57.976562 42.132812 58.027344 42.117188 58.078125 42.117188 C 58.140625 42.117188 58.199219 42.136719 58.25 42.175781 L 63.925781 46.246094 C 63.992188 46.292969 64.035156 46.367188 64.046875 46.445312 C 64.058594 46.527344 64.035156 46.605469 63.984375 46.671875 L 59.625 52.199219 C 59.566406 52.269531 59.480469 52.3125 59.390625 52.3125 L 59.351562 52.308594 C 59.179688 52.285156 59.003906 52.273438 58.824219 52.273438 C 54.003906 52.273438 47.292969 60.523438 47.226562 60.605469 C 47.167969 60.675781 47.082031 60.714844 46.992188 60.714844 " fill-opacity="1" fill-rule="nonzero"/><path fill="#f68712" d="M 58.078125 41.820312 C 57.976562 41.820312 57.878906 41.847656 57.789062 41.898438 C 57.683594 41.953125 55.230469 43.324219 52.34375 45.660156 C 48.441406 48.8125 45.765625 52.054688 44.386719 55.304688 C 44.324219 55.453125 44.324219 55.621094 44.386719 55.765625 L 46.445312 60.648438 C 46.523438 60.84375 46.703125 60.980469 46.910156 61.007812 C 46.9375 61.011719 46.964844 61.011719 46.992188 61.011719 C 47.171875 61.011719 47.34375 60.933594 47.457031 60.792969 C 47.523438 60.710938 54.148438 52.570312 58.824219 52.570312 C 58.988281 52.570312 59.152344 52.582031 59.308594 52.601562 C 59.335938 52.605469 59.363281 52.609375 59.390625 52.609375 C 59.570312 52.609375 59.746094 52.527344 59.859375 52.382812 L 64.21875 46.855469 C 64.320312 46.726562 64.363281 46.566406 64.34375 46.402344 C 64.320312 46.242188 64.230469 46.097656 64.101562 46.003906 L 58.425781 41.933594 C 58.320312 41.859375 58.199219 41.820312 58.078125 41.820312 M 58.078125 42.417969 L 63.75 46.488281 L 59.390625 52.015625 C 59.203125 51.988281 59.015625 51.976562 58.824219 51.976562 C 53.804688 51.976562 46.992188 60.417969 46.992188 60.417969 L 44.9375 55.539062 C 48.164062 47.921875 58.078125 42.417969 58.078125 42.417969 " fill-opacity="1" fill-rule="nonzero"/><path fill="#f9a72b" d="M 62.472656 46.492188 C 62.472656 46.492188 48.804688 49.546875 45.898438 57.824219 L 62.472656 46.492188 " fill-opacity="1" fill-rule="nonzero"/><path fill="#f68712" d="M 62.410156 46.199219 C 62.394531 46.203125 58.960938 46.972656 55.148438 48.785156 C 53.242188 49.691406 51.238281 50.859375 49.519531 52.335938 C 47.804688 53.808594 46.367188 55.589844 45.617188 57.722656 C 45.5625 57.878906 45.644531 58.046875 45.800781 58.101562 C 45.957031 58.15625 46.125 58.074219 46.179688 57.921875 C 46.882812 55.914062 48.246094 54.210938 49.910156 52.785156 C 52.402344 50.644531 55.566406 49.136719 58.101562 48.171875 C 59.371094 47.6875 60.480469 47.339844 61.277344 47.113281 C 61.671875 47 61.988281 46.914062 62.207031 46.859375 C 62.316406 46.832031 62.398438 46.8125 62.457031 46.800781 C 62.484375 46.792969 62.503906 46.789062 62.519531 46.785156 L 62.539062 46.78125 C 62.699219 46.746094 62.800781 46.585938 62.765625 46.425781 C 62.730469 46.265625 62.570312 46.164062 62.410156 46.199219 " fill-opacity="1" fill-rule="nonzero"/><path fill="#fcd528" d="M 68.949219 53.996094 C 68.875 53.996094 68.800781 53.964844 68.75 53.90625 L 64.8125 49.320312 L 59.515625 52.242188 C 59.476562 52.265625 59.433594 52.277344 59.390625 52.277344 C 59.320312 52.277344 59.253906 52.25 59.203125 52.199219 C 59.121094 52.117188 59.105469 51.988281 59.160156 51.886719 L 62.144531 46.542969 L 57.898438 42.609375 C 57.8125 42.527344 57.792969 42.402344 57.84375 42.300781 C 57.886719 42.210938 57.980469 42.152344 58.078125 42.152344 L 58.121094 42.15625 L 63.96875 43.152344 L 66.589844 38.085938 C 66.636719 37.996094 66.726562 37.945312 66.824219 37.945312 L 66.871094 37.949219 C 66.984375 37.96875 67.070312 38.0625 67.085938 38.175781 L 67.765625 43.835938 L 73.589844 44.945312 C 73.707031 44.964844 73.792969 45.058594 73.804688 45.175781 C 73.816406 45.289062 73.75 45.398438 73.644531 45.441406 L 68.285156 47.648438 L 69.207031 53.695312 C 69.226562 53.8125 69.164062 53.925781 69.058594 53.972656 C 69.023438 53.988281 68.984375 53.996094 68.949219 53.996094 " fill-opacity="1" fill-rule="nonzero"/><path fill="#f68712" d="M 66.824219 37.683594 C 66.628906 37.683594 66.449219 37.789062 66.359375 37.964844 L 63.824219 42.863281 L 58.164062 41.898438 C 58.136719 41.894531 58.105469 41.890625 58.078125 41.890625 C 57.878906 41.890625 57.695312 42.003906 57.605469 42.183594 C 57.503906 42.390625 57.550781 42.640625 57.71875 42.800781 L 61.816406 46.59375 L 58.929688 51.757812 C 58.816406 51.964844 58.851562 52.21875 59.019531 52.382812 C 59.121094 52.484375 59.253906 52.539062 59.390625 52.539062 C 59.476562 52.539062 59.566406 52.515625 59.644531 52.472656 L 64.753906 49.652344 L 68.550781 54.074219 C 68.652344 54.195312 68.800781 54.257812 68.949219 54.257812 C 69.023438 54.257812 69.097656 54.242188 69.167969 54.210938 C 69.378906 54.113281 69.503906 53.886719 69.46875 53.65625 L 68.578125 47.8125 L 73.742188 45.683594 C 73.957031 45.597656 74.089844 45.378906 74.066406 45.148438 C 74.042969 44.917969 73.871094 44.730469 73.640625 44.6875 L 68.003906 43.613281 L 67.34375 38.144531 C 67.320312 37.914062 67.144531 37.730469 66.917969 37.691406 C 66.886719 37.683594 66.855469 37.683594 66.824219 37.683594 M 66.824219 38.207031 L 67.527344 44.058594 L 73.542969 45.199219 L 67.996094 47.484375 L 68.949219 53.734375 L 64.871094 48.988281 L 59.390625 52.015625 L 62.472656 46.492188 L 58.078125 42.417969 L 64.113281 43.445312 L 66.824219 38.207031 " fill-opacity="1" fill-rule="nonzero"/><path fill="#fcd006" d="M 59.390625 52.015625 L 62.472656 46.492188 L 58.078125 42.417969 L 59.851562 42.71875 L 63.445312 46.050781 L 60.441406 51.433594 L 59.390625 52.015625 " fill-opacity="1" fill-rule="nonzero"/><path fill="#f47515" d="M 59.390625 52.015625 L 60.441406 51.433594 L 59.390625 52.015625 M 62.472656 46.492188 L 58.078125 42.417969 L 62.472656 46.492188 " fill-opacity="1" fill-rule="nonzero"/><path fill="#fef1ba" d="M 72.808594 45.269531 L 67.671875 45.027344 L 66.410156 44.945312 L 66.476562 43.910156 L 66.722656 39.113281 L 67.175781 44.234375 L 72.808594 45.269531 " fill-opacity="1" fill-rule="nonzero"/><path fill="#fef1ba" d="M 68.667969 53.078125 L 67.269531 48.390625 L 67.851562 47.65625 L 68.667969 53.078125 " fill-opacity="1" fill-rule="nonzero"/><path fill="#f89b52" d="M 26.410156 31.777344 C 26.230469 31.777344 26.0625 31.808594 25.910156 31.878906 C 25.488281 32.066406 25.195312 32.496094 25.085938 33.082031 C 24.972656 33.707031 25.078125 34.425781 25.382812 35.105469 C 25.875 36.207031 26.804688 36.976562 27.644531 36.976562 C 27.820312 36.976562 27.988281 36.941406 28.144531 36.871094 C 29.046875 36.46875 29.285156 35.019531 28.667969 33.644531 C 28.175781 32.542969 27.246094 31.777344 26.410156 31.777344 M 25.679688 55.480469 C 20.160156 55.480469 13.972656 50.003906 10.636719 42.160156 C 9.3125 39.050781 9.726562 35.847656 10.726562 34.054688 C 11.304688 33.019531 12.078125 32.394531 12.964844 32.257812 C 13.21875 32.214844 13.484375 32.195312 13.757812 32.195312 C 15.105469 32.195312 16.464844 32.691406 17.664062 33.125 C 18.640625 33.480469 19.558594 33.816406 20.289062 33.816406 C 20.628906 33.816406 20.90625 33.742188 21.140625 33.59375 C 21.679688 33.25 21.855469 32.417969 22.058594 31.457031 C 22.355469 30.035156 22.726562 28.261719 24.523438 27.289062 C 24.796875 27.140625 25.105469 27.066406 25.449219 27.066406 C 27.542969 27.066406 30.585938 29.902344 31.964844 33.136719 C 33.914062 37.722656 34.652344 42.503906 34.042969 46.59375 C 33.425781 50.730469 31.507812 53.679688 28.636719 54.890625 C 27.714844 55.28125 26.722656 55.480469 25.679688 55.480469 " fill-opacity="1" fill-rule="nonzero"/><path fill="#5a3114" d="M 27.644531 36.730469 C 26.898438 36.730469 26.0625 36.019531 25.609375 35.003906 C 25.324219 34.367188 25.222656 33.703125 25.328125 33.128906 C 25.421875 32.621094 25.664062 32.257812 26.011719 32.101562 C 26.132812 32.046875 26.265625 32.019531 26.410156 32.019531 C 27.152344 32.019531 27.988281 32.730469 28.445312 33.746094 C 28.996094 34.976562 28.8125 36.304688 28.042969 36.648438 C 27.921875 36.703125 27.785156 36.730469 27.644531 36.730469 M 25.449219 26.820312 C 25.066406 26.820312 24.714844 26.90625 24.40625 27.070312 C 22.511719 28.101562 22.125 29.933594 21.816406 31.40625 C 21.625 32.316406 21.460938 33.097656 21.007812 33.386719 C 20.816406 33.511719 20.578125 33.570312 20.289062 33.570312 C 19.601562 33.570312 18.703125 33.242188 17.75 32.894531 C 16.53125 32.453125 15.148438 31.949219 13.757812 31.949219 C 13.472656 31.949219 13.191406 31.972656 12.925781 32.015625 C 11.960938 32.164062 11.125 32.832031 10.511719 33.933594 C 9.484375 35.78125 9.054688 39.070312 10.410156 42.257812 C 13.785156 50.1875 20.0625 55.726562 25.679688 55.726562 C 26.753906 55.726562 27.78125 55.519531 28.734375 55.117188 C 31.683594 53.871094 33.65625 50.855469 34.285156 46.632812 C 34.902344 42.496094 34.160156 37.667969 32.1875 33.039062 C 30.757812 29.667969 27.667969 26.820312 25.449219 26.820312 M 27.644531 37.222656 C 27.851562 37.222656 28.054688 37.179688 28.242188 37.097656 C 29.273438 36.636719 29.566406 35.046875 28.894531 33.546875 C 28.34375 32.320312 27.324219 31.53125 26.40625 31.53125 C 26.203125 31.53125 26 31.570312 25.808594 31.65625 C 24.777344 32.113281 24.488281 33.703125 25.160156 35.207031 C 25.707031 36.433594 26.726562 37.222656 27.644531 37.222656 M 25.449219 27.3125 C 27.414062 27.3125 30.386719 30.054688 31.738281 33.234375 C 35.734375 42.628906 34.304688 52.226562 28.542969 54.664062 C 27.632812 55.050781 26.671875 55.234375 25.679688 55.234375 C 20.378906 55.234375 14.230469 49.980469 10.863281 42.066406 C 9.074219 37.859375 10.449219 32.902344 13.003906 32.5 C 13.253906 32.460938 13.503906 32.441406 13.757812 32.441406 C 16.160156 32.441406 18.59375 34.058594 20.289062 34.058594 C 20.652344 34.058594 20.984375 33.984375 21.273438 33.800781 C 22.78125 32.84375 21.734375 29.078125 24.640625 27.503906 C 24.882812 27.371094 25.152344 27.3125 25.449219 27.3125 " fill-opacity="1" fill-rule="nonzero"/><path fill="#df8444" d="M 20.679688 35.519531 C 19.734375 35.382812 18.835938 34.519531 17.964844 33.496094 C 18 33.507812 18.035156 33.519531 18.070312 33.535156 C 18.765625 33.78125 19.414062 33.988281 19.988281 34.042969 C 20.023438 34.21875 20.085938 34.394531 20.175781 34.570312 C 20.28125 34.773438 20.414062 34.949219 20.566406 35.09375 C 20.585938 35.234375 20.625 35.378906 20.679688 35.519531 " fill-opacity="1" fill-rule="nonzero"/><path fill="#532c16" d="M 19.988281 34.042969 C 19.414062 33.988281 18.765625 33.78125 18.070312 33.535156 C 18.765625 33.78125 19.414062 33.988281 19.988281 34.042969 " fill-opacity="1" fill-rule="nonzero"/><path fill="#df8444" d="M 25.648438 30.175781 C 24.839844 29.578125 24.058594 29.210938 23.378906 28.988281 C 23.355469 28.890625 23.328125 28.792969 23.300781 28.699219 C 23.558594 28.328125 23.886719 27.988281 24.3125 27.703125 C 24.539062 28.132812 24.773438 28.558594 25.003906 28.980469 C 25.214844 29.375 25.433594 29.773438 25.648438 30.175781 " fill-opacity="1" fill-rule="nonzero"/><path fill="#60b5e8" d="M 15.140625 42.433594 C 14.3125 42.433594 13.492188 41.417969 13.148438 39.960938 C 12.773438 38.359375 13.15625 36.992188 14.042969 36.785156 C 14.117188 36.769531 14.191406 36.761719 14.269531 36.761719 C 15.085938 36.761719 15.925781 37.800781 16.261719 39.234375 C 16.636719 40.835938 16.253906 42.199219 15.367188 42.40625 C 15.292969 42.425781 15.21875 42.433594 15.140625 42.433594 " fill-opacity="1" fill-rule="nonzero"/><path fill="#5a3114" d="M 14.269531 36.414062 C 14.167969 36.414062 14.066406 36.429688 13.964844 36.453125 C 12.871094 36.707031 12.386719 38.214844 12.8125 40.039062 C 13.191406 41.652344 14.148438 42.777344 15.140625 42.777344 C 15.242188 42.777344 15.34375 42.765625 15.445312 42.742188 C 16.539062 42.484375 17.023438 40.976562 16.597656 39.15625 C 16.21875 37.542969 15.261719 36.414062 14.269531 36.414062 M 14.269531 37.105469 C 14.910156 37.105469 15.628906 38.039062 15.925781 39.3125 C 16.246094 40.679688 15.960938 41.914062 15.289062 42.074219 C 15.238281 42.085938 15.191406 42.089844 15.140625 42.089844 C 14.5 42.089844 13.785156 41.152344 13.484375 39.882812 C 13.164062 38.515625 13.449219 37.277344 14.125 37.121094 C 14.171875 37.109375 14.21875 37.105469 14.269531 37.105469 " fill-opacity="1" fill-rule="nonzero"/><path fill="#4aa7e2" d="M 15.789062 41.652344 C 15.769531 40.011719 15.371094 38.386719 14.328125 37.109375 C 14.816406 37.152344 15.34375 37.722656 15.6875 38.558594 C 15.78125 38.789062 15.863281 39.042969 15.925781 39.3125 C 16.046875 39.824219 16.082031 40.316406 16.042969 40.742188 C 16.011719 41.105469 15.921875 41.421875 15.789062 41.652344 " fill-opacity="1" fill-rule="nonzero"/><path fill="#482f17" d="M 16.042969 40.742188 C 16.082031 40.316406 16.046875 39.824219 15.925781 39.3125 C 16.046875 39.824219 16.082031 40.316406 16.042969 40.742188 M 15.925781 39.3125 C 15.863281 39.042969 15.78125 38.789062 15.6875 38.558594 C 15.78125 38.789062 15.863281 39.042969 15.925781 39.3125 " fill-opacity="1" fill-rule="nonzero"/><path fill="#8ad59d" d="M 19.390625 49.226562 C 18.664062 49.226562 17.734375 48.621094 17.019531 47.679688 C 16.027344 46.367188 15.824219 44.960938 16.550781 44.414062 C 16.730469 44.277344 16.953125 44.210938 17.203125 44.210938 C 17.929688 44.210938 18.859375 44.816406 19.570312 45.757812 C 20.011719 46.339844 20.316406 46.980469 20.429688 47.554688 C 20.558594 48.214844 20.421875 48.738281 20.042969 49.023438 C 19.859375 49.15625 19.640625 49.226562 19.390625 49.226562 " fill-opacity="1" fill-rule="nonzero"/><path fill="#5a3114" d="M 17.203125 43.867188 C 16.878906 43.867188 16.582031 43.960938 16.34375 44.140625 C 15.445312 44.820312 15.613281 46.394531 16.746094 47.886719 C 17.535156 48.925781 18.546875 49.570312 19.390625 49.570312 C 19.714844 49.570312 20.011719 49.476562 20.25 49.296875 C 20.53125 49.082031 20.976562 48.5625 20.765625 47.488281 C 20.648438 46.863281 20.320312 46.175781 19.84375 45.550781 C 19.058594 44.511719 18.046875 43.867188 17.203125 43.867188 M 17.203125 44.554688 C 17.800781 44.550781 18.636719 45.09375 19.296875 45.964844 C 20.144531 47.085938 20.386719 48.332031 19.835938 48.746094 C 19.710938 48.839844 19.558594 48.882812 19.390625 48.882812 C 18.792969 48.882812 17.957031 48.34375 17.296875 47.472656 C 16.445312 46.351562 16.207031 45.105469 16.757812 44.6875 C 16.882812 44.597656 17.03125 44.554688 17.203125 44.554688 " fill-opacity="1" fill-rule="nonzero"/><path fill="#71cc8c" d="M 20.066406 48.417969 C 19.324219 46.941406 18.039062 45.746094 16.574219 44.910156 C 16.621094 44.820312 16.683594 44.746094 16.757812 44.6875 C 16.882812 44.597656 17.03125 44.554688 17.203125 44.554688 C 17.226562 44.554688 17.246094 44.554688 17.269531 44.554688 C 17.75 44.585938 18.367188 44.941406 18.921875 45.527344 C 19.050781 45.660156 19.175781 45.808594 19.296875 45.964844 C 19.984375 46.871094 20.269531 47.855469 20.066406 48.417969 " fill-opacity="1" fill-rule="nonzero"/><path fill="#4d3016" d="M 19.296875 45.964844 C 19.175781 45.808594 19.050781 45.660156 18.921875 45.527344 C 19.050781 45.660156 19.175781 45.808594 19.296875 45.964844 M 16.757812 44.6875 C 16.882812 44.597656 17.03125 44.554688 17.203125 44.554688 C 17.226562 44.554688 17.246094 44.554688 17.269531 44.554688 C 17.246094 44.554688 17.226562 44.554688 17.203125 44.554688 C 17.03125 44.554688 16.882812 44.597656 16.757812 44.6875 " fill-opacity="1" fill-rule="nonzero"/><path fill="#f14161" d="M 26.09375 53.019531 C 25.523438 53.019531 24.859375 52.859375 24.226562 52.570312 C 23.5625 52.265625 22.988281 51.847656 22.617188 51.394531 C 22.191406 50.871094 22.066406 50.347656 22.265625 49.917969 C 22.46875 49.46875 22.976562 49.222656 23.695312 49.222656 C 24.265625 49.222656 24.929688 49.382812 25.5625 49.675781 C 27.058594 50.359375 27.90625 51.5 27.527344 52.328125 C 27.320312 52.773438 26.8125 53.019531 26.09375 53.019531 " fill-opacity="1" fill-rule="nonzero"/><path fill="#5a3114" d="M 23.695312 48.878906 C 22.847656 48.878906 22.210938 49.207031 21.949219 49.773438 C 21.804688 50.09375 21.65625 50.761719 22.351562 51.609375 C 22.753906 52.105469 23.371094 52.554688 24.082031 52.882812 C 24.761719 53.191406 25.476562 53.363281 26.09375 53.363281 C 26.941406 53.363281 27.574219 53.039062 27.839844 52.46875 C 28.308594 51.449219 27.410156 50.140625 25.703125 49.363281 C 25.027344 49.050781 24.3125 48.878906 23.695312 48.878906 M 23.695312 49.566406 C 24.199219 49.566406 24.808594 49.707031 25.417969 49.984375 C 26.699219 50.570312 27.5 51.554688 27.210938 52.183594 C 27.0625 52.511719 26.640625 52.675781 26.09375 52.675781 C 25.59375 52.675781 24.980469 52.539062 24.371094 52.257812 C 23.089844 51.671875 22.289062 50.6875 22.578125 50.0625 C 22.726562 49.734375 23.148438 49.566406 23.695312 49.566406 " fill-opacity="1" fill-rule="nonzero"/><path fill="#ef3352" d="M 26.996094 51.191406 C 25.796875 50.402344 24.3125 49.992188 22.78125 49.992188 C 22.726562 49.992188 22.671875 49.992188 22.617188 49.992188 C 22.792969 49.710938 23.1875 49.566406 23.699219 49.566406 C 24.199219 49.566406 24.808594 49.707031 25.417969 49.984375 C 26.125 50.308594 26.683594 50.753906 26.996094 51.191406 " fill-opacity="1" fill-rule="nonzero"/><path fill="#fcd4b1" d="M 11.609375 41.355469 C 11.402344 41.355469 11.207031 41.238281 11.125 41.039062 C 10.320312 39.128906 9.632812 35.074219 12.773438 33.421875 C 12.851562 33.382812 12.9375 33.359375 13.023438 33.359375 C 13.207031 33.359375 13.386719 33.453125 13.484375 33.621094 C 13.53125 33.703125 13.550781 33.796875 13.546875 33.886719 C 13.539062 34.054688 13.441406 34.214844 13.28125 34.300781 C 10.164062 35.941406 12.074219 40.625 12.09375 40.671875 C 12.199219 40.929688 12.070312 41.21875 11.800781 41.320312 C 11.738281 41.34375 11.675781 41.355469 11.609375 41.355469 " fill-opacity="1" fill-rule="nonzero"/><path fill="#4f4c4c" d="M 20.992188 32.902344 C 20.046875 32.863281 19.21875 32.378906 18.71875 31.570312 C 18.234375 30.78125 18.160156 30.050781 18.082031 29.277344 C 18.070312 29.144531 18.054688 29.011719 18.039062 28.875 C 17.957031 28.15625 17.652344 26.949219 16.582031 26.949219 C 16.382812 26.949219 16.160156 26.988281 15.925781 27.066406 C 15.886719 27.082031 15.847656 27.089844 15.808594 27.089844 C 15.660156 27.089844 15.523438 27 15.460938 26.859375 C 15.386719 26.679688 15.460938 26.472656 15.636719 26.382812 C 15.699219 26.351562 17.214844 25.589844 18.894531 25.589844 C 20.863281 25.589844 23.226562 26.617188 23.308594 31.515625 C 23.3125 31.660156 23.234375 31.789062 23.109375 31.855469 L 21.179688 32.859375 C 21.128906 32.886719 21.070312 32.902344 21.007812 32.902344 L 20.992188 32.902344 " fill-opacity="1" fill-rule="nonzero"/><path fill="#393536" d="M 18.894531 25.214844 C 17.125 25.214844 15.535156 26.019531 15.464844 26.050781 C 15.117188 26.230469 14.964844 26.644531 15.121094 27.007812 C 15.238281 27.289062 15.515625 27.460938 15.808594 27.460938 C 15.886719 27.460938 15.96875 27.449219 16.046875 27.421875 C 16.246094 27.351562 16.421875 27.320312 16.582031 27.320312 C 17.324219 27.320312 17.582031 28.1875 17.667969 28.917969 C 17.683594 29.050781 17.695312 29.183594 17.710938 29.3125 C 17.789062 30.097656 17.871094 30.90625 18.402344 31.765625 C 18.964844 32.679688 19.90625 33.230469 20.980469 33.273438 L 21.007812 33.273438 C 21.128906 33.273438 21.246094 33.246094 21.355469 33.1875 L 23.28125 32.183594 C 23.53125 32.054688 23.6875 31.792969 23.683594 31.511719 C 23.589844 26.035156 20.644531 25.214844 18.894531 25.214844 M 18.894531 25.960938 C 20.785156 25.960938 22.859375 27 22.9375 31.523438 L 21.007812 32.527344 C 20.246094 32.5 19.5 32.125 19.039062 31.375 C 18.519531 30.535156 18.515625 29.75 18.410156 28.832031 C 18.246094 27.417969 17.601562 26.574219 16.582031 26.574219 C 16.34375 26.574219 16.085938 26.621094 15.808594 26.714844 C 15.808594 26.714844 17.285156 25.960938 18.894531 25.960938 " fill-opacity="1" fill-rule="nonzero"/><path fill="#454142" d="M 22.488281 31.660156 C 22.292969 27.5 20.292969 26.527344 18.460938 26.527344 C 18.003906 26.527344 17.554688 26.585938 17.148438 26.675781 C 16.976562 26.609375 16.785156 26.574219 16.582031 26.574219 C 16.34375 26.574219 16.085938 26.621094 15.808594 26.714844 C 15.855469 26.691406 17.3125 25.960938 18.894531 25.960938 C 18.949219 25.960938 19 25.960938 19.054688 25.964844 C 20.550781 26.011719 22.125 26.75 22.703125 29.371094 C 22.835938 29.957031 22.914062 30.640625 22.933594 31.429688 L 22.488281 31.660156 " fill-opacity="1" fill-rule="nonzero"/><path fill="#343131" d="M 22.933594 31.429688 C 22.914062 30.640625 22.835938 29.957031 22.703125 29.371094 C 22.835938 29.957031 22.914062 30.636719 22.933594 31.429688 M 15.808594 26.714844 C 16.085938 26.621094 16.34375 26.574219 16.582031 26.574219 C 16.785156 26.574219 16.976562 26.609375 17.148438 26.675781 C 17.148438 26.675781 17.144531 26.675781 17.144531 26.675781 C 16.96875 26.609375 16.777344 26.578125 16.574219 26.578125 C 16.335938 26.578125 16.082031 26.621094 15.808594 26.714844 M 15.808594 26.714844 C 15.855469 26.691406 17.3125 25.960938 18.894531 25.960938 C 18.949219 25.960938 19 25.960938 19.054688 25.964844 C 19 25.960938 18.949219 25.960938 18.894531 25.960938 C 17.3125 25.960938 15.855469 26.691406 15.808594 26.714844 " fill-opacity="1" fill-rule="nonzero"/><path fill="#a7a5a6" d="M 20.683594 32.191406 C 20.65625 32.191406 20.625 32.1875 20.589844 32.179688 C 19.96875 32.015625 19.089844 31.265625 18.859375 30.648438 C 18.796875 30.480469 18.789062 30.296875 18.894531 30.214844 C 18.921875 30.195312 18.949219 30.1875 18.984375 30.1875 C 19.070312 30.1875 19.167969 30.246094 19.210938 30.367188 C 19.386719 30.839844 20.285156 31.414062 20.761719 31.539062 C 21.144531 31.640625 21.027344 32.191406 20.683594 32.191406 " fill-opacity="1" fill-rule="nonzero"/><path fill="#f9a72b" d="M 32.8125 53.402344 C 31.03125 53.402344 26.320312 45.777344 24.742188 42.746094 C 23.320312 40 22.332031 37.277344 22.109375 35.46875 C 22.089844 35.3125 22.167969 35.164062 22.304688 35.089844 L 24.4375 33.988281 C 24.492188 33.960938 24.550781 33.949219 24.609375 33.949219 C 24.699219 33.949219 24.789062 33.980469 24.859375 34.046875 C 26.214844 35.277344 27.875 37.648438 29.296875 40.390625 C 30.472656 42.652344 31.730469 45.609375 32.578125 48.109375 C 34.167969 52.789062 33.441406 53.167969 33.128906 53.328125 C 33.03125 53.378906 32.925781 53.402344 32.8125 53.402344 " fill-opacity="1" fill-rule="nonzero"/><path fill="#5a3114" d="M 24.609375 33.574219 C 24.492188 33.574219 24.375 33.605469 24.265625 33.660156 L 22.136719 34.761719 C 21.855469 34.902344 21.699219 35.203125 21.738281 35.515625 C 21.96875 37.367188 22.96875 40.132812 24.410156 42.917969 C 25.535156 45.078125 27.171875 47.726562 28.679688 49.828125 C 29.488281 50.953125 30.210938 51.855469 30.824219 52.503906 C 31.667969 53.394531 32.261719 53.777344 32.8125 53.777344 C 32.988281 53.777344 33.152344 53.738281 33.300781 53.660156 C 34.097656 53.246094 34.339844 52.125 32.933594 47.992188 C 32.078125 45.472656 30.8125 42.496094 29.628906 40.21875 C 28.1875 37.441406 26.5 35.03125 25.113281 33.769531 C 24.96875 33.640625 24.789062 33.574219 24.609375 33.574219 M 24.609375 34.320312 C 25.878906 35.476562 27.511719 37.761719 28.964844 40.5625 C 31.261719 44.984375 34.03125 52.441406 32.957031 52.996094 C 32.914062 53.019531 32.863281 53.03125 32.8125 53.03125 C 31.523438 53.03125 27.277344 46.816406 25.074219 42.574219 C 23.621094 39.769531 22.691406 37.125 22.480469 35.421875 L 24.609375 34.320312 " fill-opacity="1" fill-rule="nonzero"/><path fill="#f79422" d="M 29.253906 42.9375 C 29.078125 42.574219 28.902344 42.222656 28.730469 41.890625 C 27.59375 39.699219 26.347656 37.828125 25.253906 36.5625 L 26.0625 36.144531 C 26.101562 36.125 26.140625 36.101562 26.171875 36.078125 C 26.980469 37.132812 27.832031 38.457031 28.640625 39.953125 C 28.863281 40.980469 29.070312 41.992188 29.253906 42.9375 " fill-opacity="1" fill-rule="nonzero"/><path fill="#a7a5a6" d="M 22.660156 37.398438 C 22.296875 37.398438 21.917969 37.117188 21.695312 36.683594 C 21.585938 36.472656 21.523438 36.253906 21.515625 36.050781 C 21.355469 35.925781 21.210938 35.75 21.101562 35.542969 C 20.992188 35.335938 20.933594 35.113281 20.921875 34.910156 C 20.761719 34.785156 20.617188 34.609375 20.507812 34.398438 C 20.207031 33.816406 20.292969 33.210938 20.710938 32.996094 L 23.640625 31.484375 C 23.734375 31.433594 23.835938 31.410156 23.945312 31.410156 C 24.304688 31.410156 24.683594 31.691406 24.910156 32.128906 C 25.015625 32.335938 25.078125 32.554688 25.085938 32.757812 C 25.25 32.882812 25.394531 33.058594 25.5 33.269531 C 25.609375 33.476562 25.671875 33.695312 25.679688 33.902344 C 25.84375 34.027344 25.988281 34.203125 26.09375 34.40625 C 26.398438 34.992188 26.308594 35.597656 25.890625 35.816406 L 22.960938 37.328125 C 22.867188 37.375 22.765625 37.398438 22.660156 37.398438 " fill-opacity="1" fill-rule="nonzero"/><path fill="#4f4c4c" d="M 23.945312 31.039062 C 23.777344 31.039062 23.617188 31.078125 23.46875 31.152344 L 20.539062 32.664062 C 19.933594 32.976562 19.773438 33.800781 20.175781 34.570312 C 20.28125 34.773438 20.414062 34.949219 20.566406 35.09375 C 20.597656 35.300781 20.664062 35.515625 20.769531 35.714844 C 20.875 35.914062 21.007812 36.089844 21.15625 36.234375 C 21.1875 36.4375 21.253906 36.648438 21.359375 36.851562 C 21.65625 37.421875 22.152344 37.773438 22.660156 37.773438 C 22.824219 37.773438 22.984375 37.734375 23.132812 37.65625 L 26.0625 36.144531 C 26.671875 35.832031 26.828125 35.011719 26.425781 34.238281 C 26.320312 34.039062 26.1875 33.859375 26.035156 33.71875 C 26.007812 33.507812 25.9375 33.296875 25.832031 33.09375 C 25.730469 32.894531 25.59375 32.71875 25.441406 32.574219 C 25.414062 32.367188 25.34375 32.15625 25.242188 31.957031 C 24.949219 31.390625 24.449219 31.039062 23.945312 31.039062 M 23.945312 31.78125 C 24.15625 31.78125 24.414062 31.984375 24.578125 32.296875 C 24.699219 32.535156 24.738281 32.78125 24.699219 32.957031 C 24.867188 33.03125 25.046875 33.203125 25.171875 33.441406 C 25.292969 33.675781 25.332031 33.921875 25.292969 34.097656 C 25.460938 34.171875 25.640625 34.34375 25.761719 34.582031 C 25.960938 34.964844 25.941406 35.367188 25.71875 35.484375 L 22.789062 36.996094 C 22.75 37.015625 22.703125 37.027344 22.660156 37.027344 C 22.445312 37.027344 22.1875 36.824219 22.023438 36.511719 C 21.902344 36.273438 21.863281 36.03125 21.902344 35.851562 C 21.734375 35.78125 21.554688 35.605469 21.433594 35.371094 C 21.308594 35.132812 21.269531 34.890625 21.3125 34.710938 C 21.140625 34.640625 20.960938 34.464844 20.839844 34.230469 C 20.640625 33.847656 20.660156 33.441406 20.882812 33.328125 L 23.8125 31.8125 C 23.851562 31.792969 23.898438 31.78125 23.945312 31.78125 " fill-opacity="1" fill-rule="nonzero"/><path fill="#878585" d="M 24.675781 36.019531 C 24.503906 35.847656 24.363281 35.632812 24.304688 35.332031 C 24.285156 35.289062 24.308594 35.167969 24.332031 35.101562 C 24.308594 35.003906 24.265625 34.808594 24.152344 34.757812 C 23.8125 34.714844 23.453125 34.136719 23.457031 33.753906 C 23.421875 33.773438 23.382812 33.78125 23.339844 33.78125 C 23.183594 33.78125 23.011719 33.644531 22.867188 33.457031 C 22.636719 33.144531 22.675781 32.792969 22.546875 32.46875 L 23.8125 31.8125 C 23.851562 31.792969 23.898438 31.78125 23.945312 31.78125 C 24.074219 31.78125 24.21875 31.859375 24.351562 31.988281 C 24.4375 32.070312 24.515625 32.175781 24.578125 32.296875 C 24.667969 32.476562 24.714844 32.65625 24.714844 32.8125 C 24.714844 32.863281 24.710938 32.914062 24.699219 32.957031 C 24.867188 33.03125 25.046875 33.203125 25.171875 33.441406 C 25.261719 33.617188 25.308594 33.796875 25.308594 33.953125 C 25.308594 34.003906 25.300781 34.054688 25.292969 34.097656 C 25.460938 34.171875 25.640625 34.34375 25.761719 34.582031 C 25.855469 34.757812 25.898438 34.941406 25.898438 35.09375 C 25.898438 35.277344 25.839844 35.421875 25.71875 35.484375 L 24.675781 36.019531 " fill-opacity="1" fill-rule="nonzero"/><path fill="#454142" d="M 25.71875 35.484375 C 25.839844 35.421875 25.898438 35.277344 25.898438 35.09375 C 25.898438 35.277344 25.839844 35.421875 25.71875 35.484375 M 25.292969 34.097656 C 25.300781 34.054688 25.308594 34.003906 25.308594 33.953125 C 25.308594 34.003906 25.300781 34.054688 25.292969 34.097656 M 24.699219 32.957031 C 24.710938 32.914062 24.714844 32.863281 24.714844 32.8125 C 24.714844 32.863281 24.710938 32.914062 24.699219 32.957031 M 22.546875 32.46875 L 23.8125 31.8125 L 22.546875 32.46875 M 24.578125 32.296875 C 24.515625 32.175781 24.4375 32.070312 24.351562 31.988281 C 24.4375 32.070312 24.515625 32.175781 24.578125 32.296875 " fill-opacity="1" fill-rule="nonzero"/><path fill="#a7a5a6" d="M 21.75 35.984375 L 23.058594 35.308594 " fill-opacity="1" fill-rule="nonzero"/><path fill="#4f4c4c" d="M 21.808594 36.09375 L 23.117188 35.417969 C 23.179688 35.386719 23.199219 35.3125 23.171875 35.253906 C 23.136719 35.191406 23.0625 35.167969 23.003906 35.199219 L 21.695312 35.875 C 21.632812 35.90625 21.609375 35.980469 21.640625 36.042969 C 21.671875 36.101562 21.746094 36.125 21.808594 36.09375 " fill-opacity="1" fill-rule="nonzero"/><path fill="#a7a5a6" d="M 21.152344 34.832031 L 21.808594 34.492188 " fill-opacity="1" fill-rule="nonzero"/><path fill="#4f4c4c" d="M 21.207031 34.941406 L 21.863281 34.601562 C 21.925781 34.574219 21.949219 34.496094 21.917969 34.4375 C 21.886719 34.375 21.8125 34.351562 21.75 34.382812 L 21.09375 34.722656 C 21.035156 34.75 21.011719 34.828125 21.042969 34.886719 C 21.074219 34.949219 21.148438 34.972656 21.207031 34.941406 " fill-opacity="1" fill-rule="nonzero"/><path fill="#a7a5a6" d="M 24.742188 34.363281 L 25.394531 34.023438 " fill-opacity="1" fill-rule="nonzero"/><path fill="#4f4c4c" d="M 24.800781 34.472656 L 25.453125 34.132812 C 25.511719 34.101562 25.535156 34.027344 25.503906 33.96875 C 25.472656 33.90625 25.398438 33.882812 25.339844 33.914062 L 24.683594 34.253906 C 24.625 34.28125 24.601562 34.359375 24.632812 34.417969 C 24.664062 34.480469 24.738281 34.503906 24.800781 34.472656 " fill-opacity="1" fill-rule="nonzero"/><path fill="#a7a5a6" d="M 23.582031 33.574219 L 24.890625 32.898438 " fill-opacity="1" fill-rule="nonzero"/><path fill="#4f4c4c" d="M 23.640625 33.683594 L 24.949219 33.007812 C 25.007812 32.976562 25.03125 32.902344 25 32.84375 C 24.96875 32.78125 24.894531 32.757812 24.832031 32.789062 L 23.523438 33.464844 C 23.464844 33.496094 23.441406 33.570312 23.472656 33.632812 C 23.503906 33.691406 23.578125 33.71875 23.640625 33.683594 " fill-opacity="1" fill-rule="nonzero"/><path fill="#eeedee" d="M 22.691406 36.941406 C 22.535156 36.941406 22.273438 36.726562 22.164062 36.476562 C 22.125 36.390625 22.152344 36.335938 22.191406 36.335938 C 22.21875 36.335938 22.25 36.359375 22.277344 36.417969 C 22.335938 36.546875 22.511719 36.726562 22.601562 36.726562 C 22.605469 36.726562 22.613281 36.722656 22.617188 36.722656 C 22.621094 36.722656 22.625 36.722656 22.628906 36.722656 C 22.707031 36.722656 22.804688 36.917969 22.730469 36.9375 C 22.71875 36.941406 22.707031 36.941406 22.691406 36.941406 " fill-opacity="1" fill-rule="nonzero"/><path fill="#eeedee" d="M 21.8125 35.679688 C 21.804688 35.679688 21.789062 35.675781 21.773438 35.664062 C 21.65625 35.578125 21.550781 35.445312 21.46875 35.289062 C 21.425781 35.207031 21.449219 35.152344 21.492188 35.152344 C 21.519531 35.152344 21.554688 35.175781 21.582031 35.230469 C 21.636719 35.328125 21.699219 35.417969 21.773438 35.472656 C 21.863281 35.535156 21.875 35.679688 21.8125 35.679688 " fill-opacity="1" fill-rule="nonzero"/><path fill="#eeedee" d="M 21.171875 34.546875 C 21.160156 34.546875 21.140625 34.539062 21.117188 34.519531 C 20.941406 34.359375 20.824219 34.054688 20.765625 33.820312 C 20.75 33.761719 20.765625 33.738281 20.792969 33.738281 C 20.835938 33.738281 20.898438 33.792969 20.921875 33.878906 C 20.960938 34.035156 21.039062 34.253906 21.160156 34.359375 C 21.242188 34.433594 21.230469 34.546875 21.171875 34.546875 " fill-opacity="1" fill-rule="nonzero"/><path fill="#fcd08a" d="M 28.414062 47.105469 C 28.367188 46.886719 28.378906 46.734375 28.464844 46.671875 C 28.492188 46.65625 28.527344 46.644531 28.5625 46.644531 C 28.648438 46.644531 28.753906 46.6875 28.878906 46.765625 C 28.714844 46.867188 28.558594 46.980469 28.414062 47.105469 " fill-opacity="1" fill-rule="nonzero"/><path fill="#7b7979" d="M 40.445312 66.945312 C 36.507812 66.945312 33.304688 63.75 33.304688 59.824219 C 33.304688 55.894531 36.507812 52.699219 40.445312 52.699219 C 44.382812 52.699219 47.585938 55.894531 47.585938 59.824219 C 47.585938 63.75 44.382812 66.945312 40.445312 66.945312 " fill-opacity="1" fill-rule="nonzero"/><g clip-path="url(#af9b326dfd)"><path fill="#4f4c4c" d="M 40.445312 52.179688 C 36.21875 52.179688 32.78125 55.609375 32.78125 59.824219 C 32.78125 64.039062 36.21875 67.46875 40.445312 67.46875 C 44.671875 67.46875 48.109375 64.039062 48.109375 59.824219 C 48.109375 55.609375 44.671875 52.179688 40.445312 52.179688 M 40.445312 53.222656 C 44.101562 53.222656 47.0625 56.175781 47.0625 59.824219 C 47.0625 63.46875 44.101562 66.425781 40.445312 66.425781 C 36.789062 66.425781 33.828125 63.46875 33.828125 59.824219 C 33.828125 56.175781 36.789062 53.222656 40.445312 53.222656 " fill-opacity="1" fill-rule="nonzero"/></g><path fill="#666464" d="M 40.445312 66.425781 C 40.441406 66.425781 40.4375 66.425781 40.4375 66.425781 C 40.433594 66.425781 40.433594 66.425781 40.433594 66.425781 C 40.429688 66.425781 40.429688 66.425781 40.425781 66.425781 C 40.421875 66.425781 40.421875 66.425781 40.417969 66.425781 C 40.417969 66.425781 40.417969 66.425781 40.414062 66.425781 C 39.8125 66.421875 39.226562 66.335938 38.667969 66.183594 C 40.277344 64.683594 41.640625 62.886719 42.695312 60.996094 L 46.960938 60.996094 C 46.40625 64.082031 43.699219 66.425781 40.445312 66.425781 " fill-opacity="1" fill-rule="nonzero"/><path fill="#454142" d="M 40.445312 66.425781 C 40.441406 66.425781 40.4375 66.425781 40.4375 66.425781 C 40.4375 66.425781 40.441406 66.425781 40.445312 66.425781 C 43.699219 66.425781 46.40625 64.082031 46.960938 60.996094 C 46.40625 64.082031 43.699219 66.425781 40.445312 66.425781 M 40.433594 66.425781 C 40.429688 66.425781 40.429688 66.425781 40.425781 66.425781 C 40.429688 66.425781 40.429688 66.425781 40.433594 66.425781 M 40.417969 66.425781 C 40.417969 66.425781 40.417969 66.425781 40.414062 66.425781 C 40.417969 66.425781 40.417969 66.425781 40.417969 66.425781 " fill-opacity="1" fill-rule="nonzero"/><path fill="#fbc629" d="M 31.257812 48.683594 C 31.003906 48.683594 30.789062 48.5 30.746094 48.25 C 30.726562 48.113281 28.503906 34.585938 26.476562 30.640625 C 26.148438 30.003906 25.796875 29.359375 25.457031 28.734375 C 23.816406 25.722656 22.121094 22.609375 22.121094 18.835938 C 22.121094 8.757812 30.339844 0.558594 40.445312 0.558594 C 50.546875 0.558594 58.769531 8.757812 58.769531 18.835938 C 58.769531 22.609375 57.070312 25.722656 55.433594 28.734375 C 55.089844 29.359375 54.738281 30.007812 54.410156 30.640625 C 52.382812 34.585938 50.164062 48.105469 50.140625 48.242188 C 50.101562 48.492188 49.886719 48.675781 49.632812 48.675781 L 31.257812 48.683594 " fill-opacity="1" fill-rule="nonzero"/><path fill="#f68712" d="M 40.445312 0.0429688 C 30.054688 0.0429688 21.605469 8.472656 21.605469 18.835938 C 21.605469 22.738281 23.332031 25.914062 25.003906 28.980469 C 25.339844 29.601562 25.691406 30.246094 26.015625 30.875 C 28.007812 34.75 30.214844 48.195312 30.238281 48.332031 C 30.316406 48.832031 30.75 49.199219 31.257812 49.199219 L 49.632812 49.191406 C 50.140625 49.191406 50.570312 48.824219 50.652344 48.324219 C 50.675781 48.191406 52.878906 34.75 54.871094 30.878906 C 55.195312 30.246094 55.546875 29.601562 55.886719 28.980469 C 57.558594 25.914062 59.285156 22.738281 59.285156 18.835938 C 59.285156 8.472656 50.832031 0.0429688 40.445312 0.0429688 M 40.445312 1.074219 C 50.277344 1.074219 58.25 9.027344 58.25 18.835938 C 58.25 23.257812 55.828125 26.757812 53.953125 30.40625 C 51.859375 34.46875 49.632812 48.160156 49.632812 48.160156 L 31.257812 48.167969 C 31.257812 48.167969 29.027344 34.46875 26.9375 30.402344 C 25.058594 26.757812 22.636719 23.253906 22.636719 18.835938 C 22.636719 9.027344 30.609375 1.074219 40.445312 1.074219 " fill-opacity="1" fill-rule="nonzero"/><path fill="#f9ad20" d="M 49.96875 46.195312 L 43.613281 46.195312 C 43.402344 40.707031 43.113281 35.304688 46.722656 30.875 C 51.839844 24.65625 54.96875 17.53125 55.925781 10.050781 C 57.359375 12.566406 58.199219 15.464844 58.25 18.554688 C 58.25 18.5625 58.25 18.574219 58.25 18.582031 C 58.25 18.589844 58.25 18.59375 58.25 18.601562 C 58.25 18.605469 58.25 18.605469 58.25 18.609375 C 58.25 18.613281 58.25 18.613281 58.25 18.613281 C 58.25 18.617188 58.25 18.621094 58.25 18.625 C 58.25 18.628906 58.25 18.628906 58.25 18.632812 C 58.25 18.632812 58.25 18.636719 58.25 18.636719 C 58.25 18.640625 58.25 18.640625 58.25 18.644531 C 58.25 18.648438 58.25 18.648438 58.25 18.652344 C 58.25 18.65625 58.25 18.65625 58.25 18.660156 C 58.25 18.660156 58.25 18.664062 58.25 18.664062 C 58.25 18.667969 58.25 18.671875 58.25 18.675781 C 58.25 18.675781 58.25 18.679688 58.25 18.679688 C 58.25 18.683594 58.25 18.6875 58.25 18.6875 C 58.25 18.691406 58.25 18.691406 58.25 18.695312 C 58.25 18.699219 58.25 18.699219 58.25 18.703125 C 58.25 18.707031 58.25 18.707031 58.25 18.707031 C 58.25 18.710938 58.25 18.714844 58.25 18.71875 C 58.25 18.71875 58.25 18.71875 58.25 18.722656 C 58.25 18.726562 58.25 18.730469 58.25 18.734375 C 58.25 18.734375 58.25 18.734375 58.25 18.738281 C 58.25 18.742188 58.25 18.742188 58.25 18.746094 C 58.25 18.75 58.25 18.75 58.25 18.75 C 58.25 18.753906 58.25 18.757812 58.25 18.761719 C 58.25 18.761719 58.25 18.765625 58.25 18.765625 C 58.25 18.769531 58.25 18.773438 58.25 18.777344 C 58.25 18.78125 58.25 18.785156 58.25 18.789062 C 58.25 18.792969 58.25 18.792969 58.25 18.792969 C 58.25 18.796875 58.25 18.800781 58.25 18.804688 C 58.25 18.804688 58.25 18.804688 58.25 18.808594 C 58.25 18.8125 58.25 18.816406 58.25 18.820312 C 58.25 18.824219 58.25 18.832031 58.25 18.835938 C 58.25 23.257812 55.828125 26.757812 53.953125 30.40625 C 52.351562 33.515625 50.671875 42.261719 49.96875 46.195312 " fill-opacity="1" fill-rule="nonzero"/><path fill="#f57815" d="M 49.96875 46.195312 C 50.671875 42.261719 52.351562 33.515625 53.953125 30.40625 C 55.828125 26.757812 58.25 23.257812 58.25 18.835938 C 58.25 23.257812 55.828125 26.757812 53.953125 30.40625 C 52.351562 33.515625 50.671875 42.261719 49.96875 46.195312 M 58.25 18.835938 C 58.25 18.832031 58.25 18.824219 58.25 18.820312 C 58.25 18.824219 58.25 18.832031 58.25 18.835938 M 58.25 18.820312 C 58.25 18.816406 58.25 18.8125 58.25 18.808594 C 58.25 18.8125 58.25 18.816406 58.25 18.820312 M 58.25 18.804688 C 58.25 18.800781 58.25 18.796875 58.25 18.792969 C 58.25 18.796875 58.25 18.800781 58.25 18.804688 M 58.25 18.789062 C 58.25 18.785156 58.25 18.78125 58.25 18.777344 C 58.25 18.78125 58.25 18.785156 58.25 18.789062 M 58.25 18.777344 C 58.25 18.773438 58.25 18.769531 58.25 18.765625 C 58.25 18.769531 58.25 18.773438 58.25 18.777344 M 58.25 18.761719 C 58.25 18.757812 58.25 18.753906 58.25 18.75 C 58.25 18.753906 58.25 18.757812 58.25 18.761719 M 58.25 18.746094 C 58.25 18.742188 58.25 18.742188 58.25 18.738281 C 58.25 18.738281 58.25 18.742188 58.25 18.746094 M 58.25 18.734375 C 58.25 18.730469 58.25 18.726562 58.25 18.722656 C 58.25 18.726562 58.25 18.730469 58.25 18.734375 M 58.25 18.71875 C 58.25 18.714844 58.25 18.710938 58.25 18.707031 C 58.25 18.710938 58.25 18.714844 58.25 18.71875 M 58.25 18.703125 C 58.25 18.699219 58.25 18.699219 58.25 18.695312 C 58.25 18.699219 58.25 18.699219 58.25 18.703125 M 58.25 18.6875 C 58.25 18.6875 58.25 18.683594 58.25 18.679688 C 58.25 18.683594 58.25 18.6875 58.25 18.6875 M 58.25 18.675781 C 58.25 18.671875 58.25 18.667969 58.25 18.664062 C 58.25 18.667969 58.25 18.671875 58.25 18.675781 M 58.25 18.660156 C 58.25 18.65625 58.25 18.65625 58.25 18.652344 C 58.25 18.65625 58.25 18.65625 58.25 18.660156 M 58.25 18.644531 C 58.25 18.640625 58.25 18.640625 58.25 18.636719 C 58.25 18.640625 58.25 18.640625 58.25 18.644531 M 58.25 18.632812 C 58.25 18.628906 58.25 18.628906 58.25 18.625 C 58.25 18.628906 58.25 18.628906 58.25 18.632812 M 58.25 18.613281 C 58.25 18.613281 58.25 18.613281 58.25 18.609375 C 58.25 18.609375 58.25 18.613281 58.25 18.613281 M 58.25 18.601562 L 58.25 18.601562 M 58.25 18.582031 L 58.25 18.582031 " fill-opacity="1" fill-rule="nonzero"/><path fill="#a7a5a6" d="M 30.902344 60.476562 C 29.160156 60.476562 27.742188 59.164062 27.742188 57.550781 C 27.742188 56.8125 28.046875 56.109375 28.574219 55.574219 C 28.046875 55.039062 27.742188 54.335938 27.742188 53.597656 C 27.742188 52.855469 28.046875 52.152344 28.574219 51.621094 C 28.046875 51.085938 27.742188 50.382812 27.742188 49.640625 C 27.742188 48.03125 29.160156 46.71875 30.902344 46.71875 L 49.984375 46.71875 C 51.730469 46.71875 53.144531 48.03125 53.144531 49.640625 C 53.144531 50.382812 52.84375 51.085938 52.3125 51.621094 C 52.84375 52.152344 53.144531 52.855469 53.144531 53.597656 C 53.144531 54.335938 52.84375 55.039062 52.3125 55.574219 C 52.84375 56.109375 53.144531 56.8125 53.144531 57.550781 C 53.144531 59.164062 51.730469 60.476562 49.984375 60.476562 L 30.902344 60.476562 " fill-opacity="1" fill-rule="nonzero"/><path fill="#4f4c4c" d="M 49.984375 46.195312 L 30.902344 46.195312 C 28.871094 46.195312 27.21875 47.742188 27.21875 49.640625 C 27.21875 50.363281 27.457031 51.046875 27.886719 51.621094 C 27.457031 52.191406 27.21875 52.878906 27.21875 53.597656 C 27.21875 54.316406 27.457031 55.003906 27.886719 55.574219 C 27.457031 56.144531 27.21875 56.832031 27.21875 57.550781 C 27.21875 59.453125 28.871094 60.996094 30.902344 60.996094 L 49.984375 60.996094 C 52.015625 60.996094 53.667969 59.453125 53.667969 57.550781 C 53.667969 56.832031 53.429688 56.144531 53.003906 55.574219 C 53.429688 55.003906 53.667969 54.316406 53.667969 53.597656 C 53.667969 52.878906 53.429688 52.191406 53.003906 51.621094 C 53.429688 51.046875 53.667969 50.363281 53.667969 49.640625 C 53.667969 47.742188 52.015625 46.195312 49.984375 46.195312 M 49.984375 47.238281 C 51.441406 47.238281 52.625 48.316406 52.625 49.640625 C 52.625 50.460938 52.171875 51.1875 51.484375 51.621094 C 52.171875 52.054688 52.625 52.777344 52.625 53.597656 C 52.625 54.417969 52.171875 55.140625 51.484375 55.574219 C 52.171875 56.007812 52.625 56.730469 52.625 57.550781 C 52.625 58.878906 51.441406 59.953125 49.984375 59.953125 L 30.902344 59.953125 C 29.445312 59.953125 28.265625 58.878906 28.265625 57.550781 C 28.265625 56.730469 28.71875 56.007812 29.40625 55.574219 C 28.71875 55.140625 28.265625 54.417969 28.265625 53.597656 C 28.265625 52.777344 28.71875 52.054688 29.40625 51.621094 C 28.71875 51.1875 28.265625 50.460938 28.265625 49.640625 C 28.265625 48.316406 29.445312 47.238281 30.902344 47.238281 L 49.984375 47.238281 " fill-opacity="1" fill-rule="nonzero"/><path fill="#878585" d="M 49.984375 59.953125 L 41.730469 59.953125 C 41.546875 58.886719 40.390625 57.980469 40.746094 56.796875 C 41.046875 55.902344 41.792969 55.160156 42.988281 55.160156 C 41.941406 54.117188 42.242188 52.03125 43.882812 51.433594 C 44.332031 51.136719 44.03125 50.539062 43.882812 50.242188 C 43.585938 50.09375 43.136719 49.792969 43.136719 49.644531 C 42.625 48.75 42.773438 47.964844 43.191406 47.238281 L 49.984375 47.238281 C 51.441406 47.238281 52.625 48.316406 52.625 49.640625 C 52.625 50.460938 52.171875 51.1875 51.484375 51.621094 C 52.171875 52.054688 52.625 52.777344 52.625 53.597656 C 52.625 54.417969 52.171875 55.140625 51.484375 55.574219 C 52.171875 56.007812 52.625 56.730469 52.625 57.550781 C 52.625 58.878906 51.441406 59.953125 49.984375 59.953125 " fill-opacity="1" fill-rule="nonzero"/><path fill="#4f4c4c" d="M 28.265625 51.988281 L 36.789062 51.988281 C 37.078125 51.988281 37.3125 51.753906 37.3125 51.46875 C 37.3125 51.179688 37.078125 50.945312 36.789062 50.945312 L 28.265625 50.945312 C 27.976562 50.945312 27.742188 51.179688 27.742188 51.46875 C 27.742188 51.753906 27.976562 51.988281 28.265625 51.988281 " fill-opacity="1" fill-rule="nonzero"/><path fill="#4f4c4c" d="M 28.265625 55.988281 L 32.527344 55.988281 C 32.816406 55.988281 33.050781 55.753906 33.050781 55.464844 C 33.050781 55.179688 32.816406 54.945312 32.527344 54.945312 L 28.265625 54.945312 C 27.976562 54.945312 27.742188 55.179688 27.742188 55.464844 C 27.742188 55.753906 27.976562 55.988281 28.265625 55.988281 " fill-opacity="1" fill-rule="nonzero"/><path fill="#4f4c4c" d="M 47.960938 52.203125 L 52.21875 52.203125 C 52.507812 52.203125 52.742188 51.972656 52.742188 51.683594 C 52.742188 51.394531 52.507812 51.160156 52.21875 51.160156 L 47.960938 51.160156 C 47.671875 51.160156 47.4375 51.394531 47.4375 51.683594 C 47.4375 51.972656 47.671875 52.203125 47.960938 52.203125 " fill-opacity="1" fill-rule="nonzero"/><path fill="#4f4c4c" d="M 44.101562 55.988281 L 52.625 55.988281 C 52.910156 55.988281 53.144531 55.753906 53.144531 55.464844 C 53.144531 55.179688 52.910156 54.945312 52.625 54.945312 L 44.101562 54.945312 C 43.8125 54.945312 43.578125 55.179688 43.578125 55.464844 C 43.578125 55.753906 43.8125 55.988281 44.101562 55.988281 " fill-opacity="1" fill-rule="nonzero"/><path fill="#fcd564" d="M 27.035156 19.25 C 26.804688 19.25 26.574219 19.222656 26.34375 19.160156 C 24.925781 18.769531 24.109375 17.28125 24.476562 15.875 C 26.078125 9.734375 31.355469 3.765625 37.996094 3.359375 C 38.042969 3.359375 38.085938 3.355469 38.132812 3.355469 C 39.527344 3.355469 40.671875 4.683594 40.671875 6.027344 C 40.671875 7.550781 39.453125 8.609375 37.996094 8.699219 C 37.898438 8.703125 37.796875 8.707031 37.695312 8.71875 C 37.65625 8.722656 37.597656 8.734375 37.515625 8.75 C 37.199219 8.816406 36.886719 8.890625 36.582031 8.992188 C 36.433594 9.039062 36.289062 9.089844 36.140625 9.144531 C 36.125 9.152344 36.109375 9.160156 36.09375 9.167969 C 35.871094 9.273438 35.648438 9.382812 35.433594 9.503906 C 35.148438 9.667969 34.863281 9.835938 34.585938 10.027344 C 34.472656 10.105469 34.359375 10.183594 34.25 10.265625 C 34.214844 10.289062 34.171875 10.324219 34.121094 10.367188 C 33.664062 10.753906 33.222656 11.160156 32.8125 11.597656 C 32.578125 11.851562 32.347656 12.105469 32.128906 12.371094 C 32.058594 12.460938 32.011719 12.519531 31.984375 12.550781 C 31.910156 12.652344 31.835938 12.753906 31.765625 12.855469 C 31.425781 13.347656 31.097656 13.847656 30.8125 14.371094 C 30.652344 14.664062 30.492188 14.957031 30.347656 15.257812 C 30.292969 15.375 30.238281 15.492188 30.1875 15.609375 C 30.171875 15.644531 30.15625 15.6875 30.132812 15.738281 C 29.941406 16.25 29.773438 16.765625 29.636719 17.292969 C 29.328125 18.472656 28.207031 19.25 27.035156 19.25 " fill-opacity="1" fill-rule="nonzero"/><path fill="#eeedee" d="M 29.488281 49.902344 C 29.300781 49.902344 29.097656 49.78125 29.070312 49.546875 C 28.964844 48.636719 29.855469 47.597656 30.738281 47.484375 C 30.757812 47.484375 30.773438 47.480469 30.792969 47.480469 C 31.214844 47.480469 31.191406 48.171875 30.738281 48.230469 C 30.238281 48.292969 29.761719 49.082031 29.816406 49.546875 C 29.84375 49.785156 29.671875 49.902344 29.488281 49.902344 " fill-opacity="1" fill-rule="nonzero"/><path fill="#eeedee" d="M 29.039062 54.128906 C 28.851562 54.128906 28.667969 54.007812 28.671875 53.765625 C 28.683594 53.226562 28.851562 52.710938 29.230469 52.3125 C 29.304688 52.230469 29.394531 52.199219 29.476562 52.199219 C 29.757812 52.199219 30.011719 52.570312 29.757812 52.839844 C 29.515625 53.09375 29.425781 53.425781 29.417969 53.765625 C 29.414062 54.007812 29.222656 54.128906 29.039062 54.128906 " fill-opacity="1" fill-rule="nonzero"/><path fill="#eeedee" d="M 29.246094 58.96875 C 29.136719 58.96875 29.03125 58.910156 28.972656 58.773438 C 28.660156 58.054688 28.429688 57.054688 28.921875 56.359375 C 29.003906 56.246094 29.121094 56.195312 29.234375 56.195312 C 29.503906 56.195312 29.761719 56.460938 29.566406 56.738281 C 29.238281 57.199219 29.40625 57.910156 29.617188 58.398438 C 29.746094 58.695312 29.484375 58.96875 29.246094 58.96875 " fill-opacity="1" fill-rule="nonzero"/><path fill="#e4e4e4" d="M 36.597656 64.363281 C 36.515625 64.363281 36.429688 64.332031 36.351562 64.261719 C 35.699219 63.65625 35.015625 62.863281 34.859375 61.960938 C 34.808594 61.679688 35.050781 61.492188 35.269531 61.492188 C 35.414062 61.492188 35.546875 61.574219 35.578125 61.761719 C 35.714844 62.546875 36.3125 63.210938 36.878906 63.734375 C 37.152344 63.988281 36.894531 64.363281 36.597656 64.363281 " fill-opacity="1" fill-rule="nonzero"/></svg>