<?xml version="1.0" standalone="no"?>
<!DOCTYPE svg PUBLIC "-//W3C//DTD SVG 20010904//EN"
 "http://www.w3.org/TR/2001/REC-SVG-20010904/DTD/svg10.dtd">
<svg version="1.0" xmlns="http://www.w3.org/2000/svg"
 width="500.000000pt" height="500.000000pt" viewBox="0 0 500.000000 500.000000"
 preserveAspectRatio="xMidYMid meet">
<metadata>
Created by potrace 1.14, written by Peter Selinger 2001-2017
</metadata>
<g transform="translate(0.000000,500.000000) scale(0.100000,-0.100000)"
fill="#000000" stroke="none">
<path d="M0 2500 l0 -2500 2500 0 2500 0 0 2500 0 2500 -2500 0 -2500 0 0
-2500z m3045 250 l0 -595 -102 -3 -103 -3 0 601 0 601 103 -3 102 -3 0 -595z
m490 0 l0 -595 -100 0 -100 0 -3 598 -2 598 102 -3 103 -3 0 -595z m-2810 325
c33 -9 79 -29 103 -45 23 -17 45 -30 47 -30 2 0 24 13 47 30 154 107 383 53
478 -113 44 -77 51 -148 48 -472 l-3 -290 -100 0 -100 0 -5 321 c-5 347 -4
335 -60 381 -26 21 -85 25 -123 9 -71 -29 -71 -32 -77 -391 l-5 -320 -100 0
-100 0 -5 320 c-5 289 -7 324 -23 349 -38 58 -125 69 -182 24 -52 -41 -55 -61
-55 -393 l0 -305 -100 0 -100 0 0 335 c0 317 1 337 21 392 36 96 139 182 242
203 64 12 88 11 152 -5z m1508 0 c174 -37 318 -172 362 -340 15 -61 19 -142 9
-182 l-6 -23 -294 0 -294 0 0 105 0 105 183 2 182 3 -50 52 c-66 67 -139 91
-229 75 -239 -45 -290 -348 -81 -477 43 -26 57 -30 124 -30 61 0 84 4 114 23
21 12 40 22 43 22 2 0 3 -53 2 -117 l-3 -118 -70 -14 c-251 -50 -509 136 -544
392 -33 241 125 471 362 522 81 18 108 18 190 0z m2090 0 c139 -29 268 -130
327 -257 41 -88 51 -183 48 -443 l-3 -220 -102 -3 -102 -3 -3 268 c-4 304 -5
312 -83 387 -54 53 -99 70 -180 70 -102 0 -194 -58 -236 -149 -25 -54 -25
-156 0 -210 58 -124 205 -184 331 -136 30 12 56 21 58 21 1 0 1 -51 0 -112
l-3 -113 -65 -14 c-51 -10 -82 -11 -145 -2 -159 22 -285 112 -356 256 -36 71
-42 94 -46 167 -11 178 61 329 202 422 114 76 228 99 358 71z m-3913 -1213
c35 -61 68 -112 71 -112 4 0 37 52 74 115 37 63 73 115 81 115 12 0 14 -26 12
-160 -4 -194 -22 -224 -26 -42 -1 67 -6 122 -10 122 -4 0 -32 -44 -62 -97 -30
-53 -60 -98 -67 -100 -6 -3 -37 39 -68 91 -31 52 -60 98 -65 101 -6 4 -10 -42
-10 -120 0 -97 -3 -126 -12 -123 -10 4 -14 48 -16 167 -2 151 -1 162 15 159
11 -2 45 -50 83 -116z m741 -37 c37 -82 68 -156 69 -163 0 -26 -25 -6 -45 36
l-20 41 -96 1 -96 0 -13 -41 c-15 -44 -27 -56 -41 -42 -6 6 17 69 62 167 61
131 75 156 92 154 15 -2 37 -41 88 -153z m555 121 c28 -28 34 -42 34 -76 0
-34 -6 -48 -34 -76 l-34 -34 34 -47 c31 -44 35 -63 14 -63 -6 0 -26 25 -46 55
l-37 55 -58 0 -58 0 -3 -52 c-2 -30 -8 -53 -15 -56 -10 -3 -13 34 -13 162 l0
166 91 0 c90 0 91 0 125 -34z m344 -63 l0 -98 99 99 c55 55 105 96 112 94 9
-3 -8 -27 -49 -70 -34 -35 -62 -69 -62 -74 0 -5 29 -44 65 -87 64 -77 75 -97
54 -97 -11 0 -47 37 -106 108 -19 23 -41 42 -47 42 -27 0 -65 -55 -68 -99 -2
-25 -9 -46 -15 -49 -10 -3 -13 34 -13 162 0 141 2 166 15 166 12 0 15 -17 15
-97z m720 87 c0 -5 -42 -11 -92 -12 l-93 -3 0 -60 0 -60 83 -3 c45 -2 82 -7
82 -12 0 -5 -37 -10 -82 -12 l-83 -3 0 -60 0 -60 98 -3 c72 -2 97 -6 94 -15
-2 -8 -36 -12 -113 -12 l-109 0 -3 163 -2 162 110 0 c64 0 110 -4 110 -10z
m500 0 c0 -5 -26 -10 -57 -12 l-58 -3 -5 -149 c-4 -105 -9 -151 -17 -153 -9
-3 -13 33 -15 149 l-3 153 -57 3 c-32 2 -58 7 -58 12 0 6 56 10 135 10 79 0
135 -4 135 -10z m288 -152 c-3 -137 -5 -163 -18 -163 -13 0 -15 26 -18 163 -2
158 -2 162 18 162 20 0 20 -4 18 -162z m424 35 l103 -128 3 128 c2 104 5 127
17 127 13 0 15 -26 15 -165 0 -104 -4 -165 -10 -165 -6 0 -54 56 -108 124 -53
69 -103 125 -109 125 -10 1 -13 -31 -13 -125 0 -96 -3 -125 -12 -122 -10 4
-14 48 -16 166 -2 138 0 162 12 162 9 0 62 -57 118 -127z m673 113 c19 -8 35
-19 35 -25 0 -17 -20 -23 -34 -11 -45 37 -131 30 -179 -14 -84 -78 -31 -221
86 -233 67 -6 91 12 97 76 7 81 30 79 30 -2 0 -73 -5 -80 -69 -97 -159 -42
-287 139 -184 261 15 17 41 38 58 45 40 18 117 17 160 0z"/>
<path d="M1021 1860 c-17 -39 -31 -75 -31 -80 0 -6 30 -10 70 -10 49 0 70 4
70 12 0 18 -62 148 -70 148 -4 0 -21 -32 -39 -70z"/>
<path d="M1520 1875 l0 -85 70 0 c76 0 103 15 115 63 16 62 -40 107 -135 107
l-50 0 0 -85z"/>
</g>
</svg>
